<?xml version="1.0" encoding="UTF-8" standalone="no"?>
<!-- Created with Inkscape (http://www.inkscape.org/) -->

<svg
   width="210mm"
   height="297mm"
   viewBox="0 0 210 297"
   version="1.1"
   id="svg1"
   xml:space="preserve"
   inkscape:version="1.3.2 (091e20e, 2023-11-25)"
   sodipodi:docname="bg-login-right.svg"
   xmlns:inkscape="http://www.inkscape.org/namespaces/inkscape"
   xmlns:sodipodi="http://sodipodi.sourceforge.net/DTD/sodipodi-0.dtd"
   xmlns="http://www.w3.org/2000/svg"
   xmlns:svg="http://www.w3.org/2000/svg"><sodipodi:namedview
     id="namedview1"
     pagecolor="#ffffff"
     bordercolor="#000000"
     borderopacity="0.25"
     inkscape:showpageshadow="2"
     inkscape:pageopacity="0.0"
     inkscape:pagecheckerboard="0"
     inkscape:deskcolor="#d1d1d1"
     inkscape:document-units="mm"
     inkscape:zoom="0.42208655"
     inkscape:cx="836.32137"
     inkscape:cy="518.85094"
     inkscape:window-width="1600"
     inkscape:window-height="913"
     inkscape:window-x="22"
     inkscape:window-y="25"
     inkscape:window-maximized="0"
     inkscape:current-layer="layer1" /><defs
     id="defs1"><inkscape:path-effect
       effect="bspline"
       id="path-effect63"
       is_visible="true"
       lpeversion="1.3"
       weight="33.333333"
       steps="2"
       helper_size="0"
       apply_no_weight="true"
       apply_with_weight="true"
       only_selected="false"
       uniform="false" /><inkscape:path-effect
       effect="bspline"
       id="path-effect3"
       is_visible="true"
       lpeversion="1.3"
       weight="33.333333"
       steps="2"
       helper_size="0"
       apply_no_weight="true"
       apply_with_weight="true"
       only_selected="false"
       uniform="false" /><inkscape:path-effect
       effect="bspline"
       id="path-effect2"
       is_visible="true"
       lpeversion="1.3"
       weight="33.333333"
       steps="2"
       helper_size="0"
       apply_no_weight="true"
       apply_with_weight="true"
       only_selected="false"
       uniform="false" /><inkscape:path-effect
       effect="bspline"
       id="path-effect1"
       is_visible="true"
       lpeversion="1.3"
       weight="33.333333"
       steps="2"
       helper_size="0"
       apply_no_weight="true"
       apply_with_weight="true"
       only_selected="false"
       uniform="false" /></defs><g
     inkscape:label="Layer 1"
     inkscape:groupmode="layer"
     id="layer1"><path
       style="fill:#fef5f8;fill-opacity:1;stroke:none;stroke-width:0.148;stroke-linecap:round"
       d="m 148.43877,-24.193756 c 4.53633,9.324677 7.81257,22.429628 7.81254,34.1485812 -4e-5,11.7189528 -3.27621,22.0514978 -9.82879,28.3519778 -6.55257,6.300479 -16.38108,8.568598 -24.44573,11.340832 -8.06465,2.772234 -14.36498,6.048406 -17.26319,12.222946 -2.8982,6.174539 -2.39418,15.247017 -1.76412,22.42959 0.63005,7.182574 1.38609,12.474852 1.89013,20.539549 0.50404,8.06469 0.75605,18.90126 -1.13412,29.10809 -1.89018,10.20684 -5.922395,19.78335 -14.239124,23.68961 -8.31673,3.90627 -20.917393,2.14218 -30.242129,-3.27631 -9.324736,-5.41848 -15.373055,-14.49096 -21.547566,-14.86891 -6.174512,-0.37794 -12.474844,7.9385 -15.247036,14.239 -2.772193,6.3005 -2.016153,10.58473 -1.764137,17.13729 0.252015,6.55256 2e-6,15.37303 -4.536415,21.54751 -4.536417,6.17448 -13.3568829,9.70267 -24.8238547,-1.26038 C -20.161744,180.19257 -34.274487,154.73923 -44.103256,127.26894 -53.932025,99.798652 -59.476316,70.313102 -53.301689,40.700656 -47.127062,11.08821 -29.234122,-18.649353 3.6547434,-32.888375 36.543609,-47.127396 84.426128,-45.86733 111.26613,-42.465026 c 26.84001,3.402304 32.63631,8.946593 37.17264,18.27127 z"
       id="path63"
       inkscape:path-effect="#path-effect63"
       inkscape:original-d="m 149.69886,-27.97403 c 3.27624,13.104951 6.55248,26.209902 9.82872,39.314853 -3.2763,10.332957 -6.55248,20.6655 -9.82872,30.998249 -9.82891,2.268212 -19.65742,4.536331 -29.48614,6.804495 -6.30058,3.276304 -12.60091,6.552475 -18.90137,9.828713 0.50405,9.07284 1.00807,18.145318 1.51211,27.217975 0.75607,5.29249 1.51211,10.584768 2.26817,15.877155 0.25202,10.837 0.50403,21.67357 0.75605,32.51036 -4.03237,9.57688 -8.064584,19.15339 -12.096876,28.73008 -12.601168,-1.76416 -25.20183,-3.52826 -37.802743,-5.29238 -6.04856,-9.07284 -12.09688,-18.14532 -18.145318,-27.21798 -6.300584,8.31677 -12.600914,16.63321 -18.901371,24.94981 0.75607,4.2844 1.51211,8.56863 2.268164,12.85294 -0.252023,8.82081 -0.504036,17.64128 -0.756054,26.46192 -8.820817,3.52832 -17.6412808,7.05651 -26.461921,10.58476 -14.113307,-25.45435 -28.226048,-50.90769 -42.339074,-76.36154 -5.544513,-29.486728 -11.088803,-58.972278 -16.633205,-88.458418 17.893656,-29.738752 35.786596,-59.476315 53.679895,-89.214475 47.884432,1.260118 95.766951,2.520183 143.650423,3.780274 5.79654,5.544516 11.59284,11.088807 17.38926,16.633209 z" /><path
       style="fill:#f3f4ff;stroke:none;stroke-width:0.148;stroke-linecap:round;fill-opacity:1"
       d="m 98.053492,309.70235 c -0.261942,-14.58142 -1.484336,-32.74271 1.571723,-46.53839 3.056055,-13.79569 10.390285,-23.2254 18.772505,-29.3374 8.38223,-6.112 17.81194,-8.90599 26.10683,-16.85169 8.29489,-7.94569 15.45449,-21.04251 22.52699,-27.853 7.07249,-6.81049 14.05746,-7.33436 20.69337,-8.03288 6.63592,-0.69852 12.9224,-1.57164 21.82853,5.3263 8.90613,6.89795 20.43133,21.56638 33.44125,44.87951 13.00991,23.31313 27.50373,55.26937 19.90712,79.5428 -7.59661,24.27343 -37.28273,40.86273 -68.62875,45.49029 -31.34601,4.62757 -64.35,-2.70665 -80.50306,-11.87472 C 97.616936,335.2851 98.315433,324.28378 98.053492,309.70235 Z"
       id="path1"
       inkscape:path-effect="#path-effect2"
       inkscape:original-d="m 99.013945,313.28222 c -1.222393,-18.16129 -2.444789,-36.32258 -3.667183,-54.48386 7.334508,-9.43009 14.668728,-18.85981 22.003098,-28.2897 9.43009,-2.7941 18.8598,-5.58809 28.2897,-8.38214 7.15988,-13.09734 14.31948,-26.19416 21.47922,-39.29124 6.98525,-0.5239 13.97022,-1.04777 20.95533,-1.57166 6.28672,-0.87315 12.5732,-1.74627 18.8598,-2.61941 11.52566,14.66903 23.05086,29.33746 34.5763,44.0062 14.49439,31.95752 28.9882,63.91376 43.48231,95.87064 -29.68732,16.58998 -59.37344,33.17928 -89.06016,49.76892 -33.00531,-7.33452 -66.0093,-14.66874 -99.013949,-22.0031 0.698526,-11.00177 1.397024,-22.00309 2.095534,-33.00465 z" /><path
       style="fill:#000000"
       d="m -94.653103,4.9140863 c -0.14286,-0.466777 -0.16763,-1.003669 -0.0404,-0.876482 0.19308,0.193083 0.32791,0.942628 0.16956,0.942628 -0.0599,0 -0.11799,-0.02977 -0.12912,-0.06615 z"
       id="path59" /><path
       style="fill:#000000"
       d="m -97.048803,6.7418253 c 0.16208,-0.19529 0.20642,-0.452504 0.0985,-0.571586 -0.10788,-0.119082 -0.0415,-0.127293 0.14744,-0.01825 0.26471,0.152754 0.27245,0.283961 0.0337,0.571586 -0.17041,0.205325 -0.36936,0.373319 -0.44212,0.373319 -0.0728,0 3.1e-4,-0.159783 0.16239,-0.355073 z"
       id="path57" /><path
       style="fill:#000000"
       d="m -81.139113,9.6387483 c 0,-0.05719 0.18478,-0.17489 0.41062,-0.261553 0.23546,-0.09035 0.34166,-0.046 0.24897,0.103984 -0.15538,0.251408 -0.65959,0.371858 -0.65959,0.157569 z"
       id="path54" /><path
       style="fill:#000000"
       d="m -99.659944,11.49492 c 0,-0.05494 0.20836,-0.263301 0.46302,-0.463021 0.419641,-0.329107 0.429001,-0.319749 0.0999,0.0999 -0.34564,0.440729 -0.56291,0.580887 -0.56291,0.363126 z"
       id="path53" /><path
       style="fill:#000000"
       d="m -105.128,12.797079 c 0,-0.21188 0.10116,-0.322716 0.22481,-0.246301 0.12364,0.07641 0.1563,0.24977 0.0726,0.385236 -0.21394,0.346176 -0.29738,0.307197 -0.29738,-0.138935 z"
       id="path52" /><path
       style="fill:#000000"
       d="m -87.559663,13.149484 c 0.17947,-0.180822 0.39297,-0.262116 0.47443,-0.180654 0.0815,0.08146 -0.0654,0.229407 -0.32632,0.328766 -0.37708,0.143585 -0.40748,0.113194 -0.14811,-0.148112 z"
       id="path51" /><path
       style="fill:#000000"
       d="m -81.315503,14.119995 c 0,-0.21188 0.10117,-0.322715 0.22481,-0.246301 0.12364,0.07641 0.1563,0.249771 0.0726,0.385237 -0.21395,0.346176 -0.29739,0.307196 -0.29739,-0.138936 z"
       id="path50" /><path
       style="fill:#000000"
       d="m -96.058143,15.779735 c 0.0764,-0.123641 0.24977,-0.156301 0.38523,-0.07258 0.34618,0.213948 0.3072,0.297381 -0.13893,0.297381 -0.21188,0 -0.32272,-0.101161 -0.2463,-0.224801 z"
       id="path48" /><path
       style="fill:#000000"
       d="m -109.55456,16.930579 c -0.075,-0.121267 0.0319,-0.220486 0.23733,-0.220486 0.20548,0 0.31227,0.09922 0.23733,0.220486 -0.075,0.121267 -0.18175,0.220486 -0.23733,0.220486 -0.0556,0 -0.16239,-0.09922 -0.23733,-0.220486 z"
       id="path47" /><path
       style="fill:#000000"
       d="m -79.816193,19.167837 c 0,-0.05494 0.20836,-0.263302 0.46302,-0.463021 0.41964,-0.329107 0.429,-0.319749 0.0999,0.0999 -0.34565,0.440729 -0.56292,0.580887 -0.56292,0.363126 z"
       id="path46" /><path
       style="fill:#000000"
       d="m -111.478,18.914954 c 0,-0.194028 0.15686,-0.352778 0.34858,-0.352778 0.26048,0 0.27458,0.08916 0.0558,0.352778 -0.16103,0.194028 -0.31789,0.352778 -0.34858,0.352778 -0.0307,0 -0.0558,-0.15875 -0.0558,-0.352778 z"
       id="path45" /><path
       style="fill:#000000"
       d="m -103.36411,19.43242 c 0,-0.05494 0.20836,-0.263301 0.46302,-0.46302 0.41965,-0.329108 0.42901,-0.31975 0.0999,0.09989 -0.34565,0.44073 -0.56292,0.580887 -0.56292,0.363126 z"
       id="path44" /><path
       style="fill:#000000"
       d="m -102.83494,19.697004 c 0,-0.05494 0.20836,-0.263302 0.46302,-0.463021 0.41964,-0.329108 0.429,-0.319749 0.0999,0.0999 -0.34564,0.440729 -0.56291,0.580887 -0.56291,0.363126 z"
       id="path43" /><path
       style="fill:#000000"
       d="m -65.936603,20.08353 c 0.0731,-0.498291 0.48446,-0.455041 0.55988,0.05887 0.0291,0.198029 -0.0989,0.360052 -0.28426,0.360052 -0.18541,0 -0.30944,-0.188516 -0.27562,-0.418924 z"
       id="path42" /><path
       style="fill:#000000"
       d="m -109.97869,20.667143 c 0,-0.151956 0.20836,-0.439691 0.46302,-0.63941 0.4283,-0.335893 0.43391,-0.32344 0.0749,0.166041 -0.21349,0.291041 -0.42184,0.578776 -0.46302,0.639409 -0.0412,0.06063 -0.0749,-0.01408 -0.0749,-0.16604 z"
       id="path41" /><path
       style="fill:#000000"
       d="m 275.48059,19.897555 c 0,-0.129075 0.36962,-0.813685 0.82137,-1.521354 0.45175,-0.70767 1.91026,-3.137423 3.24114,-5.399452 4.0364,-6.8604527 6.96323,-10.1482617 9.03408,-10.1482617 1.19969,0 1.65321,0.455816 2.14842,2.159294 0.38943,1.339586 0.38773,1.735819 -0.0214,4.992611 -0.41038,3.2666977 -0.41174,3.6499107 -0.0178,5.0051497 0.23665,0.81404 0.61958,1.541642 0.85989,1.633858 0.66783,0.25627 2.30999,-1.754156 4.63488,-5.674284 3.65821,-6.1683057 5.54345,-8.2267617 7.76369,-8.4770157 1.95845,-0.220745 2.7666,0.870322 3.55776,4.803219 1.33498,6.6362777 2.65247,6.5695417 7.26987,-0.368249 2.21839,-3.333206 4.06579,-5.291666 4.99159,-5.291666 0.84204,0 1.40362,0.927522 2.67065,4.410913 0.53837,1.480117 1.1407,2.908866 1.33851,3.175 0.51432,0.691969 1.14227,0.234819 2.09064,-1.52199 1.51632,-2.808909 2.38289,-2.972153 6.03657,-1.137166 l 2.43432,1.222591 2.45518,-0.180221 2.45518,-0.180222 v 0.65382 c 0,0.918078 -1.78603,1.759358 -3.73511,1.759358 -1.22301,0 -1.85525,-0.208151 -4.01823,-1.322917 -1.41177,-0.727604 -2.65583,-1.322634 -2.76457,-1.322289 -0.10874,3.45e-4 -0.67396,0.786386 -1.25604,1.746758 -1.30891,2.1595537 -2.02213,2.7505307 -3.31946,2.7505307 -1.55252,0 -2.3184,-1.166718 -4.14692,-6.3173727 l -0.50502,-1.422581 -1.04139,1.345076 c -0.57276,0.739792 -1.57275,2.094328 -2.2222,3.010081 -2.86176,4.0351917 -4.56296,5.5543797 -6.21983,5.5543797 -2.00466,0 -3.2459,-1.795522 -3.98666,-5.7669337 -0.79001,-4.23538 -1.25892,-4.73934 -3.11516,-3.347961 -1.28934,0.966448 -2.76683,2.97577 -4.59158,6.2443557 -3.95344,7.081628 -6.08869,8.850565 -8.22222,6.811654 -1.47703,-1.411528 -1.61945,-2.889638 -0.97118,-10.0794477 0.17932,-1.98885 -0.18833,-3.320453 -0.84699,-3.067703 -1.37574,0.527923 -2.95007,2.442471 -8.2122,9.9868947 -3.33336,4.779109 -4.58982,6.224922 -4.58982,5.281543 z"
       id="path27" /><path
       style="fill:#000000"
       d="m 299.46989,31.748403 c -0.68026,-0.450587 -1.44481,-1.078891 -1.69901,-1.396231 -0.73775,-0.921028 -2.51518,-2.205723 -3.30421,-2.388213 -1.39338,-0.32227 -3.91599,1.286708 -4.60581,2.937694 -0.41133,0.984445 -1.23579,1.173591 -1.66006,0.380845 -0.73486,-1.373097 1.23054,-4.047392 3.85882,-5.250659 2.32677,-1.065232 4.08386,-0.473745 7.26504,2.44562 1.02421,0.939919 2.06118,1.708159 2.30438,1.7072 0.74808,-0.0029 1.8033,-0.86331 3.41736,-2.786282 2.82096,-3.360882 5.25967,-4.005252 8.07815,-2.134455 0.80585,0.534897 1.6105,1.147621 1.78809,1.361611 0.27372,0.329808 0.61791,0.108842 2.25968,-1.45068 2.66202,-2.528656 3.28439,-2.680719 7.07005,-1.727401 2.85922,0.72002 2.87343,0.72085 4.55437,0.265841 0.92741,-0.251038 1.81224,-0.378541 1.96628,-0.283339 0.49646,0.306833 0.29913,1.083882 -0.44753,1.762243 -1.56201,1.419117 -3.38684,1.644281 -6.19414,0.764286 -2.86181,-0.897083 -3.43931,-0.781685 -5.26796,1.052647 -0.86917,0.871875 -1.8662,1.772547 -2.21561,2.001493 -0.98198,0.643417 -2.17409,0.563167 -3.00041,-0.201979 -1.33122,-1.232679 -2.81329,-2.061825 -3.68543,-2.061825 -0.89997,0 -1.53602,0.534145 -4.36497,3.665631 -2.09829,2.322696 -4.00025,2.738079 -6.11708,1.335953 z"
       id="path26" /><path
       style="fill:#000000"
       d="m 446.75491,36.337453 c -2.34224,-3.514903 -2.84957,-5.463253 -2.60613,-10.008498 0.20507,-3.828715 0.0745,-4.576666 -1.17151,-6.712337 -0.38641,-0.662295 -0.97915,-1.97808 -1.31721,-2.923965 -0.33806,-0.945885 -1.12494,-2.440064 -1.74863,-3.320397 -1.5063,-2.126165 -1.82451,-3.361462 -1.46416,-5.6839557 0.38645,-2.490742 0.35233,-4.113614 -0.10509,-4.998157 -0.6943,-1.342632 0.37621,-1.540348 1.1849,-0.218844 0.45742,0.747495 0.52364,1.309501 0.50657,4.299479 -0.0213,3.7269667 0.0165,3.9157097 1.13691,5.6885417 0.41387,0.654844 1.04518,2.143125 1.4029,3.307291 0.40039,1.30306 1.11794,2.80107 1.86675,3.897199 1.4449,2.115068 1.62549,3.06437 1.18627,6.235832 -0.28742,2.075345 -0.26744,2.498067 0.20256,4.286761 0.28679,1.091406 0.99573,3.075305 1.57543,4.408664 0.7591,1.745999 0.9735,2.504783 0.76631,2.711979 -0.43654,0.436534 -0.5144,0.383217 -1.41587,-0.969593 z"
       id="path25" /><path
       style="fill:#bac5ed;stroke-width:1.91713;fill-opacity:1"
       d="m 37.1191,74.707009 c -6.52327,-1.95529 -8.920815,-8.871278 -5.622295,-16.218206 0.814148,-1.813388 3.45377,-5.946006 5.865828,-9.1836 4.969798,-6.670746 5.709907,-7.881919 5.061361,-8.282745 -0.250723,-0.154943 -1.67795,0.399624 -3.171645,1.232376 -7.174385,3.999828 -9.669608,4.743098 -10.529422,3.1365 -0.789916,-1.47594 -0.307067,-2.304221 2.69194,-4.61795 3.685148,-2.843067 9.302381,-8.758136 9.960187,-10.48828 0.457466,-1.203226 0.396655,-1.552993 -0.370217,-2.129118 -1.606134,-1.206662 -5.116881,-0.433544 -10.854222,2.390264 -2.9543,1.45405 -6.106639,2.66463 -7.005198,2.690178 -1.962912,0.05581 -3.323366,-1.12471 -2.885609,-2.503965 0.171967,-0.542131 2.798974,-3.400516 5.837589,-6.351966 5.979456,-5.807938 8.839164,-9.785566 7.599585,-10.57038 -1.112339,-0.704251 -2.282518,-0.559312 -6.257517,0.775054 -4.362643,1.464491 -11.733668,5.592964 -14.585056,8.169023 -1.200776,1.084832 -2.327742,1.706721 -2.779054,1.533538 -0.4175322,-0.160214 -0.8546192,-0.291315 -0.9712952,-0.291315 -0.116754,0 -0.212131,-0.619251 -0.212131,-1.376113 0,-1.006167 0.728606,-2.062981 2.7102492,-3.931115 5.274891,-4.972714 14.910297,-9.4027596 20.451151,-9.4027596 4.473703,0 6.215934,1.3873186 6.242448,4.9707896 0.01936,2.627781 -0.911998,4.573351 -3.849005,8.03973 l -2.213175,2.61208 2.358915,-0.709928 c 4.665934,-1.404241 8.825706,-0.446503 10.338572,2.380338 1.099053,2.053575 0.324743,5.765513 -1.76054,8.4398 l -1.886247,2.419063 1.701282,0.28277 c 2.33729,0.388476 2.804476,0.758294 3.193078,2.527601 0.445886,2.030098 -0.743444,4.247217 -5.930109,11.054749 -6.271512,8.231427 -7.855637,12.430875 -6.262674,16.602021 1.065369,2.789643 2.902422,3.890218 7.115855,4.263127 3.554764,0.314613 4.138454,1.417669 1.268106,2.396503 -2.072745,0.70684 -3.259085,0.73891 -5.250735,0.141944 z"
       id="path24" /><path
       style="fill:#000000"
       d="m 373.03279,45.364993 c -0.32565,-0.325652 -0.20075,-2.116872 0.34283,-4.916605 0.63878,-3.290049 0.67719,-5.505656 0.11431,-6.594145 -0.72684,-1.405549 -2.17569,-1.822552 -7.34267,-2.11334 -4.96811,-0.279595 -7.21483,-0.71255 -8.66517,-1.669823 -0.75285,-0.496905 -1.18447,-0.597029 -2.11943,-0.491646 -2.28375,0.257411 -4.48296,-0.815762 -5.46271,-2.665693 -0.64243,-1.213003 -0.55098,-4.108589 0.19745,-6.252338 0.82124,-2.35232 3.73209,-8.715701 4.80542,-10.505099 0.98419,-1.6407837 2.88116,-3.2532337 3.82728,-3.2532337 0.97536,0 0.75915,0.739847 -0.55402,1.895739 -0.64758,0.570025 -1.53116,1.6565977 -1.9635,2.4146057 -1.06931,1.874777 -4.1543,8.871563 -4.65498,10.557548 -1.08863,3.665804 0.0859,6.03419 2.9924,6.03419 h 1.04361 l -0.2217,-0.983021 c -0.68118,-3.020269 3.08957,-10.135318 6.02039,-11.359891 2.71825,-1.13576 4.31787,0.771017 3.51211,4.186513 -0.71283,3.021619 -3.0692,6.589453 -5.4008,8.177472 -0.51713,0.352212 -0.94105,0.720113 -0.94204,0.817559 -0.005,0.487974 3.06446,1.079977 7.32302,1.412389 2.59254,0.202366 5.14443,0.494293 5.67087,0.648725 1.22093,0.358162 2.54496,1.258855 3.25069,2.211344 0.82469,1.113029 0.89679,4.143599 0.16998,7.145287 -0.31088,1.283976 -0.64948,3.00881 -0.75243,3.832965 -0.12962,1.037704 -0.31297,1.522688 -0.59627,1.577248 -0.22501,0.04333 -0.49259,-0.0047 -0.59464,-0.10675 z M 360.50343,24.623998 c 1.73943,-1.843852 2.89747,-3.910437 3.39214,-6.053456 0.36269,-1.571261 0.0603,-2.142472 -1.13411,-2.142472 -1.48454,0 -3.70515,2.725821 -5.16503,6.340141 -0.62716,1.552671 -0.87567,3.62221 -0.50666,4.219278 0.29067,0.470318 1.5871,-0.427278 3.41366,-2.363491 z"
       id="path23" /><path
       style="fill:#000000"
       d="m 286.91976,47.633016 c -1.36526,-0.269159 -1.64958,-0.428727 -1.64958,-0.925771 0,-0.306041 0.53504,-0.384655 2.71198,-0.398469 1.49158,-0.0095 3.66163,-0.158294 4.82233,-0.330729 2.47791,-0.368126 2.77421,-0.702794 2.78054,-3.140566 0.005,-1.99952 0.32042,-2.735603 1.32095,-3.084389 1.22397,-0.426677 2.19892,-0.116399 3.72358,1.185023 1.91969,1.638614 2.33405,1.830747 2.84542,1.319371 0.2288,-0.228795 0.83999,-1.222683 1.3582,-2.208641 1.68257,-3.201275 3.81154,-3.558236 6.21897,-1.042724 3.07859,3.216809 4.21101,3.12326 6.72701,-0.555718 1.34763,-1.970563 2.53221,-3.085892 3.06168,-2.882715 0.6346,0.243519 0.51356,0.701143 -0.8441,3.191324 -1.95932,3.593725 -3.44212,4.92114 -5.4972,4.92114 -1.61494,0 -2.95612,-0.756439 -4.59811,-2.593371 -1.55069,-1.734793 -1.55596,-1.737871 -2.22605,-1.298812 -0.36942,0.242056 -1.05712,1.163259 -1.52821,2.047118 -0.99504,1.866879 -1.93734,2.638815 -3.22122,2.638815 -1.01203,0 -1.82315,-0.542047 -3.44653,-2.303215 -1.06243,-1.152594 -1.98981,-1.451588 -2.49882,-0.805639 -0.14334,0.181901 -0.32814,0.93247 -0.41066,1.667932 -0.2372,2.113878 -0.88735,3.452846 -1.91284,3.939477 -1.61548,0.766595 -5.51211,1.099261 -7.73734,0.660559 z"
       id="path22" /><path
       style="fill:#000000"
       d="m 417.48382,49.037964 c -1.58265,-2.744035 -2.01161,-3.830435 -2.20859,-5.593511 -0.20357,-1.822069 -0.74603,-2.816135 -1.76771,-3.23933 -0.42817,-0.177351 -1.11985,-0.6097 -1.53708,-0.960775 -0.63911,-0.537773 -0.7586,-0.836371 -0.7586,-1.895665 0,-0.691541 0.1773,-1.841816 0.39401,-2.556168 0.21671,-0.714351 0.3953,-1.55807 0.39688,-1.87493 0.004,-0.71222 -1.05124,-1.571069 -2.44077,-1.987381 -1.50324,-0.450383 -1.85688,-1.111129 -1.52664,-2.852458 0.44652,-2.354464 0.32776,-4.231365 -0.36044,-5.696551 -0.75632,-1.61023 -1.16884,-1.979667 -3.22748,-2.890436 -2.43216,-1.076019 -2.9413,-2.304361 -2.10197,-5.07116 0.61076,-2.013303 0.52056,-2.938499 -0.37365,-3.832715 -0.92035,-0.9203397 -1.85226,-0.9925507 -3.07296,-0.238113 -0.79225,0.489637 -0.90205,0.499352 -1.28748,0.113918 -0.83913,-0.8391267 0.57417,-2.2576007 2.42673,-2.4356077 1.7118,-0.164483 3.00923,0.41924 4.01361,1.805748 0.98141,1.3547937 1.04323,2.5225317 0.26498,5.0056617 -0.2961,0.944742 -0.47747,1.956773 -0.40305,2.248958 0.084,0.329842 0.76204,0.832169 1.78846,1.324996 1.97701,0.949242 3.19129,2.399347 3.81993,4.561806 0.40641,1.397977 0.41134,2.136194 0.0373,5.583337 -0.057,0.525332 0.14255,0.699129 1.30516,1.136771 1.58181,0.595437 2.99318,2.030184 2.99318,3.042746 0,0.374114 -0.18524,1.395074 -0.41164,2.268801 -0.59653,2.302089 -0.46387,2.829845 0.91323,3.632961 1.67485,0.976756 2.10613,1.699899 2.39864,4.021901 0.1876,1.489165 0.49915,2.467708 1.18012,3.706588 1.31685,2.395703 1.81885,3.911023 1.44493,4.361568 -0.16412,0.197759 -0.39247,0.359561 -0.50743,0.359561 -0.11497,0 -0.74123,-0.922734 -1.3917,-2.050521 z"
       id="path21" /><path
       style="fill:#000000"
       d="m 392.29413,52.955141 c -1.9865,-1.021219 -3.02205,-3.683194 -2.50121,-6.429572 0.39224,-2.068302 1.49719,-4.212466 4.42916,-8.594857 3.69349,-5.520616 3.99437,-6.158973 2.9007,-6.154225 -0.96709,0.0042 -3.18395,1.165793 -5.77343,3.025169 -2.43437,1.748004 -3.23206,2.125441 -4.12752,1.952991 -1.02362,-0.197132 -0.49171,-1.156121 1.72438,-3.108915 1.21458,-1.070273 2.82862,-2.792476 3.58676,-3.827119 2.70777,-3.695347 3.18302,-6.125795 1.49312,-7.635856 -1.76918,-1.580895 -4.48657,-0.679666 -10.99238,3.645654 -3.9342,2.615613 -5.25042,3.243884 -5.81475,2.775537 -0.9224,-0.765523 -0.18696,-2.068742 3.31766,-5.879001 4.11358,-4.472325 6.13683,-7.486988 6.48466,-9.662208 0.35023,-2.190208 -1.25553,-4.0400027 -3.50878,-4.0420127 -3.96741,-0.0035 -12.67607,5.6365787 -14.51883,9.4030487 -0.69156,1.41349 -0.96665,1.608173 -1.81331,1.283279 -1.68792,-0.647715 2.01372,-5.191452 6.97288,-8.559152 4.74678,-3.2234767 9.25943,-4.4726767 11.79292,-3.2645407 1.17093,0.558379 2.4317,2.4078817 2.65459,3.8941657 0.43118,2.875354 -0.86329,5.116189 -7.38526,12.784521 -0.68481,0.805184 -0.52797,0.740023 1.5875,-0.659524 3.2947,-2.179701 4.66414,-2.937334 6.37036,-3.524359 2.94441,-1.013026 5.37204,-0.501564 6.62807,1.396428 1.36369,2.060677 0.69851,5.282161 -1.7642,8.54399 l -1.01146,1.339679 1.28131,-0.634113 c 1.62157,-0.802506 3.68257,-0.888318 4.459,-0.185655 1.09001,0.986447 0.58166,2.251666 -3.03514,7.554077 -3.30097,4.839374 -4.48776,7.292064 -4.47889,9.256331 0.008,1.788272 0.49355,2.829529 1.70355,3.653758 0.78277,0.533213 1.15414,0.610915 2.4004,0.502249 0.8109,-0.07071 1.98791,-0.390548 2.61558,-0.710761 0.87338,-0.445564 1.18915,-0.504656 1.34543,-0.251781 0.35616,0.576278 -0.0217,1.005957 -1.53596,1.746842 -1.97175,0.964688 -4.05229,1.103448 -5.48691,0.365932 z"
       id="path20" /><path
       style="fill:#eef2fd;fill-opacity:1"
       d="m 116.52979,182.99516 c -2.60857,-0.50068 -4.69917,-2.91101 -4.94383,-5.69994 -0.2394,-2.72885 1.22093,-5.5216 4.03275,-7.71226 1.12732,-0.87829 1.97608,-0.98988 1.96366,-0.25816 -0.003,0.18647 -0.6035,0.93434 -1.33407,1.66195 -1.63588,1.62922 -2.89569,4.04282 -2.88769,5.53236 0.009,1.60472 0.83185,3.17764 2.10359,4.01924 3.01216,1.99335 7.47427,-0.13667 7.88301,-3.76301 0.1063,-0.94308 0.0193,-1.22487 -0.55554,-1.79973 -1.00765,-1.00765 -2.59061,-0.95395 -3.66902,0.12445 -0.69315,0.69315 -0.78417,0.94069 -0.64998,1.76762 0.0858,0.52887 0.33492,1.14047 0.55356,1.3591 0.35363,0.35363 0.45191,0.34829 0.89024,-0.0484 0.271,-0.24525 0.57236,-0.36628 0.66969,-0.26895 0.32928,0.32928 0.1795,1.0628 -0.30689,1.50298 -1.22197,1.10587 -3.06207,-0.046 -3.37168,-2.11065 -0.34202,-2.28077 0.96963,-4.14318 3.148,-4.46985 2.79105,-0.41854 4.96322,1.23942 4.92594,3.75984 -0.0594,4.01324 -4.27277,7.2055 -8.45174,6.40341 z"
       id="path19" /><path
       style="fill:#000000"
       d="m 379.99321,64.269657 c -3.75172,-1.07558 -6.60157,-6.46829 -5.19601,-9.83229 0.47714,-1.14196 2.27029,-2.652759 3.63316,-3.061084 1.90595,-0.571038 4.74036,-0.454706 6.15679,0.252693 3.33321,1.664691 3.72645,5.381291 0.86301,8.156651 -1.90225,1.84373 -4.42802,1.50043 -5.19055,-0.7055 -0.37569,-1.08683 -0.36413,-1.18988 0.26459,-2.35879 0.36159,-0.67227 0.77649,-1.17288 0.92202,-1.11247 0.14552,0.0604 0.22294,0.22889 0.17205,0.37441 -0.0509,0.14552 -0.0877,0.73997 -0.0818,1.321 0.0149,1.47408 0.79173,2.11335 1.98042,1.62973 0.88704,-0.36089 1.93379,-1.6799 2.21162,-2.78685 0.24763,-0.98666 -0.65008,-2.45109 -1.86672,-3.04516 -2.06707,-1.009333 -5.56111,-0.397428 -6.91444,1.21091 -1.41642,1.68332 -0.55935,4.91555 1.87058,7.05446 1.52262,1.34026 2.68545,1.60766 4.37765,1.00664 1.48534,-0.52754 1.55797,-0.53175 1.55797,-0.0902 0,0.55495 -1.41377,1.75641 -2.39942,2.03909 -1.04882,0.3008 -1.13268,0.29891 -2.36088,-0.0532 z"
       id="path18" /><path
       style="fill:#e5e6fa;fill-opacity:1"
       d="m 23.264492,283.67597 c -6.73728,-2.36647 -11.15225,-11.3162 -9.35129,-18.95632 0.95955,-4.07064 4.42289,-8.66465 7.93467,-10.52508 7.44996,-3.94676 15.11727,-0.57344 18.28872,8.04634 1.49331,4.05871 0.88176,7.68354 -1.64571,9.75462 -1.83337,1.50231 -3.40157,2.06301 -5.80149,2.07427 -2.6888,0.0126 -4.54602,-0.81644 -6.37363,-2.84521 -3.03204,-3.36576 -3.30486,-7.33286 -0.68449,-9.95323 2.78183,-2.78183 6.95886,-2.38777 7.37242,0.69551 0.15532,1.15807 -0.45535,2.45803 -1.1547,2.45803 -0.30231,0 -0.34599,-0.24451 -0.20803,-1.1645 0.14296,-0.95327 0.0805,-1.25862 -0.34424,-1.68338 -0.4341,-0.4341 -0.722,-0.48804 -1.76225,-0.33017 -3.05806,0.4641 -4.59692,3.2889 -3.48609,6.39924 1.13984,3.19157 5.07784,5.33779 8.23257,4.48677 2.87577,-0.77577 4.62614,-2.79461 4.62614,-5.33567 0,-2.83445 -2.2213,-7.56008 -4.53708,-9.65225 -4.05082,-3.65967 -9.97742,-3.11451 -14.38062,1.3228 -2.75262,2.77393 -4.10105,6.0351 -4.10105,9.91834 0,2.62746 0.4652,4.66346 1.56197,6.83615 2.37281,4.70051 6.19747,7.19433 11.03361,7.19433 1.76844,0 1.95651,0.05 1.95651,0.51986 0,0.76947 -0.82225,1.07943 -3.24883,1.22471 -1.81964,0.10894 -2.46146,0.0297 -3.92711,-0.48516 z"
       id="path17" /><path
       style="fill:#000000"
       d="m 387.66392,70.586567 c -0.64438,-0.21974 -0.92604,-0.47674 -0.92604,-0.84496 0,-0.48649 0.22402,-0.54069 2.77813,-0.67205 3.49325,-0.17967 4.98087,-0.78511 6.89063,-2.80439 2.20203,-2.32833 2.61513,-2.47174 5.96973,-2.07241 1.60941,0.19158 1.6199,0.18841 2.75216,-0.83358 0.69944,-0.63132 1.42335,-1.66456 1.88217,-2.68642 2.1068,-4.6921 4.42768,-5.89429 9.05325,-4.68948 2.01944,0.526 3.42448,0.50348 4.1269,-0.0661 0.31403,-0.25466 1.19043,-1.46424 1.94754,-2.68795 1.65251,-2.670915 2.28417,-3.181705 4.17026,-3.372308 1.21094,-0.122373 1.7759,-0.01114 3.55631,0.700186 1.56463,0.625116 2.38037,0.810597 3.12778,0.711188 1.37388,-0.182734 2.91173,-1.254213 3.46078,-2.411251 0.24946,-0.525687 0.57057,-0.883479 0.71358,-0.795094 0.68625,0.424125 -1.19173,3.485791 -2.63605,4.297542 -1.38317,0.777387 -3.06811,0.750917 -5.11383,-0.08033 -3.21876,-1.307897 -4.32426,-0.867912 -6.29418,2.505067 -1.95069,3.34003 -3.39977,3.91059 -7.41328,2.91889 -4.44124,-1.09739 -5.75356,-0.38633 -7.39649,4.00767 -0.64398,1.72233 -2.27549,3.70732 -3.44542,4.19192 -0.77115,0.31943 -1.74024,0.28766 -4.39234,-0.14396 -1.07063,-0.17424 -1.0954,-0.15919 -3.175,1.92909 -1.64605,1.65291 -2.42466,2.22702 -3.62724,2.67457 -1.72491,0.64194 -4.48268,0.74483 -6.00935,0.22421 z"
       id="path16" /><path
       style="fill:#000000"
       d="m 334.41652,72.769907 c -0.78237,-0.46716 -1.2993,-1.82029 -1.34522,-3.52133 -0.0406,-1.50544 -0.0993,-1.65132 -0.80567,-2.00399 -0.98464,-0.49159 -1.48712,-1.72906 -1.48712,-3.66236 0,-1.30406 0.64352,-4.49032 1.19955,-5.9393 0.10537,-0.27459 -0.15642,-0.56234 -0.82927,-0.91152 -0.54079,-0.28065 -1.21048,-0.92097 -1.48819,-1.42295 -0.72413,-1.30888 -0.53592,-4.542929 0.39547,-6.795568 0.58536,-1.415716 0.64304,-1.790787 0.40688,-2.645834 -0.60267,-2.182124 0.69902,-7.651858 2.71311,-11.400569 0.96886,-1.803277 1.01067,-1.967997 0.60299,-2.375673 -1.5346,-1.534599 -1.88383,-4.773247 -0.76197,-7.066248 1.52246,-3.111782 7.28643,-7.108469 7.28643,-5.052342 0,0.212168 -0.63532,0.74925 -1.41181,1.193515 -3.28999,1.882342 -5.22526,4.307823 -5.24279,6.570803 -0.0102,1.321826 0.54092,3.031396 1.08591,3.368215 0.17908,0.110678 0.8766,-0.349749 1.68064,-1.109378 1.99635,-1.886077 3.70043,-2.810764 5.22118,-2.833171 1.55749,-0.02295 2.37103,0.606826 2.37103,1.83545 0,2.611109 -4.76684,5.548785 -7.59522,4.68073 -1.2476,-0.3829 -1.37472,-0.268706 -2.68375,2.410726 -1.48505,3.039725 -1.92121,4.496142 -2.07525,6.929581 l -0.134,2.116666 0.72369,-1.058333 c 2.21409,-3.237914 4.6332,-4.556436 6.51349,-3.550135 0.99303,0.531456 0.0743,2.474639 -2.41059,5.098792 -1.69908,1.79428 -2.52769,2.287801 -3.84115,2.287801 -1.07279,0 -1.21731,0.238981 -1.88538,3.117672 -0.29322,1.263468 -0.31891,1.910944 -0.10703,2.69779 0.26978,1.0019 1.31845,2.12204 1.98663,2.12204 0.17947,0 0.78828,-0.78993 1.35291,-1.75539 1.09245,-1.86801 2.86135,-3.606376 3.53231,-3.47134 0.30371,0.06113 0.4029,0.427038 0.39473,1.456282 -0.0143,1.802128 -1.05948,3.349588 -2.95185,4.370388 -1.24345,0.67076 -1.40526,0.87069 -1.92721,2.38125 -0.71192,2.0603 -0.96628,5.36051 -0.48237,6.25833 0.54235,1.00625 0.89316,0.92372 1.36893,-0.32205 0.52446,-1.37329 1.7704,-2.65357 2.45589,-2.5236 0.33778,0.064 0.51557,0.36794 0.57443,0.98186 0.11968,1.2482 -0.38233,2.2872 -1.61483,3.34218 -1.05282,0.90116 -1.05872,0.91673 -0.90655,2.39111 0.19702,1.90893 0.71766,2.70732 1.83568,2.81498 0.66088,0.0636 0.86504,0.20818 0.86504,0.61246 0,0.43015 -0.19802,0.5413 -1.05834,0.59405 -0.58208,0.0357 -1.26669,-0.0595 -1.52136,-0.21159 z m 1.42879,-19.09136 c 0.32643,-0.45844 0.45658,-0.748897 0.28922,-0.64546 -0.16737,0.10344 -0.57138,0.56315 -0.89782,1.02159 -0.32644,0.45844 -0.45659,0.74889 -0.28922,0.64546 0.16736,-0.10344 0.57138,-0.56316 0.89782,-1.02159 z m -1.71599,-7.847839 c 1.54346,-1.11808 3.54871,-3.805892 3.14247,-4.212134 -0.27919,-0.279191 -1.97583,0.785191 -2.92329,1.833925 -0.49568,0.548657 -1.14694,1.479174 -1.44724,2.067814 -0.6736,1.320361 -0.29741,1.415443 1.22806,0.310395 z m 6.14175,-14.040258 c 1.19071,-0.607455 2.41369,-1.957693 2.41369,-2.664851 0,-1.380572 -2.74091,-0.47582 -5.15938,1.703067 -1.10423,0.994841 -1.25731,1.238969 -0.92604,1.476813 0.53855,0.386664 2.42217,0.12245 3.67173,-0.515029 z"
       id="path15" /><path
       style="fill:#000000"
       d="m 332.73113,80.602197 c -0.18043,-0.47022 0.0806,-0.93871 0.52298,-0.93871 0.18024,0 1.55245,-0.59986 3.04935,-1.33302 1.99205,-0.97568 3.04721,-1.33956 3.93611,-1.3574 0.99382,-0.0199 1.32962,-0.16123 1.84831,-0.77766 0.60091,-0.71415 0.71439,-0.74486 2.18437,-0.59122 l 1.55052,0.16207 0.40342,-0.96552 c 0.22189,-0.53104 0.58329,-1.03455 0.80313,-1.11891 0.21984,-0.0844 1.06016,0.20434 1.86737,0.64154 1.34749,0.72984 1.48782,0.75728 1.71373,0.33515 0.20534,-0.38367 0.41908,-1.29129 0.51925,-2.20493 0.043,-0.39187 1.56291,-0.18849 2.15116,0.28784 0.59238,0.47969 0.61028,0.47537 1.31937,-0.31825 0.61243,-0.68542 0.88342,-0.79481 1.8305,-0.73893 0.6114,0.0361 1.70641,0.30002 2.43334,0.58655 1.50545,0.59339 1.81178,0.50992 1.81386,-0.49428 0.003,-1.2052 0.5253,-2.67647 1.05104,-2.95784 1.12481,-0.60198 1.88789,-0.29951 5.00588,1.98424 1.2026,0.88084 1.67219,0.83171 2.64544,-0.27676 0.65626,-0.74743 0.82116,-1.1725 0.82116,-2.11667 0,-1.3381 0.6569,-1.68651 0.95329,-0.50561 0.34318,1.36732 -0.0441,3.26449 -0.87677,4.29554 -1.52187,1.88436 -3.13586,1.81644 -5.69554,-0.23968 l -1.65702,-1.33104 -0.17705,1.40409 c -0.14023,1.1121 -0.34744,1.55633 -0.99636,2.13614 -1.0444,0.93317 -1.74541,0.92142 -3.68005,-0.0617 -0.8591,-0.43656 -1.69108,-0.79375 -1.84884,-0.79375 -0.15777,0 -0.60084,0.53579 -0.9846,1.19063 -0.7896,1.34734 -1.64774,1.57936 -2.28601,0.61807 -0.37077,-0.55842 -0.39608,-0.54044 -1.02446,0.7276 -0.8073,1.6291 -1.45898,1.78086 -2.82215,0.65722 -0.54198,-0.44674 -1.06291,-0.81227 -1.15762,-0.81227 -0.0947,0 -0.32204,0.36174 -0.50517,0.80387 -0.18313,0.44212 -0.52767,0.90806 -0.76565,1.03542 -0.40954,0.21918 -2.67074,-0.0576 -3.21415,-0.39349 -0.13445,-0.0831 -0.44775,0.27522 -0.69622,0.79626 l -0.45176,0.94736 -1.50431,-0.1702 c -1.38327,-0.1565 -1.62919,-0.0981 -3.05641,0.72603 -0.85366,0.49291 -1.88513,1.04251 -2.29216,1.22132 -1.02419,0.44992 -2.5486,0.41694 -2.73128,-0.0591 z"
       id="path14" /><path
       style="fill:#000000"
       d="m 309.09845,85.371037 c -0.24392,-0.2939 -0.22774,-0.54391 0.0728,-1.1251 0.58064,-1.12284 1.20098,-1.57919 3.35305,-2.46663 1.07784,-0.44447 2.54811,-1.1857 3.26727,-1.64718 1.53711,-0.98637 2.69774,-1.07285 3.71017,-0.27647 0.72619,0.57121 1.58025,0.589 2.58038,0.0537 0.77208,-0.41321 1.01303,-1.11789 1.40643,-4.11323 0.3772,-2.87203 0.78147,-3.75999 1.57347,-3.45607 0.34169,0.13112 0.38553,0.52274 0.26322,2.35129 -0.30378,4.54142 -0.69711,5.72729 -2.29548,6.92064 -1.10039,0.82156 -3.04164,0.75003 -4.11363,-0.15157 -0.89109,-0.74945 -1.22738,-0.7426 -2.42513,0.0494 -0.3638,0.24058 -1.67349,0.91956 -2.91042,1.50885 -1.23693,0.58929 -2.60614,1.44134 -3.04271,1.89344 -0.90987,0.94225 -1.01137,0.97461 -1.43943,0.45883 z"
       id="path13" /><path
       style="fill:#e3edfa;fill-opacity:1"
       d="m 98.414919,69.626 c -3.42338,-1.58486 -6.33658,-8.13059 -6.67118,-14.98963 -0.16249,-3.33091 0.21145,-5.2921 1.52175,-7.98116 2.24172,-4.60053 6.780531,-7.00655 10.937661,-5.79804 l 1.51523,0.44049 0.97848,-0.76992 c 1.84892,-1.45482 3.21887,-1.99347 5.08867,-2.00082 1.39916,-0.006 1.9755,0.13101 3.02148,0.71562 l 1.29252,0.7224 0.6827,-0.63773 c 2.44392,-2.28295 6.79089,-2.13999 9.37247,0.30824 1.75163,1.66115 2.74424,5.08694 2.42993,8.38633 -0.18383,1.92966 -1.06981,5.84705 -1.4682,6.49164 -0.43891,0.71018 -0.46489,0.11335 -0.0753,-1.72914 0.44142,-2.08751 0.34446,-7.2504 -0.16759,-8.923 -0.46658,-1.52407 -1.86124,-3.17683 -3.27191,-3.87742 -2.04587,-1.01606 -4.53482,-0.72822 -5.78173,0.66865 -0.41136,0.46082 -0.37591,0.59152 0.59314,2.18709 1.77528,2.92307 2.19445,4.30749 2.21164,7.30441 0.0142,2.47741 -0.0418,2.76716 -0.85325,4.41549 -1.75253,3.55991 -4.5278,3.88681 -6.00108,0.70687 l -0.59522,-1.28471 -0.15443,1.91485 c -0.30549,3.78773 -1.68566,6.60024 -3.72283,7.58642 -1.42632,0.69047 -2.26684,0.6881 -3.82247,-0.0108 -1.56259,-0.70204 -2.82463,-2.15211 -3.71788,-4.27182 -0.63501,-1.5069 -0.69579,-1.95848 -0.6855,-5.09309 0.0103,-3.14933 0.0812,-3.64217 0.83918,-5.84021 0.45534,-1.32034 1.20196,-3.03504 1.65916,-3.81045 0.89341,-1.51523 0.81241,-1.80715 -0.52526,-1.89313 -4.240881,-0.27257 -7.604851,2.52067 -8.865751,7.3616 -1.26037,4.8389 0.59095,13.44417 3.6393,16.91603 0.47297,0.53869 1.49353,1.25963 2.267921,1.6021 1.02408,0.4529 1.3843,0.7476 1.32115,1.08086 -0.12363,0.65251 -1.688491,0.70583 -2.992831,0.10199 z M 109.1169,61.48642 c 1.72816,-1.45416 2.73575,-5.3545 2.1967,-8.50336 -0.39942,-2.3332 -2.30281,-6.16392 -3.87837,-7.80555 -0.66341,-0.69122 -1.29978,-1.25677 -1.41416,-1.25677 -0.37261,0 -1.85578,2.99507 -2.48943,5.02708 -0.50439,1.61748 -0.61864,2.57143 -0.61793,5.15938 7.5e-4,2.7505 0.0821,3.35143 0.60823,4.49462 0.68749,1.49371 1.41221,2.36369 2.5659,3.08021 1.09604,0.68073 2.06169,0.61837 3.02906,-0.19561 z m 8.70808,-6.86335 c 1.95584,-2.48644 1.63593,-7.28195 -0.72823,-10.91637 l -0.77857,-1.1969 -0.43526,1.0362 c -1.59061,3.78676 -1.58563,10.0058 0.009,11.76833 0.52472,0.57981 1.09257,0.3767 1.93262,-0.69126 z m -4.33294,-9.53665 c 0.24729,-0.85065 0.6768,-1.99195 0.95448,-2.53624 0.27767,-0.54428 0.50486,-1.11923 0.50486,-1.27767 0,-0.40978 -2.09465,-1.3078 -3.0666,-1.31471 -0.86979,-0.006 -3.80806,1.33552 -4.34709,1.98502 -0.26567,0.32011 -0.0491,0.67993 1.23647,2.05418 1.55348,1.66068 3.24565,4.65962 3.68928,6.53832 0.1868,0.79108 0.24493,0.57419 0.39883,-1.48812 0.0991,-1.32779 0.38248,-3.11014 0.62977,-3.96078 z"
       id="path12" /><path
       style="fill:#e0e9f8;fill-opacity:1"
       d="m 188.5898,75.13044 c -0.0887,-0.23112 0.4029,-2.22029 1.09242,-4.42037 1.26203,-4.02677 1.66888,-6.52547 1.34427,-8.2558 l -0.17579,-0.93706 -0.95366,0.64717 c -1.60599,1.08986 -3.78846,0.73354 -4.28824,-0.70011 -0.36784,-1.05519 0.0818,-2.44684 1.05522,-3.26592 0.92322,-0.77683 1.70118,-0.84745 3.06379,-0.27812 0.527,0.22019 1.02389,0.33464 1.10421,0.25432 0.0803,-0.0803 0.19494,-1.26442 0.25473,-2.63134 l 0.1087,-2.4853 -1.0713,0.53003 c -1.16423,0.57602 -1.61777,0.47753 -2.55133,-0.55404 -0.37217,-0.41124 -0.51621,-0.96745 -0.5262,-2.03182 -0.0115,-1.23027 0.0865,-1.54684 0.61086,-1.9718 0.84652,-0.68606 1.69376,-0.63629 2.63384,0.15474 l 0.78551,0.66097 0.41284,-1.03178 c 0.56098,-1.40202 0.80464,-3.44972 0.58487,-4.91521 l -0.18206,-1.21409 -0.71534,0.76577 c -1.86249,1.9938 -4.05609,1.09353 -4.05609,-1.66466 0,-1.52567 0.70387,-2.76236 1.95947,-3.44276 l 0.96605,-0.52349 0.81101,0.5996 0.81101,0.59961 0.30352,-0.73757 c 0.44133,-1.07243 0.59763,-5.817917 0.23587,-7.161376 l -0.30406,-1.12921 -0.71574,0.866093 c -1.50157,1.817003 -2.88441,2.419343 -4.18932,1.824787 -2.1824,-0.994369 -1.65967,-7.25921 0.6868,-8.231148 0.93411,-0.386921 1.96266,0.006 3.22437,1.231651 l 0.96675,0.93915 0.32489,-1.451768 c 0.81362,-3.635606 -0.28467,-8.30625 -2.70517,-11.504167 -0.70016,-0.925041 -1.27302,-1.79465 -1.27302,-1.932465 0,-1.105229 3.24877,2.043341 4.34933,4.215181 1.6921,3.339206 2.07347,7.659745 0.95507,10.820175 -0.56311,1.591275 -0.56969,1.711577 -0.15927,2.910417 1.0619,3.101852 1.02,7.20996 -0.1029,10.08799 -0.42758,1.09591 -0.43689,1.32178 -0.0938,2.27504 0.60074,1.66919 0.34348,5.9321 -0.47903,7.9375 -0.60935,1.48569 -0.6284,1.67234 -0.29705,2.91042 0.40157,1.50047 0.26034,4.30863 -0.29824,5.92992 -0.29287,0.85007 -0.29484,1.17419 -0.0112,1.84872 0.62713,1.49151 0.7261,3.78245 0.26229,6.07143 -0.64832,3.19958 -2.60565,8.61988 -3.15064,8.72484 -0.24583,0.0473 -0.51952,-0.10303 -0.60821,-0.33415 z m 0.44057,-14.31006 c 0.89867,-0.46472 1.00691,-1.0441 0.26884,-1.4391 -0.80739,-0.4321 -1.29433,-0.32545 -1.76018,0.38552 -0.82743,1.26282 -0.0185,1.83433 1.49134,1.05358 z m 0.93574,-9.14657 c 0.49446,-0.54637 0.49271,-0.56171 -0.12059,-1.05833 -1.03974,-0.84193 -1.51896,-0.51868 -1.22374,0.82544 0.20327,0.92549 0.64785,1.0025 1.34433,0.23289 z m 0.21823,-9.78464 c 0.78332,-0.93093 0.86653,-1.61244 0.26973,-2.20924 -0.84279,-0.84278 -2.22256,0.90672 -1.85864,2.35669 0.22342,0.89018 0.7575,0.84062 1.58891,-0.14745 z m -1.23396,-11.360989 c 0.82782,-0.651161 1.91894,-2.096502 1.91894,-2.541902 0,-0.567163 -1.75598,-2.216394 -2.35985,-2.216394 -1.06887,0 -1.74634,2.876919 -1.08629,4.612984 0.31105,0.818124 0.63292,0.84875 1.5272,0.145312 z"
       id="path11" /><path
       style="fill:#e6dfe2;fill-opacity:1"
       d="m 41.853424,129.22668 c -0.25042,-0.65259 0.1751,-1.00392 2.99574,-2.47345 3.50291,-1.82498 5.17138,-2.27742 7.85353,-2.12966 1.73806,0.0958 2.5164,0.29274 4.13703,1.04699 2.73226,1.27162 3.24886,1.37567 3.9622,0.79804 0.48942,-0.39631 0.62425,-0.86683 0.79957,-2.79027 0.24241,-2.6596 0.63742,-3.43237 1.98116,-3.87585 2.02628,-0.66873 4.39293,0.38954 7.52546,3.36507 3.46887,3.29502 5.44534,4.17946 7.84098,3.50872 1.43457,-0.40165 2.74965,-1.78615 2.74965,-2.89479 0,-0.42223 -0.36824,-1.69801 -0.8183,-2.83507 -1.09135,-2.75721 -1.3001,-5.40171 -0.52367,-6.63386 0.99329,-1.57628 1.95654,-1.96754 4.52517,-1.83805 1.80507,0.091 2.73795,0.30614 4.65756,1.07416 4.66372,1.86593 8.6107,4.53288 8.21903,5.55356 -0.31824,0.82931 -0.93681,0.77249 -2.11685,-0.19447 -1.44243,-1.18196 -5.29035,-3.10326 -7.68696,-3.83815 -1.78145,-0.54627 -4.51874,-0.73641 -5.09189,-0.3537 -1.14422,0.76401 -1.0877,2.33735 0.19874,5.53192 1.35773,3.37161 1.09744,5.5572 -0.8833,7.41671 -1.13429,1.06486 -2.85589,1.65369 -4.84516,1.65716 -2.65643,0.005 -3.99184,-0.70283 -7.41089,-3.92605 -2.73854,-2.58169 -4.61329,-3.73908 -5.50335,-3.39753 -0.24234,0.093 -0.4203,0.78261 -0.52537,2.03592 -0.28445,3.39293 -1.99662,5.2842 -4.48198,4.95085 -0.55396,-0.0743 -1.87273,-0.55151 -2.93061,-1.06045 -4.04124,-1.94424 -5.61343,-1.93083 -9.95104,0.0848 -3.35906,1.56096 -4.43694,1.84155 -4.67645,1.2174 z"
       id="path10" /><path
       style="fill:#000000"
       d="m 383.47671,95.984457 c -0.90763,-0.96613 -0.77107,-2.37193 0.39485,-4.0648 1.18304,-1.71772 1.27267,-2.81928 0.29762,-3.65798 -1.86429,-1.60359 -1.90542,-2.66743 -0.20966,-5.42319 0.67312,-1.09389 1.05833,-2.03753 1.05842,-2.59283 2.8e-4,-1.64661 -1.25987,-3.22801 -2.57226,-3.22801 -0.3773,0 -0.60259,-0.1591 -0.60259,-0.42555 0,-0.93742 3.01464,0.39354 3.89911,1.72145 0.97716,1.46708 0.8187,2.78876 -0.59182,4.93633 -0.65484,0.99701 -1.19062,2.12249 -1.19062,2.50106 0,0.41507 0.36044,1.08183 0.90799,1.67961 1.36841,1.49395 1.41065,2.17005 0.29054,4.65084 -0.92913,2.05783 -0.94406,2.1409 -0.52902,2.94352 0.75435,1.45874 -0.0525,2.13048 -1.15256,0.95955 z"
       id="path9" /><path
       style="fill:#000000"
       d="m 390.96006,94.833647 c -0.2438,-2.92675 -0.0208,-5.88297 0.52309,-6.93476 0.82208,-1.58971 2.67377,-2.21045 4.80986,-1.61238 0.98678,0.27628 1.82607,0.91799 4.36323,3.33605 1.72778,1.64668 3.46067,3.07409 3.85087,3.17203 0.58175,0.14601 0.84421,0.0272 1.45813,-0.65986 0.62843,-0.70334 0.74868,-1.07031 0.74868,-2.28479 0,-1.23488 -0.19454,-1.80608 -1.32775,-3.89843 -3.10208,-5.7277 -3.5351,-7.13092 -2.91265,-9.43869 1.2881,-4.77574 6.52079,-3.01844 11.94976,4.01311 2.27347,2.94459 3.93572,4.61818 4.80309,4.83587 0.95125,0.23876 1.96765,-0.4343 2.46944,-1.63528 0.33853,-0.81021 0.33758,-1.11037 -0.008,-2.45853 -0.21638,-0.84461 -0.99886,-2.74034 -1.73885,-4.21275 -1.76432,-3.51056 -2.07363,-5.02879 -1.49897,-7.35749 0.44561,-1.80574 1.35579,-3.29441 2.33443,-3.81816 0.30885,-0.1653 1.23227,-0.24831 2.08004,-0.18698 2.55747,0.18499 4.10809,1.7875 5.81026,6.00469 1.53114,3.79346 2.23667,5.10314 3.2349,6.00498 1.29619,1.17102 2.15142,1.18383 2.87065,0.043 0.4358,-0.69127 0.51987,-1.17132 0.42872,-2.44799 -0.0942,-1.31924 -0.41804,-2.18212 -1.91287,-5.09678 -1.68311,-3.28178 -1.80642,-3.64106 -1.90673,-5.55566 -0.0918,-1.75308 -0.0191,-2.2179 0.50698,-3.23759 1.25935,-2.44116 3.91774,-2.74917 7.60093,-0.88067 4.22063,2.14114 5.84559,4.81161 5.84559,9.60672 0,3.19898 -0.18029,3.97395 -0.9245,3.97395 -0.70513,0 -0.92009,-0.90019 -0.92467,-3.87222 -0.006,-3.78074 -1.44329,-6.10413 -4.91922,-7.95106 -2.95188,-1.56847 -4.48735,-1.39258 -5.14132,0.58896 -0.502,1.52108 -0.0926,3.09341 1.71033,6.56915 1.99969,3.85501 2.42957,5.41061 2.02128,7.3144 -0.79502,3.70707 -3.09618,4.99683 -5.76083,3.22883 -1.80276,-1.19613 -2.92933,-2.99317 -4.30604,-6.86877 -1.36759,-3.84991 -2.98866,-5.90307 -4.64149,-5.87867 -1.38826,0.0205 -2.51354,1.99324 -2.51354,4.40652 0,1.33631 0.21843,1.97753 1.78295,5.23401 1.68475,3.50674 1.78251,3.81315 1.77481,5.56323 -0.006,1.45706 -0.13724,2.06188 -0.61342,2.83573 -1.13864,1.85041 -3.01402,2.49957 -4.87107,1.68611 -1.17283,-0.51374 -2.27629,-1.63512 -4.40499,-4.47654 -3.01196,-4.02041 -6.52681,-7.05676 -8.16882,-7.05676 -1.2663,0 -2.01566,2.41367 -1.36617,4.40039 0.18404,0.56296 1.14255,2.43183 2.13003,4.15304 2.54629,4.43825 2.83827,6.31604 1.37874,8.86697 -0.89215,1.55928 -2.07839,2.06628 -3.75969,1.60688 -1.01917,-0.27847 -1.6979,-0.82582 -4.25529,-3.43155 -3.35072,-3.41407 -4.38923,-4.02407 -5.74476,-3.37438 -1.15401,0.5531 -1.47299,1.58933 -1.69481,5.50573 -0.11127,1.96453 -0.20929,3.66117 -0.21782,3.77031 -0.009,0.10914 -0.18343,0.19844 -0.38865,0.19844 -0.2777,0 -0.42195,-0.58622 -0.56407,-2.29234 z"
       id="path8" /><path
       style="fill:#000000"
       d="m 422.63219,99.357517 c -3.63385,-1.838 -5.2453,-7.32392 -2.88994,-9.8383 0.30672,-0.32742 0.7155,-0.59531 0.90842,-0.59531 0.47128,0 0.44564,0.65021 -0.0416,1.05457 -1.20097,0.99671 -0.9712,3.63637 0.51934,5.96645 1.73303,2.70916 4.39414,3.32143 6.93419,1.59542 l 0.86683,-0.58903 -0.79685,-0.76342 c -1.07343,-1.02841 -2.3689,-3.68692 -2.36768,-4.85886 10e-4,-1.38318 0.86447,-2.61415 2.26808,-3.23504 2.0191,-0.89314 3.83085,-0.13573 4.88521,2.04228 0.74137,1.53147 0.57685,3.06768 -0.5406,5.04769 l -0.79182,1.40303 0.65627,0.16471 c 1.12739,0.28296 3.17993,-0.40081 4.84912,-1.61538 2.01504,-1.46624 2.13989,-1.67929 1.3487,-2.3014 -2.53561,-1.99376 -3.85226,-4.02131 -3.5208,-5.42179 0.58604,-2.47609 3.7429,-2.88296 5.63636,-0.72642 1.12221,1.27813 1.50822,2.72071 1.14856,4.29242 -0.15748,0.6882 -0.24037,1.29725 -0.18418,1.35343 0.2846,0.28461 1.83729,-0.70279 2.61068,-1.66021 1.22452,-1.51589 1.47718,-2.0835 1.47718,-3.31856 0,-1.22145 0.0306,-1.24126 0.96743,-0.6274 0.64946,0.42554 0.70276,0.42297 1.04902,-0.0506 0.20488,-0.2802 0.36658,-1.14364 0.36885,-1.96968 0.003,-1.04721 0.0779,-1.35649 0.26053,-1.07391 0.14107,0.21828 0.25831,0.96242 0.26054,1.65365 0.005,1.43221 -0.73585,2.46009 -1.60791,2.23204 -0.42429,-0.11095 -0.50471,0.013 -0.50471,0.77779 0,1.20814 -0.53717,2.43422 -1.59368,3.63751 -1.06547,1.2135 -2.06778,1.75318 -3.2561,1.75318 -0.75106,0 -1.07124,0.20006 -1.85928,1.16175 -1.21894,1.48757 -3.07551,2.71347 -4.92741,3.2536 -1.1962,0.34889 -1.71516,0.37276 -2.86855,0.13193 -1.38796,-0.2898 -1.4292,-0.28003 -2.87725,0.68142 -1.25413,0.83269 -1.72564,0.98869 -3.22207,1.066 -1.48827,0.0769 -1.96614,-0.0173 -3.16489,-0.62359 z m 8.52936,-5.43172 c 0.90541,-1.7128 0.81679,-3.04486 -0.27523,-4.13688 -1.29515,-1.29515 -3.66656,-0.2226 -3.61392,1.63453 0.0392,1.38372 2.06815,4.27694 2.8346,4.04209 0.15792,-0.0484 0.63247,-0.74127 1.05455,-1.53974 z m 9.39891,-4.47685 c 0.0265,-1.22585 -0.76247,-2.65463 -1.80349,-3.26591 -0.70696,-0.41512 -0.95688,-0.44255 -1.60102,-0.17574 -1.98515,0.82228 -1.41943,3.12955 1.23304,5.02894 l 1.51902,1.08775 0.31616,-0.87243 c 0.17389,-0.47985 0.32522,-1.29102 0.33629,-1.80261 z"
       id="path7" /><path
       style="fill:#e9edfb;fill-opacity:1"
       d="m 185.82489,135.05734 c -0.26506,-0.26507 -0.21347,-1.09136 0.144,-2.30646 0.40021,-1.36038 2.85956,-3.90793 4.2623,-4.41517 0.87899,-0.31784 0.98908,-0.45347 0.91988,-1.13326 -0.0432,-0.42472 -0.32677,-0.93598 -0.63009,-1.13614 -0.48604,-0.32074 -0.6566,-0.2929 -1.4373,0.23456 -0.4872,0.32916 -1.54872,1.57555 -2.35893,2.76974 -1.10856,1.63393 -1.6225,2.17413 -2.07674,2.18282 -0.96959,0.0186 -0.95909,-0.63629 0.0388,-2.42075 1.13373,-2.02731 1.75541,-4.2903 1.75541,-6.38999 0,-3.13646 -0.9691,-4.67147 -2.94923,-4.67147 h -1.02578 l 0.14924,1.12448 c 0.0821,0.61847 0.20002,1.48167 0.26209,1.91823 0.35125,2.47059 -1.08547,6.56836 -3.05027,8.69991 -1.144,1.2411 -3.3873,2.54488 -4.37873,2.54488 -2.03698,0 -3.07793,-1.24529 -3.06443,-3.66599 0.0206,-3.70067 3.24193,-8.71809 7.14653,-11.13126 0.52656,-0.32543 0.1331,-1.24383 -1.11123,-2.59377 -2.00737,-2.17773 -4.68059,-3.01842 -7.39046,-2.32419 -3.28486,0.84155 -5.64351,3.23544 -9.51881,9.66105 -3.2225,5.3432 -4.46146,8.9535 -3.79413,11.05604 0.25227,0.79483 -0.84375,1.39346 -1.33107,0.72701 -0.54582,-0.74645 -0.69765,-2.40015 -0.3702,-4.03204 0.40213,-2.00407 3.56504,-8.41181 5.90345,-11.95983 2.28899,-3.47302 4.33717,-5.51352 6.7037,-6.67856 1.64055,-0.80763 2.01344,-0.88646 4.18772,-0.88524 1.91795,0.001 2.64255,0.11901 3.68865,0.60037 1.83508,0.8444 3.30989,2.1397 4.38671,3.85277 0.9239,1.46981 0.92916,1.47325 2.27597,1.48593 1.60129,0.0151 2.8453,0.73859 3.66285,2.13028 0.43945,0.74807 0.54347,1.3809 0.54347,3.30639 0,1.30969 -0.091,2.88927 -0.20228,3.51017 l -0.20227,1.12892 1.10187,-0.79819 c 0.62822,-0.45508 1.43475,-0.79819 1.87627,-0.79819 1.06562,0 2.3212,1.27705 2.3212,2.3609 0,0.75827 0.0653,0.8141 0.9522,0.8141 1.47016,0 2.58171,0.67546 5.25863,3.19557 3.08958,2.90857 4.17204,3.49449 6.23624,3.37559 1.72554,-0.0994 2.27048,0.1576 1.19844,0.56519 -1.12487,0.42767 -2.99201,0.31921 -4.06491,-0.23613 -0.5399,-0.27946 -1.81508,-1.35318 -2.83373,-2.38605 -2.41117,-2.44484 -3.9697,-3.45705 -5.31483,-3.45178 -1.31174,0.005 -1.47458,0.12484 -2.21855,1.63097 -1.45472,2.94497 -4.66627,5.52401 -5.65169,4.53859 z m 3.55675,-3.85851 0.59416,-0.8599 -0.70844,0.64144 c -0.38964,0.35278 -0.70844,0.73974 -0.70844,0.85989 0,0.40029 0.22311,0.22634 0.82272,-0.64143 z m -12.29585,-2.11667 c 2.3552,-1.574 3.80022,-4.52678 3.80022,-7.76544 0,-1.76919 -0.16717,-2.48716 -0.5791,-2.48716 -0.53947,0 -3.66651,3.50783 -4.57464,5.13173 -1.17237,2.09639 -1.69849,4.32271 -1.25273,5.30105 0.41181,0.90383 1.05029,0.85969 2.60625,-0.18018 z"
       id="path6" /><path
       style="fill:#000000"
       d="m 426.55596,115.15078 c -2.79732,-0.91733 -4.69322,-2.97536 -7.2987,-7.92289 -0.7142,-1.3562 -1.63668,-2.87673 -2.04996,-3.37896 -0.7866,-0.9559 -2.15258,-1.81282 -2.5239,-1.58332 -0.11939,0.0738 -0.28507,1.18367 -0.36817,2.46642 -0.46445,7.16872 -4.92811,10.54212 -11.80447,8.92119 -2.91578,-0.68732 -7.38891,-3.30804 -7.10711,-4.16392 0.19611,-0.59562 1.13721,-0.48827 2.98416,0.3404 8.34852,3.74573 13.33057,1.85281 13.79655,-5.24197 0.24446,-3.72196 0.88239,-4.53347 3.30803,-4.20813 1.98024,0.26561 3.94949,2.37526 6.18944,6.63072 1.37269,2.60784 3.32178,4.90139 4.73529,5.57214 1.16947,0.55495 3.19609,0.52128 4.50845,-0.0749 1.53493,-0.69731 2.58313,-2.04065 4.36335,-5.59198 2.29511,-4.57844 3.54964,-5.82083 5.87776,-5.82083 1.98355,0 3.72611,1.19651 6.71687,4.6121 1.14628,1.3091 1.64636,2.08042 1.53572,2.36872 -0.0902,0.23513 -0.27786,0.42751 -0.41696,0.42751 -0.13911,0 -1.22663,-1.02865 -2.41671,-2.28589 -2.36901,-2.5027 -3.77717,-3.53494 -4.82227,-3.53494 -1.777,0 -3.0676,1.46433 -4.92649,5.58964 -1.73968,3.86074 -2.92639,5.25658 -5.39886,6.35028 -1.36563,0.60408 -3.83616,0.87158 -4.88202,0.52862 z"
       id="path5" /><path
       style="fill:#000000"
       d="m 399.89885,122.96762 c -1.42473,-0.39122 -3.6445,-2.00889 -4.76045,-3.46921 -0.95362,-1.24789 -1.05633,-1.67615 -0.45713,-1.90608 0.26326,-0.10102 0.78892,0.28416 1.51771,1.11211 1.56748,1.78074 3.20421,2.76322 4.60332,2.76322 0.93981,0 1.36621,-0.1936 2.54981,-1.15765 2.55537,-2.08138 3.21173,-2.18615 6.00765,-0.95902 0.99466,0.43656 1.99711,0.79375 2.22765,0.79375 0.23055,0 1.46075,-0.36287 2.73378,-0.80638 3.16055,-1.10109 5.00115,-1.10209 7.17664,-0.004 0.88284,0.44566 1.76762,0.81029 1.96617,0.81029 0.19855,0 0.88655,-0.40931 1.5289,-0.90958 1.72416,-1.34281 3.16463,-1.65094 5.75288,-1.23062 2.19726,0.35683 2.58646,0.30727 4.54314,-0.57851 0.65485,-0.29644 1.72641,-0.58969 2.38125,-0.65165 1.01312,-0.0959 1.387,0.0188 2.50779,0.76895 1.09069,0.73003 1.63617,0.90437 3.1725,1.01391 1.50155,0.10707 1.87231,0.22154 1.94435,0.60031 0.0629,0.3307 -0.20579,0.59118 -0.91574,0.88782 -1.49477,0.62455 -3.37301,0.37569 -4.98911,-0.66105 -1.4526,-0.93187 -1.77123,-0.92829 -3.82728,0.0429 -1.29754,0.61294 -2.77003,0.69634 -5.9623,0.33772 -1.82606,-0.20515 -1.86695,-0.19603 -2.91042,0.64883 -2.19938,1.78076 -3.50114,1.91388 -5.98991,0.61254 -1.98429,-1.03756 -2.9568,-1.05747 -5.65679,-0.11585 -3.05358,1.06494 -4.03473,1.05087 -6.30044,-0.0904 -2.15896,-1.08746 -2.47386,-1.02451 -4.60123,0.91979 -0.79148,0.72337 -1.65785,1.31522 -1.92527,1.31522 -0.26741,0 -0.64477,0.0499 -0.83857,0.11089 -0.1938,0.061 -0.85931,-0.0283 -1.4789,-0.19843 z"
       id="path4" /><path
       style="fill:#fce7eb;stroke-width:1.64213;fill-opacity:1"
       d="m 153.22661,276.53865 c -6.97169,-2.00988 -10.69998,-7.91438 -9.38798,-14.86773 1.09658,-5.81165 5.75562,-13.2264 12.4342,-19.78869 4.03367,-3.96345 6.59387,-5.96137 7.66043,-5.97802 1.9098,-0.0299 1.0267,1.39345 -3.93635,6.34417 -7.95725,7.93744 -12.29854,15.05473 -12.62501,20.69799 -0.25252,4.36526 1.11268,7.16248 4.42085,9.05795 1.65054,0.9457 2.29974,1.0359 7.4562,1.0359 4.18668,0 6.29472,-0.19989 8.14652,-0.77247 1.37404,-0.42487 2.49826,-0.92326 2.49826,-1.10756 0,-0.18428 -0.71408,-0.59327 -1.58686,-0.90887 -2.20396,-0.79696 -5.22912,-3.70995 -6.56106,-6.31775 -1.60221,-3.13702 -1.83626,-7.80455 -0.56085,-11.1843 2.43034,-6.44028 9.09099,-10.55013 16.96391,-10.46733 10.42458,0.10969 15.59068,6.01492 12.56904,14.36749 -0.4949,1.36808 -1.19808,3.46498 -1.56258,4.65981 -0.36452,1.19482 -1.06875,2.9017 -1.56496,3.79308 -0.87131,1.56517 -0.87533,1.65033 -0.1179,2.48729 0.43136,0.47664 1.62185,1.27209 2.64552,1.76764 1.71813,0.83174 1.97261,0.85107 3.30982,0.25129 2.09997,-0.94189 3.10903,-1.85615 2.72839,-2.47203 -0.2055,-0.33251 -0.14681,-0.41866 0.15698,-0.2308 0.28995,0.17919 0.83227,-0.38107 1.34865,-1.39327 l 0.8637,-1.69299 -1.3363,-1.25511 c -2.45594,-2.3067 -3.65224,-6.32745 -2.51489,-8.4526 0.59778,-1.11697 2.13335,-1.0626 3.91592,0.1386 2.07364,1.39742 3.08729,3.37448 3.16866,6.18028 0.0695,2.39799 0.52382,3.04875 1.78927,2.56315 0.3487,-0.13383 0.79479,-1.05636 0.99132,-2.05013 0.2742,-1.38652 0.55629,-1.80687 1.21255,-1.80687 0.70889,0 0.87752,0.34461 0.98562,2.01424 0.18093,2.79489 -1.17258,4.40423 -3.70414,4.40423 -1.6449,0 -1.83577,0.12644 -2.5368,1.68108 -2.87566,6.37707 -9.90299,7.97373 -14.77422,3.35683 l -1.33314,-1.26354 -2.35995,0.92319 c -1.29798,0.50775 -4.21738,1.76324 -6.48753,2.78997 -2.27016,1.02672 -5.59393,2.29102 -7.38617,2.80954 -4.18215,1.20997 -11.88452,1.56403 -14.9292,0.68628 z m 25.79476,-10.13955 1.85323,-1.64458 -0.7589,-1.46753 c -1.21631,-2.35211 -2.30642,-5.84623 -2.62872,-8.42594 -0.39067,-3.12677 0.63322,-6.33653 2.5306,-7.93306 l 1.37291,-1.15522 -4.11908,0.19819 c -3.16606,0.15239 -4.62169,0.43937 -6.29148,1.24064 -6.22398,2.98671 -8.77767,9.69423 -5.83802,15.33407 1.79443,3.44271 5.2802,5.3848 9.80109,5.46068 1.98408,0.0333 2.42592,-0.1409 4.07837,-1.60725 z m 6.23245,-7.04391 c 2.74456,-4.25986 3.30523,-8.74757 1.33861,-10.71419 -0.90425,-0.90426 -1.37645,-1.06277 -2.49825,-0.83869 -4.05342,0.80969 -4.86474,5.60194 -2.05725,12.15155 0.4732,1.10391 1.01394,2.00539 1.20165,2.0033 0.18771,-0.002 1.09458,-1.17297 2.01524,-2.60197 z m 13.0212,-1.61589 c -0.43548,-0.87808 -1.03615,-1.67232 -1.33485,-1.765 -0.90484,-0.28071 -0.61213,1.23262 0.64634,3.34161 1.03471,1.73402 1.20836,1.86497 1.33485,1.00661 0.08,-0.54269 -0.21088,-1.70514 -0.64634,-2.58322 z"
       id="path3" /><path
       style="fill:#eae5ff;fill-opacity:1"
       d="m 80.653057,224.30913 c -0.3638,-0.14411 -1.42982,-0.76164 -2.36892,-1.37229 -2.38104,-1.54826 -3.48683,-1.53389 -5.81607,0.0756 -1.47341,1.0181 -1.92174,1.19049 -3.3291,1.28011 -1.96372,0.12504 -2.87273,-0.27742 -5.50728,-2.43836 -2.4074,-1.97461 -3.26424,-2.0317 -5.97302,-0.39795 -2.56385,1.54633 -3.5363,1.45617 -6.24206,-0.57868 -0.72761,-0.5472 -1.63127,-1.07166 -2.00814,-1.16547 -1.12526,-0.28011 -6.50949,0.87388 -9.3307,1.99983 -2.10849,0.8415 -2.94076,1.04069 -4.34824,1.04069 -2.22593,0 -4.02438,-0.7791 -4.02438,-1.74339 0,-0.74777 0.23789,-0.7757 2.83936,-0.33334 l 1.79085,0.30452 2.64583,-1.11151 c 3.03271,-1.27403 9.01482,-2.58737 10.50869,-2.30711 0.86667,0.16258 2.44117,1.08129 3.95235,2.30616 0.99938,0.81002 1.86103,0.71096 3.70255,-0.42569 2.76882,-1.70901 4.561,-1.55705 7.45409,0.63204 3.83047,2.89838 4.26682,2.94018 7.32295,0.70156 1.37538,-1.00748 1.55796,-1.06595 3.32845,-1.06595 1.78319,0 1.97401,0.0626 3.96875,1.30097 3.17549,1.97146 5.43912,1.93702 8.70227,-0.13241 0.69275,-0.43933 1.33509,-0.72218 1.42743,-0.62856 0.0923,0.0936 -0.5664,0.86138 -1.46386,1.70613 -2.3715,2.23224 -5.20741,3.15499 -7.2318,2.35311 z"
       id="path2" /></g></svg>
