<?xml version="1.0" encoding="UTF-8" standalone="no"?>
<!-- Created with Inkscape (http://www.inkscape.org/) -->

<svg
   width="50mm"
   height="50mm"
   viewBox="0 0 50 50"
   version="1.1"
   id="svg1"
   xml:space="preserve"
   inkscape:version="1.3.2 (091e20e, 2023-11-25)"
   sodipodi:docname="fashion.svg"
   xmlns:inkscape="http://www.inkscape.org/namespaces/inkscape"
   xmlns:sodipodi="http://sodipodi.sourceforge.net/DTD/sodipodi-0.dtd"
   xmlns="http://www.w3.org/2000/svg"
   xmlns:svg="http://www.w3.org/2000/svg"><sodipodi:namedview
     id="namedview1"
     pagecolor="#ffffff"
     bordercolor="#00a6f4"
     borderopacity="0.25"
     inkscape:showpageshadow="2"
     inkscape:pageopacity="0.0"
     inkscape:pagecheckerboard="0"
     inkscape:deskcolor="#d1d1d1"
     inkscape:document-units="mm"
     inkscape:zoom="0.63904924"
     inkscape:cx="50.856801"
     inkscape:cy="269.93225"
     inkscape:window-width="1656"
     inkscape:window-height="828"
     inkscape:window-x="0"
     inkscape:window-y="25"
     inkscape:window-maximized="0"
     inkscape:current-layer="layer1" /><defs
     id="defs1" /><g
     inkscape:label="Layer 1"
     inkscape:groupmode="layer"
     id="layer1"><path
       style="fill:#00a6f4;stroke-width:0.202058"
       d="m 27.040256,47.737743 c -0.139611,-0.07064 -0.214896,-0.251809 -0.104634,-0.251809 0.03524,0 0.211414,-0.06267 0.391514,-0.139262 0.180098,-0.0766 0.419325,-0.177225 0.531614,-0.223628 0.241764,-0.0999 0.357178,-0.294731 0.357178,-0.602948 0,-0.122482 0.03489,-0.334172 0.07753,-0.470439 0.04264,-0.136259 0.105529,-0.356009 0.139746,-0.488323 0.06846,-0.26475 0.08735,-0.31908 0.260049,-0.748459 0.110732,-0.275292 0.171045,-0.457817 0.35666,-1.079264 0.08984,-0.300803 0.10659,-2.318482 0.02087,-2.513477 -0.05537,-0.125921 -0.14577,-0.728874 -0.194759,-1.298942 -0.01516,-0.176427 -0.04959,-0.343623 -0.07652,-0.371561 -0.02693,-0.02791 -0.04895,-0.147414 -0.04895,-0.265517 0,-0.118097 -0.03315,-0.311764 -0.07365,-0.430356 -0.109122,-0.319473 -0.193648,-0.704218 -0.193648,-0.88151 0,-0.08606 -0.02406,-0.171328 -0.05345,-0.189502 -0.02941,-0.01818 -0.05345,-0.09455 -0.05345,-0.169728 0,-0.07518 -0.03866,-0.260206 -0.0859,-0.411166 -0.156827,-0.50106 -0.181396,-0.601685 -0.181396,-0.742911 0,-0.07703 -0.02406,-0.15493 -0.05345,-0.173105 -0.02941,-0.01819 -0.05345,-0.09455 -0.05345,-0.169726 0,-0.07518 -0.03866,-0.260207 -0.0859,-0.411174 -0.156826,-0.501054 -0.181396,-0.601684 -0.181396,-0.742905 0,-0.07703 -0.02406,-0.154935 -0.05345,-0.173104 -0.02941,-0.01818 -0.05345,-0.07773 -0.05345,-0.132351 0,-0.09495 -0.188638,-0.478221 -0.79504,-1.615327 -0.277765,-0.520854 -0.594191,-1.321678 -0.594684,-1.505036 -2.22e-4,-0.08344 -0.178059,-0.654352 -0.319021,-1.024173 -0.132632,-0.347968 -0.287162,-0.82231 -0.309355,-0.949591 -0.01417,-0.08121 -0.04704,-0.160827 -0.07304,-0.176906 -0.02602,-0.01607 -0.04729,-0.09215 -0.04729,-0.169074 0,-0.279088 -0.405094,-1.343696 -0.480487,-1.26275 -0.02338,0.02513 -0.103368,0.226081 -0.177732,0.446603 -0.207628,0.615677 -0.501073,1.295819 -1.180704,2.736603 -0.566843,1.201677 -0.619527,1.339097 -0.588284,1.534479 0.04761,0.297739 -0.0081,0.478897 -0.158616,0.516697 -0.106808,0.02682 -0.133784,0.08328 -0.185499,0.388406 -0.125525,0.740615 -0.149254,0.964944 -0.162382,1.53518 -0.02235,0.970998 -0.261351,2.125553 -0.618694,2.988797 -0.210779,0.509187 -0.575491,1.16499 -1.309863,2.355315 -0.593395,0.96182 -0.689336,1.129643 -0.978014,1.710754 -0.419029,0.843524 -0.442149,1.113421 -0.143339,1.673379 0.198657,0.372275 0.197588,0.59493 -0.0047,0.993976 -0.08787,0.173292 -0.182494,0.456151 -0.210262,0.628578 -0.0611,0.379416 -0.111972,0.480699 -0.168686,0.335877 -0.02227,-0.05685 -0.04218,-0.177883 -0.04424,-0.268943 -0.002,-0.09107 -0.05136,-0.220462 -0.109556,-0.287559 -0.100977,-0.116434 -0.111934,-0.117956 -0.240675,-0.0336 -0.239736,0.157081 -0.400268,0.477605 -0.564094,1.126284 -0.199152,0.788553 -0.318548,1.012502 -0.579095,1.08619 -0.260861,0.07378 -1.409324,0.0055 -1.525118,-0.09038 -0.129647,-0.1076 -0.103496,-0.213066 0.06106,-0.246201 0.08085,-0.01625 0.220899,-0.0528 0.311197,-0.08121 0.0903,-0.02839 0.200071,-0.0516 0.243939,-0.0516 0.141466,0 0.360568,-0.287608 0.448562,-0.58881 0.04713,-0.161315 0.1443,-0.479103 0.21594,-0.706193 0.07163,-0.227097 0.130255,-0.472263 0.130255,-0.544823 0,-0.07256 0.02406,-0.14679 0.05345,-0.164966 0.02941,-0.01818 0.05345,-0.08053 0.05345,-0.138586 0,-0.05807 0.06014,-0.224232 0.133653,-0.369295 0.07352,-0.145063 0.133652,-0.296561 0.133652,-0.336657 0,-0.04012 0.06005,-0.191261 0.13343,-0.335913 0.07339,-0.144646 0.13353,-0.293395 0.133652,-0.330548 1.23e-4,-0.03715 0.02291,-0.109326 0.05063,-0.160386 0.07602,-0.14003 0.431094,-1.100328 0.430909,-1.165412 -8.8e-5,-0.03123 0.05557,-0.1756 0.123671,-0.320767 0.06811,-0.145172 0.155052,-0.372201 0.193208,-0.504521 0.03815,-0.132315 0.08899,-0.288689 0.112957,-0.347496 0.02397,-0.05879 0.108329,-0.311413 0.187456,-0.561343 0.07913,-0.249928 0.165034,-0.496196 0.190897,-0.547251 0.02586,-0.05105 0.04702,-0.136985 0.04702,-0.190952 0,-0.09167 0.114874,-0.489309 0.211448,-0.731975 0.04957,-0.124553 0.266736,-0.840871 0.429502,-1.41672 0.06233,-0.220528 0.148109,-0.512443 0.190612,-0.648709 0.0425,-0.13626 0.07727,-0.309262 0.07727,-0.384437 0,-0.07518 0.02129,-0.149843 0.04729,-0.165921 0.026,-0.01607 0.06014,-0.09568 0.07583,-0.176904 0.06724,-0.348065 0.152876,-0.64297 0.244701,-0.842665 0.174209,-0.37886 0.224863,-0.59989 0.256754,-1.120357 0.03617,-0.590326 0.07133,-0.562624 -0.544405,-0.428986 -0.205814,0.04465 -0.554638,0.119375 -0.775165,0.166012 -0.220528,0.04664 -0.438938,0.118352 -0.48536,0.159358 -0.047,0.04151 -0.200998,0.07539 -0.347496,0.07644 -0.144704,0.0012 -0.408247,0.03305 -0.585654,0.07115 -0.253931,0.05455 -0.390421,0.05595 -0.641533,0.0066 -0.175504,-0.03444 -0.559619,-0.105912 -0.853655,-0.1588 -0.579083,-0.104147 -0.721712,-0.18259 -0.721748,-0.39693 -2.3e-5,-0.134623 -0.02099,-0.143276 -0.708359,-0.292315 -1.335907,-0.289661 -1.383878,-0.305159 -1.777558,-0.57441 -1.14507,-0.783157 -1.123956,-0.765328 -1.104973,-0.933133 0.01593,-0.140845 0.26689,-0.700714 0.537465,-1.199042 0.179219,-0.330071 1.131736,-2.324077 1.130267,-2.366099 -7.86e-4,-0.0223 0.299301,-0.644439 0.666846,-1.382522 0.367546,-0.738089 0.668264,-1.368335 0.668264,-1.400551 0,-0.09283 0.641118,-1.359645 0.722121,-1.42687 0.05604,-0.04653 0.238826,-0.0049 0.784783,0.179746 0.391452,0.132205 0.807961,0.256876 0.925575,0.27705 0.117611,0.02018 0.269904,0.07189 0.338421,0.114926 0.231483,0.145371 0.713142,0.242407 0.917914,0.184928 0.471067,-0.132224 2.100992,-0.218631 2.165175,-0.114785 0.01818,0.02943 0.151355,0.05347 0.295959,0.05347 0.340586,0 0.413775,0.106884 0.502206,0.733484 0.04687,0.33209 0.07854,0.438116 0.108265,0.362469 0.02311,-0.05879 0.08586,-0.203151 0.139456,-0.320766 0.05358,-0.117611 0.157102,-0.382249 0.230029,-0.588071 0.262671,-0.741353 0.334704,-0.917339 0.601783,-1.470185 0.456038,-0.943978 0.519667,-1.123354 0.541826,-1.527434 0.02037,-0.371338 -0.0027,-0.479164 -0.309109,-1.44345 -0.02869,-0.0903 -0.05216,-0.428308 -0.05216,-0.751128 0,-0.322821 -0.02202,-0.609805 -0.04893,-0.637737 -0.02691,-0.02791 -0.05698,-0.110413 -0.06683,-0.183304 -0.01607,-0.119017 -0.124028,-0.03365 -1.060383,0.838327 -1.458788,1.358535 -1.703376,1.670957 -1.898829,2.425481 -0.04897,0.189025 -0.126381,0.427878 -0.172044,0.530793 -0.04565,0.10292 -0.07784,0.241143 -0.07149,0.307177 0.0091,0.09423 -0.0086,0.112369 -0.08175,0.08428 -0.07276,-0.02791 -0.08543,-0.01534 -0.0576,0.05716 0.02856,0.07444 0.01443,0.08622 -0.07091,0.05914 -0.07665,-0.02434 -0.10659,-0.0095 -0.10659,0.05311 0,0.04779 -0.01995,0.07461 -0.04434,0.05958 -0.02438,-0.01505 -0.162715,0.0098 -0.307403,0.05541 -0.513445,0.16166 -0.59796,0.171673 -0.721112,0.0854 -0.103522,-0.0725 -0.112267,-0.111704 -0.07909,-0.354571 0.02051,-0.150181 0.03861,-0.309142 0.04021,-0.353248 0.0017,-0.04411 0.04484,-0.128309 0.09605,-0.187116 0.05123,-0.05879 0.193801,-0.308712 0.316842,-0.555349 0.322548,-0.646558 0.612142,-1.049701 0.850124,-1.183453 0.1132,-0.06362 0.249596,-0.1916 0.30309,-0.284393 0.05349,-0.09278 0.195672,-0.281873 0.315951,-0.420194 0.315439,-0.362745 0.512426,-0.611454 0.683985,-0.863564 0.254105,-0.373423 0.417568,-0.589577 0.553767,-0.732283 0.0717,-0.07511 0.130352,-0.160834 0.130352,-0.190476 0,-0.02966 0.0749,-0.124553 0.166442,-0.210921 0.09154,-0.08636 0.22746,-0.253247 0.302033,-0.37086 0.136238,-0.214874 0.448617,-0.580605 1.068531,-1.251035 0.240382,-0.259971 0.334132,-0.402393 0.334132,-0.50761 0,-0.08044 0.0271,-0.196904 0.06024,-0.258811 0.04002,-0.07476 0.06015,-0.553788 0.05999,-1.426567 -2.21e-4,-1.173166 0.01061,-1.338185 0.100696,-1.5395 0.102039,-0.227919 0.655465,-0.817005 0.767552,-0.817005 0.03341,0 0.131405,-0.07386 0.217766,-0.164132 0.08636,-0.09026 0.241222,-0.214088 0.344135,-0.275148 0.271622,-0.16116 1.221141,-1.105621 1.332032,-1.324941 0.05204,-0.102907 0.126522,-0.3047481 0.165514,-0.4485249 0.06497,-0.2395492 0.06266,-0.2674387 -0.02762,-0.3334536 -0.05418,-0.039634 -0.178944,-0.087131 -0.277241,-0.1055671 -0.196514,-0.03686 -0.497697,-0.2856064 -0.497697,-0.4110455 0,-0.1295175 0.186446,-0.3210929 0.322241,-0.3310922 0.201745,-0.014869 0.185352,-0.1289371 -0.03155,-0.2195673 -0.165151,-0.069002 -0.257296,-0.073515 -0.530333,-0.025979 -0.562482,0.09796 -0.803789,0.07813 -0.903617,-0.074231 -0.04748,-0.072479 -0.08634,-0.2378692 -0.08634,-0.3675427 0,-0.3939364 -0.05152,-0.5457116 -0.21881,-0.6445294 -0.132369,-0.078194 -0.155419,-0.1251284 -0.155419,-0.3165005 0,-0.1667901 -0.02755,-0.2418991 -0.106922,-0.2914672 -0.158693,-0.099098 -0.131136,-0.2387642 0.103023,-0.5221294 0.115476,-0.1397341 0.210366,-0.2927124 0.210881,-0.3399553 5.05e-4,-0.047249 0.0027,-0.3015521 0.0047,-0.5651361 0.0035,-0.4266828 0.04149,-0.6403353 0.220101,-1.2353069 0.02712,-0.090298 0.04929,-0.3017576 0.04929,-0.4699136 0,-0.3199018 0.117368,-0.6272604 0.301712,-0.7901054 0.05458,-0.048215 0.300102,-0.1880101 0.545593,-0.3106575 0.440919,-0.2202747 0.453597,-0.2230419 1.042491,-0.2273317 0.5136,-0.00363 0.65222,0.015226 1.001122,0.1369066 0.498276,0.1737992 0.549148,0.1742342 0.894552,0.00761 0.316953,-0.152906 0.68428,-0.1748929 0.916394,-0.054861 0.230241,0.119058 0.523043,0.4918282 0.648648,0.8258019 0.0617,0.1640534 0.231507,0.7772599 0.377348,1.3626792 0.145841,0.5854191 0.290952,1.1146897 0.322467,1.1761433 0.248927,0.4854349 0.917826,0.7370379 1.155648,0.4347008 0.05687,-0.0723 0.133712,-0.2046201 0.170749,-0.294036 0.05919,-0.1429064 0.09328,-0.1625732 0.28175,-0.1625732 0.579326,0 0.92741,1.0240837 0.578287,1.701347 C 32.945299,7.597557 32.677034,7.841517 32.359152,7.987016 31.991285,8.1553953 31.17494,8.1544645 30.706173,7.9852261 30.041939,7.7453023 29.520075,7.2758171 29.187721,6.6192057 L 29.01018,6.2683669 28.844683,6.4149717 c -0.509361,0.4512127 -0.786548,0.7733808 -0.820326,0.9534394 -0.08087,0.4310824 0.08387,0.8771899 0.323933,0.8771899 0.150674,0 0.388152,0.093498 0.522529,0.2057375 0.124131,0.1036749 0.118429,0.3340584 -0.0138,0.5581631 l -0.107345,0.1819443 0.154318,0.4492796 c 0.08488,0.2471077 0.182603,0.6481665 0.217172,0.8912435 0.04287,0.301414 0.128035,0.581939 0.267814,0.882108 0.536636,1.152398 0.632623,1.396545 1.153441,2.933851 0.256472,0.757037 0.495286,1.350528 0.69063,1.716337 0.388181,0.726919 0.503036,1.125555 0.619982,2.151831 0.06106,0.535851 0.0976,0.830194 0.262195,2.111711 0.201346,1.567715 0.342306,2.292924 0.507929,2.613207 0.13684,0.264617 0.781892,1.039272 0.928914,1.115554 0.499188,0.25898 0.705382,0.612305 0.849683,1.455985 l 0.09584,0.560357 0.240575,-0.01722 c 0.132316,-0.0095 0.247289,-0.02374 0.255496,-0.03178 0.0082,-0.0079 -0.02199,-0.226208 -0.06711,-0.484929 -0.04512,-0.25872 -0.07045,-0.481985 -0.05628,-0.496153 0.03972,-0.0397 0.07424,0.08597 0.151301,0.550888 l 0.07088,0.427692 0.3327,0.02677 c 0.182986,0.01474 0.349857,0.05389 0.370828,0.08708 0.02097,0.03318 0.159565,0.07685 0.307989,0.09706 0.148424,0.02017 0.300725,0.05583 0.338445,0.07911 0.0381,0.02356 0.09135,0.229894 0.119797,0.464259 0.04797,0.395222 0.08397,0.653476 0.205933,1.477496 0.02722,0.183896 0.0872,0.623049 0.133292,0.975892 0.04609,0.352843 0.106078,0.797906 0.133312,0.989028 0.02723,0.191128 0.07662,0.551988 0.109773,0.801917 0.03315,0.24993 0.09354,0.694998 0.134199,0.989033 0.04066,0.294036 0.101488,0.751129 0.135155,1.015758 0.03368,0.264635 0.08294,0.611871 0.109467,0.771641 0.06883,0.414412 0.05972,0.675929 -0.02603,0.747098 -0.06771,0.05619 -1.279526,0.328784 -4.0565,0.912475 l -1.031912,0.216898 -0.852878,-0.160725 c -0.713722,-0.134501 -0.868056,-0.18044 -0.945895,-0.281565 -0.104058,-0.135184 -0.122788,-0.284713 -0.04193,-0.334686 0.05691,-0.03517 0.07647,-2.47494 0.02149,-2.679809 -0.02558,-0.0953 -0.09674,-0.124246 -0.440325,-0.179007 -0.336923,-0.05371 -0.50966,-0.12229 -0.971158,-0.385615 -0.308736,-0.176161 -0.583719,-0.341725 -0.611071,-0.367918 -0.0304,-0.02913 -0.0065,-0.146688 0.06156,-0.302615 0.275075,-0.630306 0.389132,-0.914149 0.389132,-0.968418 0,-0.03221 0.04811,-0.144181 0.106922,-0.248884 0.05881,-0.104698 0.106922,-0.226516 0.106922,-0.270708 0,-0.04417 0.06014,-0.19903 0.133652,-0.344094 0.0735,-0.145063 0.133654,-0.300959 0.133654,-0.346444 0,-0.0455 0.02166,-0.124463 0.04812,-0.175527 0.02647,-0.05105 0.113034,-0.261234 0.192367,-0.467056 0.07933,-0.205829 0.202021,-0.509555 0.27264,-0.674951 0.07062,-0.165395 0.1284,-0.316017 0.1284,-0.334717 0,-0.01867 0.04596,-0.13597 0.102128,-0.260617 0.05617,-0.124643 0.152972,-0.382999 0.215119,-0.574127 0.06215,-0.191122 0.178582,-0.46778 0.258741,-0.614801 0.131827,-0.241784 0.165556,-0.268931 0.353267,-0.284314 0.114133,-0.0093 0.233222,0.0087 0.264631,0.04012 0.03141,0.03141 0.142512,0.05697 0.246896,0.05685 0.104378,-1.44e-4 0.298045,0.03438 0.430362,0.0767 0.229547,0.07343 0.75439,0.203375 1.193298,0.295444 0.183222,0.03843 0.209058,0.03027 0.250754,-0.07942 0.05949,-0.156463 0.133086,-1.079324 0.08231,-1.032064 -0.02102,0.01957 -0.06777,0.151879 -0.103905,0.294036 -0.06528,0.256859 -0.06739,0.258756 -0.339642,0.305504 -0.247188,0.04241 -0.289213,0.03462 -0.430192,-0.08019 -0.08593,-0.06999 -0.248342,-0.289619 -0.360907,-0.488094 -0.112561,-0.198475 -0.224251,-0.360861 -0.248189,-0.360861 -0.02393,0 -0.04352,-0.0571 -0.04352,-0.126854 0,-0.06977 -0.05308,-0.24419 -0.117969,-0.387591 -0.06489,-0.143409 -0.135821,-0.405083 -0.157633,-0.581505 -0.06798,-0.549771 -0.128517,-0.844013 -0.242003,-1.176143 -0.06028,-0.176421 -0.139835,-0.429027 -0.176784,-0.561342 -0.138472,-0.495869 -0.223374,-0.778402 -0.265074,-0.882108 -0.04476,-0.11132 -0.233136,-0.727866 -0.432857,-1.416719 -0.06394,-0.220528 -0.139272,-0.459708 -0.167412,-0.531518 -0.0509,-0.129867 -0.109467,-0.375011 -0.211522,-0.885201 -0.02941,-0.147014 -0.07107,-0.483823 -0.09259,-0.748458 -0.02152,-0.264628 -0.06804,-0.533693 -0.103394,-0.59792 -0.03535,-0.06423 -0.06427,-0.16679 -0.06427,-0.227923 0,-0.06113 -0.168402,-0.447311 -0.374228,-0.858176 -0.205824,-0.41087 -0.374227,-0.778945 -0.374227,-0.817947 0,-0.03897 -0.108251,-0.283069 -0.240575,-0.542381 -0.132317,-0.259313 -0.241222,-0.510402 -0.242013,-0.55797 -7.85e-4,-0.04755 -0.0714,-0.1707 -0.156912,-0.273608 -0.144922,-0.174416 -0.158455,-0.17986 -0.199336,-0.0802 -0.02413,0.05879 -0.300081,0.491845 -0.613239,0.962303 -0.794519,1.193605 -1.086512,1.707752 -1.396631,2.459207 -0.257533,0.624033 -0.322907,0.934817 -0.32613,1.550374 -0.0028,0.546563 0.0079,0.61009 0.153344,0.900047 0.102601,0.204644 0.265677,0.406968 0.473971,0.588072 0.80185,0.697179 1.017089,0.950098 1.31981,1.550859 l 0.292142,0.579769 v 0.62311 c 0,0.508239 -0.01916,0.662522 -0.103969,0.836944 -0.22642,0.465726 -0.139308,1.676647 0.234312,3.257105 0.152465,0.64494 0.157464,0.697476 0.07504,0.788553 -0.04857,0.05366 -0.135671,0.09758 -0.193563,0.09758 -0.09672,0 -0.102307,0.02496 -0.06886,0.307401 0.02002,0.169068 0.05715,0.981009 0.08252,1.80431 0.04378,1.420701 0.102473,2.20831 0.191236,2.566132 0.05498,0.221593 0.48772,1.313401 0.826399,2.084981 0.715832,1.630813 0.993787,2.653881 1.051079,3.868724 0.03117,0.660842 -0.05996,3.031769 -0.132817,3.455449 -0.02023,0.117611 -0.03677,0.697082 -0.03677,1.287709 v 1.073864 l 0.157286,0.22689 c 0.119144,0.171866 0.162882,0.304283 0.180369,0.546044 0.02023,0.279602 0.0015,0.361476 -0.150239,0.660636 -0.136219,0.26837 -0.184043,0.448054 -0.223391,0.8393 -0.02754,0.273801 -0.06207,0.533235 -0.07675,0.576514 -0.05906,0.174162 -0.126228,-0.08523 -0.127034,-0.490499 -0.0013,-0.647042 -0.146969,-0.831506 -0.441277,-0.55875 -0.218039,0.20207 -0.357716,0.55991 -0.553545,1.418128 -0.06287,0.27548 -0.13766,0.44847 -0.248495,0.574705 l -0.158565,0.180597 -0.702822,-6.03e-4 c -0.457778,-6.05e-4 -0.749256,-0.02429 -0.836,-0.06817 z M 34.397255,26.00794 c -0.01505,-0.05147 -0.06542,-0.319823 -0.111947,-0.596367 -0.04653,-0.276544 -0.122316,-0.58232 -0.168438,-0.679505 -0.0886,-0.186712 -0.511955,-0.608634 -0.6107,-0.608634 -0.0935,0 0.0026,0.225326 0.143261,0.335986 0.06955,0.05468 0.126458,0.125973 0.126458,0.158368 0,0.03238 -0.06313,5.86e-4 -0.140293,-0.07071 l -0.140292,-0.129608 0.04163,0.133656 c 0.107932,0.346553 0.115591,0.50538 0.0442,0.91674 -0.08186,0.471751 -0.06449,0.524165 0.174405,0.525887 0.10076,6.05e-4 0.122226,-0.05094 0.194053,-0.466965 0.05353,-0.310064 0.08293,-0.401076 0.08718,-0.269934 0.0035,0.108814 -0.02027,0.322289 -0.05288,0.474379 -0.06804,0.317268 -0.03181,0.368081 0.263388,0.369446 0.143876,6.05e-4 0.172187,-0.01686 0.149988,-0.09274 z"
       id="path1" /></g></svg>
