<?xml version="1.0" encoding="UTF-8" standalone="no"?>
<!-- Created with Inkscape (http://www.inkscape.org/) -->

<svg
   width="50mm"
   height="50mm"
   viewBox="0 0 50 50"
   version="1.1"
   id="svg1"
   xml:space="preserve"
   inkscape:version="1.3.2 (091e20e, 2023-11-25)"
   sodipodi:docname="kosmetik.svg"
   xmlns:inkscape="http://www.inkscape.org/namespaces/inkscape"
   xmlns:sodipodi="http://sodipodi.sourceforge.net/DTD/sodipodi-0.dtd"
   xmlns="http://www.w3.org/2000/svg"
   xmlns:svg="http://www.w3.org/2000/svg"><sodipodi:namedview
     id="namedview1"
     pagecolor="#ffffff"
     bordercolor="#00a6f4"
     borderopacity="0.25"
     inkscape:showpageshadow="2"
     inkscape:pageopacity="0.0"
     inkscape:pagecheckerboard="0"
     inkscape:deskcolor="#d1d1d1"
     inkscape:document-units="mm"
     inkscape:zoom="1.6843917"
     inkscape:cx="152.28049"
     inkscape:cy="107.16035"
     inkscape:window-width="1656"
     inkscape:window-height="828"
     inkscape:window-x="0"
     inkscape:window-y="25"
     inkscape:window-maximized="0"
     inkscape:current-layer="layer1" /><defs
     id="defs1" /><g
     inkscape:label="Layer 1"
     inkscape:groupmode="layer"
     id="layer1"><path
       style="fill:#00a6f4;stroke-width:0.992942"
       d="m 33.670394,40.036568 c -0.08459,-0.0062 -0.44599,-0.03384 -0.803125,-0.06153 -0.357134,-0.02769 -0.964605,-0.06697 -1.349934,-0.08727 -0.770242,-0.0406 -1.298541,-0.0961 -2.15306,-0.226235 -0.310144,-0.04723 -0.802272,-0.09763 -1.093618,-0.111995 -0.291347,-0.01437 -0.437447,-0.03028 -0.324667,-0.03535 0.181299,-0.0081 0.149626,-0.01667 -0.273405,-0.07351 -0.263151,-0.03535 -0.670695,-0.08549 -0.905653,-0.111417 l -0.427194,-0.04715 0.393019,-0.0063 c 0.21616,-0.0033 0.451713,-0.01686 0.523449,-0.02988 l 0.13043,-0.02366 -0.28422,-0.09929 c -0.156321,-0.05461 -0.408664,-0.157417 -0.560762,-0.228458 -0.259837,-0.121366 -0.291838,-0.128186 -0.529722,-0.112944 -0.139247,0.009 -0.3839,0.0023 -0.54367,-0.01465 l -0.290492,-0.03088 0.273405,-0.0049 c 0.323392,-0.0059 0.632521,-0.0396 0.631568,-0.06893 -3.72e-4,-0.01145 -0.07928,-0.06701 -0.175355,-0.123398 -0.229737,-0.134843 -0.579776,-0.477556 -0.663216,-0.649336 -0.05797,-0.119334 -0.06527,-0.199672 -0.05744,-0.632247 0.0049,-0.27255 0.02959,-0.680094 0.0548,-0.905652 0.02522,-0.225558 0.04045,-0.416463 0.03387,-0.424232 -0.01782,-0.02103 -0.973435,-0.0031 -1.06563,0.02 -0.04368,0.01096 -0.751123,0.02948 -1.572075,0.04118 -0.958118,0.01367 -1.492642,0.03353 -1.492642,0.05547 0,0.02219 0.683512,0.04018 1.948007,0.05127 1.071404,0.0095 1.8788,0.02847 1.794216,0.04238 -0.632802,0.104054 -2.325812,0.206467 -3.152466,0.190687 -0.365854,-0.0069 -0.57231,0.0014 -0.572481,0.02326 -1.75e-4,0.02221 0.593971,0.03722 1.697334,0.0429 0.93368,0.0048 1.702398,0.01352 1.708259,0.01937 0.02874,0.02874 -1.520743,0.133864 -2.392734,0.162343 -0.542422,0.01772 -0.999947,0.04069 -1.016721,0.05106 -0.09846,0.06086 0.0503,0.07189 0.76408,0.05676 0.721473,-0.0153 2.805645,0.03002 2.400834,0.05221 -0.09398,0.0052 -0.555819,0.03991 -1.026301,0.07722 -0.470483,0.03732 -0.969019,0.06786 -1.107858,0.06786 -0.35513,0 -0.26724,0.04733 0.132216,0.07118 0.251723,0.01503 0.374504,0.03981 0.501074,0.101074 l 0.16765,0.08115 -0.138159,0.03999 c -0.07599,0.022 -0.264295,0.05117 -0.418465,0.06481 -0.302002,0.02673 -0.384172,0.08635 -0.117967,0.08559 0.08929,-2.53e-4 0.421142,0.01768 0.737463,0.03986 0.663347,0.04651 0.682521,0.08826 0.06188,0.13473 -0.77238,0.05785 -0.736771,0.08156 0.149031,0.09929 0.776267,0.01553 0.846577,0.02173 0.768951,0.06792 -0.06175,0.03674 -0.220445,0.0542 -0.572442,0.06302 -0.449358,0.01121 -0.569153,0.03529 -0.434058,0.08714 0.02912,0.0112 0.217511,0.01321 0.418651,0.0044 l 0.365707,-0.0158 -0.307579,0.0647 c -0.16917,0.03558 -0.39924,0.08903 -0.51127,0.118755 -0.172309,0.04573 -0.453999,0.05394 -1.828393,0.05335 -1.598193,-6.92e-4 -2.265032,-0.02439 -3.042987,-0.108154 -0.385239,-0.04147 -0.408705,-0.08144 -0.05411,-0.09216 0.306413,-0.0092 0.05749,-0.0344 -0.697751,-0.07052 -1.050932,-0.05024 -1.258298,-0.06895 -1.189601,-0.107403 0.02976,-0.01666 0.559506,-0.04345 1.17721,-0.05954 0.617702,-0.01609 0.953927,-0.03193 0.747166,-0.03518 -0.206764,-0.0033 -0.590794,-0.03642 -0.853405,-0.07371 -0.380262,-0.054 -0.679452,-0.06862 -1.469549,-0.07175 -1.120605,-0.0044 -1.133888,-0.04708 -0.02661,-0.08546 0.38063,-0.0132 0.692056,-0.03412 0.692056,-0.04649 0,-0.01239 -0.08843,-0.05072 -0.19651,-0.08519 -0.162372,-0.05179 -0.349569,-0.06555 -1.077598,-0.07922 -0.484597,-0.0091 -0.875263,-0.02236 -0.868146,-0.02948 0.01313,-0.01313 1.097548,-0.07705 1.441758,-0.08498 0.193829,-0.0044 0.234979,-0.03608 0.124179,-0.09537 -0.116859,-0.06255 -0.926362,-0.105027 -2.000357,-0.104978 -0.889214,3.7e-5 -1.202719,0.01418 -1.917412,0.08652 -0.917237,0.09284 -1.392519,0.156823 -1.69169,0.227727 -0.171604,0.04067 -0.09723,0.04604 0.85439,0.06164 0.986487,0.01618 1.029532,0.0195 0.803125,0.06204 -0.131576,0.02472 -0.408399,0.05717 -0.615161,0.07208 l -0.375931,0.02713 0.427195,0.0078 c 0.28814,0.0053 0.396695,0.01694 0.333495,0.03596 -0.125604,0.03781 -0.843917,0.101998 -1.176677,0.10515 -0.147138,0.0014 -0.336729,0.01485 -0.421313,0.0299 -0.1035736,0.01843 0.06847,0.02876 0.526873,0.03164 0.374364,0.0023 0.674255,0.01059 0.666423,0.01843 -0.04548,0.0452 -2.1757491,0.132722 -3.2096532,0.131867 -1.9503467,-0.0016 -2.4751536,-0.09974 -2.9104711,-0.544204 -0.247507,-0.252705 -0.2395334,-0.250889 -1.1120032,-0.253315 -0.5980373,-0.0017 -0.7593274,-0.01096 -0.6937522,-0.03983 0.047969,-0.02115 0.3738444,-0.04428 0.7430676,-0.05271 L 4.7574004,36.805644 4.684559,36.703351 C 4.5426499,36.504185 4.4398125,36.468332 4.0231207,36.472869 c -0.6545848,0.0071 -0.8628381,-0.0026 -0.779256,-0.0362 0.041324,-0.01665 0.3143004,-0.03305 0.6066161,-0.03646 0.2923159,-0.0033 0.5314833,-0.0129 0.5314833,-0.02109 0,-0.04361 -0.085647,-0.171706 -0.1492461,-0.223224 -0.058904,-0.04771 -0.1483304,-0.05977 -0.4659138,-0.06281 -0.6621013,-0.0064 -0.8214932,-0.05624 -0.1965096,-0.06155 0.4938543,-0.0042 0.5382651,-0.0096 0.5382651,-0.06608 0,-0.128133 -0.065053,-0.143399 -0.630539,-0.14797 -0.5747891,-0.0047 -0.5265939,-0.02166 0.2289763,-0.08082 0.2633967,-0.02062 0.299036,-0.0312 0.299036,-0.0887 0,-0.06186 -0.034461,-0.06548 -0.6578794,-0.06921 -0.756284,-0.0046 -0.6960552,-0.04767 0.1196146,-0.08571 0.2772493,-0.01293 0.5040894,-0.03649 0.5040894,-0.05237 0,-0.01588 -0.2268401,-0.03056 -0.5040894,-0.03264 -0.494291,-0.0037 -0.5004519,-0.0047 -0.316952,-0.0493 0.1029261,-0.02503 0.3222854,-0.0561 0.487466,-0.06902 0.2846526,-0.02227 0.3014656,-0.02802 0.3221111,-0.110284 0.01198,-0.04774 0.00793,-0.418675 -0.009,-0.824313 -0.016935,-0.405638 -0.030791,-1.022036 -0.030791,-1.369773 V 32.353088 L 4.0310789,32.11983 C 4.1709051,31.824611 4.5047849,31.481304 4.7702843,31.359754 4.9758792,31.265636 5.3880478,31.21514 7.1160139,31.072404 8.581996,30.95131 8.5748362,30.945112 6.9622243,30.939255 5.3006885,30.933221 5.1926194,30.922214 4.8136679,30.720351 4.3250195,30.46006 3.8728705,29.879996 3.3550132,28.849033 2.9173094,27.977642 2.607151,27.026068 2.4814496,26.168922 c -0.075895,-0.517525 -0.05082,-1.343014 0.050347,-1.65744 0.2596472,-0.806975 1.3344419,-2.433392 2.0017255,-3.029079 0.352637,-0.3148 0.7985705,-0.503775 1.4034352,-0.594741 0.2480352,-0.03731 4.0522423,-0.448796 6.3224767,-0.683892 0.714269,-0.07396 1.511666,-0.160065 1.771994,-0.191332 1.036082,-0.124435 1.258373,-0.0054 2.418098,1.295578 0.117291,0.131569 0.207683,0.145607 0.248735,0.03863 0.0101,-0.02634 0.03481,-0.936358 0.05486,-2.022258 0.02017,-1.09106 0.05192,-2.031555 0.07098,-2.102192 0.04593,-0.170241 0.131966,-0.187995 0.485045,-0.10009 0.343818,0.0856 0.708709,0.122326 0.774977,0.078 0.03588,-0.02398 0.05656,-0.155012 0.07713,-0.488246 0.04306,-0.698211 0.102614,-1.302426 0.135844,-1.378194 0.02003,-0.0457 0.02434,-0.0117 0.01295,0.102527 -0.02536,0.254604 -0.02896,1.715678 -0.0043,1.75555 0.03407,0.05512 0.557395,0.02895 0.613639,-0.03069 0.03971,-0.04211 0.04271,-0.249634 0.01858,-1.280573 -0.03347,-1.429128 -0.08679,-2.668388 -0.116921,-2.717132 -0.03173,-0.05133 -0.109595,-0.04077 -0.132118,0.01793 -0.01096,0.02855 -0.0043,0.170812 0.01469,0.316123 0.04563,0.348353 0.02832,3.613407 -0.01916,3.613407 -0.02197,0 -0.04301,-0.586076 -0.0589,-1.640427 -0.02704,-1.793966 -0.04876,-2.165109 -0.129066,-2.206298 -0.04625,-0.02371 -0.79113,-0.101432 -0.811702,-0.08467 -0.02548,0.02073 -0.07997,1.151843 -0.110395,2.290982 -0.01907,0.714269 -0.04348,1.364927 -0.05424,1.445908 -0.02246,0.169115 -0.100508,0.223351 -0.177252,0.123176 -0.123146,-0.160729 0.04712,-4.12993 0.198998,-4.639045 0.157078,-0.526542 0.662186,-0.762196 1.018422,-0.475136 0.157436,0.126865 0.299704,0.356934 0.34303,0.554736 0.213003,0.972419 0.228029,1.136025 0.279345,3.041624 0.0205,0.761261 0.04359,1.41726 0.05129,1.457776 0.01133,0.05948 0.0466,0.07815 0.183343,0.09695 0.09313,0.01281 0.186785,0.04434 0.208133,0.07005 0.06288,0.07577 0.09344,0.615258 0.135376,2.390842 0.03081,1.304098 0.05064,1.705952 0.08966,1.816298 0.03408,0.09638 0.138435,0.227526 0.326327,0.410106 0.450421,0.437684 0.704846,0.881264 0.831356,1.449428 0.05067,0.227552 0.05984,0.824752 0.08701,5.667128 0.01671,2.977024 0.03821,5.420602 0.04779,5.430173 0.0095,0.0095 0.290778,-2.43e-4 0.624907,-0.02181 0.334131,-0.02157 0.811281,-0.0391 1.060335,-0.03898 l 0.452826,2.27e-4 v -7.277784 c 0,-5.489133 0.0099,-7.299379 0.04004,-7.365651 0.05586,-0.122609 0.142095,-0.133838 0.492292,-0.0641 0.409808,0.08162 2.008911,0.08014 2.517473,-0.0023 0.678221,-0.109989 0.722458,-0.08694 0.755967,0.393797 0.09338,1.339561 0.139297,6.545264 0.09387,10.640441 -0.01959,1.765911 -0.02802,3.21834 -0.01875,3.227616 0.0092,0.0092 0.09721,-0.0016 0.195414,-0.02416 0.3924,-0.09017 1.088258,-0.206971 1.460131,-0.245103 0.21616,-0.02216 0.410177,-0.05824 0.431148,-0.08017 0.02741,-0.02865 0.03039,-0.24647 0.01059,-0.774641 -0.01513,-0.404126 -0.04441,-1.688273 -0.06507,-2.853659 -0.02065,-1.165386 -0.05158,-2.910903 -0.06872,-3.878926 -0.01715,-0.968021 -0.03578,-2.280752 -0.04142,-2.917178 l -0.01022,-1.157139 0.113633,-0.09491 0.113633,-0.09491 -0.03577,-2.250988 c -0.01967,-1.238045 -0.0264,-2.289422 -0.01493,-2.336395 0.03439,-0.140961 0.145288,-0.234584 0.306532,-0.258765 l 0.149146,-0.02236 v -1.224257 c 0,-0.67947 0.01427,-1.261732 0.03205,-1.308528 0.01997,-0.05253 0.07734,-0.09925 0.152159,-0.12395 0.06604,-0.02181 0.127632,-0.0656 0.136838,-0.09733 0.0092,-0.03173 0.02637,-0.31914 0.03815,-0.63868 0.03763,-1.021071 0.133598,-1.377211 0.445027,-1.651342 0.23098,-0.203317 0.433761,-0.262667 0.887465,-0.259745 0.445961,0.0028 0.682959,0.07752 0.888076,0.279721 0.262764,0.259028 0.364426,0.648108 0.430724,1.648453 0.03882,0.585806 0.07533,0.717688 0.198616,0.717688 0.150482,0 0.156283,0.04591 0.174275,1.379699 l 0.01709,1.266759 0.150376,0.05234 c 0.08503,0.02959 0.162227,0.08204 0.177644,0.120688 0.015,0.03759 0.027,1.106433 0.02666,2.375201 -3.32e-4,1.268768 0.01,2.334189 0.02289,2.367606 0.01292,0.03342 0.05436,0.07729 0.09209,0.09747 0.06803,0.03641 0.06842,0.05792 0.04775,2.604936 -0.01145,1.412524 -0.0134,2.552846 -0.0043,2.53405 0.0091,-0.0188 0.215528,-0.833883 0.458728,-1.811303 0.2432,-0.977421 0.482596,-1.915413 0.531996,-2.084427 0.08668,-0.296575 0.192359,-0.486672 0.334758,-0.602186 0.04982,-0.04041 0.06293,-0.08118 0.0492,-0.152995 -0.01194,-0.06233 0.0062,-0.146727 0.04984,-0.232292 0.03771,-0.07391 0.09823,-0.28189 0.134499,-0.462166 0.07927,-0.394071 0.225551,-0.888608 0.526193,-1.778953 0.538364,-1.594345 1.007742,-3.16908 1.075682,-3.608851 0.02982,-0.193028 0.02663,-0.30921 -0.01593,-0.580984 -0.292386,-1.866669 -0.403769,-2.72559 -0.407466,-3.142102 l -0.0039,-0.444283 0.125014,-0.261788 c 0.558715,-1.169982 1.538702,-1.8403512 2.696349,-1.8444612 0.433396,-0.0016 0.668132,0.04749 1.01001,0.2109722 0.499646,0.238922 0.925978,0.783842 1.106134,1.413813 0.100865,0.352706 0.151504,0.832487 0.10579,1.002268 -0.02586,0.09603 -0.251432,0.429867 -0.691962,1.024068 -1.401192,1.889972 -1.627996,2.195039 -1.951241,2.624546 -0.225098,0.299098 -0.350992,0.500124 -0.385247,0.615161 -0.138427,0.464871 -0.720714,2.897123 -0.920842,3.846427 -0.278281,1.320016 -0.313037,1.457531 -0.398832,1.578017 -0.04942,0.06942 -0.06199,0.123889 -0.04568,0.198115 0.01665,0.07583 -2.6e-5,0.142652 -0.06431,0.257685 l -0.0868,0.155309 0.0572,0.218087 c 0.07801,0.297432 0.06813,0.3456 -0.504908,2.461125 -0.494597,1.825941 -0.751253,2.812724 -0.751253,2.888397 0,0.02367 0.181134,-0.132847 0.402519,-0.347828 0.452819,-0.439715 0.622682,-0.566753 0.975622,-0.729639 0.970679,-0.44798 2.325796,-0.199683 3.645665,0.667995 1.622876,1.066872 3.120827,2.708667 3.84733,4.216781 0.450261,0.934673 0.50845,1.390977 0.269046,2.109838 -0.115197,0.345916 -0.506644,1.124646 -0.793698,1.578968 -0.123532,0.195515 -0.18773,0.324595 -0.152975,0.307579 0.07438,-0.03642 1.555894,-0.03334 2.247123,0.0047 0.777464,0.04275 0.482752,0.07836 -0.680663,0.08222 -0.562331,0.0018 -1.016011,0.0091 -1.008179,0.01608 0.0079,0.0069 0.391025,0.02273 0.851541,0.03502 0.750519,0.02003 1.853129,0.119445 1.905499,0.17182 0.01084,0.01084 -0.262224,0.01973 -0.606829,0.01973 -0.344603,0 -0.617274,0.0092 -0.605935,0.02061 0.01133,0.01133 0.379152,0.04694 0.817364,0.0791 l 0.79675,0.05849 -0.478458,0.0307 c -0.690165,0.04428 -3.460525,0.02192 -3.541383,-0.02858 -0.05152,-0.03217 -0.07606,-0.0269 -0.131201,0.02821 -0.06764,0.0676 -0.06622,0.06778 0.520792,0.06882 0.966363,0.0017 3.12708,0.06537 3.154653,0.09295 0.01409,0.0141 0.01859,0.03267 0.01,0.04127 -0.02348,0.02348 -3.14037,0.09595 -3.525084,0.08195 -0.252943,-0.0092 -0.321174,-0.0028 -0.281379,0.02621 0.05696,0.04158 0.360657,0.06427 1.572207,0.117474 0.43232,0.01899 0.839864,0.04647 0.905652,0.0611 0.137178,0.03049 -1.025353,0.07335 -1.992743,0.07348 -0.397032,5.4e-5 -0.60129,0.01194 -0.58751,0.03425 0.01157,0.0188 0.100951,0.03379 0.198524,0.03329 0.490706,-0.0023 2.689883,0.120085 2.600446,0.144873 -0.05451,0.01511 -0.829605,0.02677 -1.722441,0.02593 -2.304952,-0.0022 -2.576325,-6.82e-4 -2.560319,0.01419 0.0079,0.0073 0.506368,0.03095 1.107858,0.05264 1.308051,0.04713 3.1361,0.136838 3.154024,0.154761 0.007,0.007 -1.022684,0.01988 -2.288294,0.02855 -1.417448,0.0097 -2.347037,0.02914 -2.420718,0.05067 -0.08879,0.02593 0.15777,0.03695 0.956914,0.04276 0.592092,0.0043 1.414869,0.01741 1.828392,0.02913 l 0.751862,0.0213 -1.093617,0.02752 c -0.601489,0.01513 -1.65495,0.04968 -2.341025,0.07678 -0.686075,0.02709 -1.589591,0.04931 -2.007814,0.04937 -0.484071,7.9e-5 -0.760406,0.01253 -0.760406,0.03429 0,0.02229 0.542063,0.03418 1.557835,0.03418 1.231045,0 1.554863,0.009 1.543663,0.04271 -0.02608,0.07862 -0.3076,0.09765 -1.724785,0.116625 -1.145087,0.01533 -1.415986,0.02777 -1.448102,0.06646 -0.03316,0.03994 9.94e-4,0.04775 0.212451,0.0485 0.392896,0.0014 1.630209,0.06112 1.893984,0.09142 0.168032,0.01931 -0.119777,0.0323 -0.982712,0.04439 -1.1705,0.0164 -1.222383,0.01988 -1.270378,0.08545 -0.04952,0.06765 -0.0408,0.06874 0.84441,0.10659 0.491947,0.02103 1.125132,0.051 1.407081,0.06659 0.469054,0.02593 0.495201,0.03066 0.307578,0.05558 -0.112783,0.01499 -0.781765,0.04061 -1.486637,0.05692 -1.160254,0.02685 -1.309084,0.03691 -1.572075,0.106098 -0.15977,0.04204 -0.31356,0.100139 -0.341755,0.129125 -0.0458,0.04708 -0.04399,0.05011 0.01709,0.02846 0.232803,-0.08257 0.537858,-0.128953 0.96,-0.145976 0.438795,-0.01769 1.151419,0.02082 0.9282,0.05017 -0.153996,0.02024 -0.106615,0.07585 0.06835,0.0802 0.219485,0.0054 0.378355,0.04175 0.326373,0.07454 -0.02256,0.01423 -0.540192,0.03557 -1.150295,0.04743 -0.873942,0.01699 -1.132123,0.01207 -1.216943,-0.02303 -0.08868,-0.03674 -0.140822,-0.03664 -0.295783,5.35e-4 -0.149195,0.03579 -0.176074,0.05187 -0.129906,0.0777 0.03202,0.01793 0.528962,0.04674 1.104322,0.06405 1.244208,0.03742 1.564178,0.08871 0.584738,0.09371 -0.760023,0.0038 -2.052774,0.05974 -2.30685,0.09968 -0.146609,0.02305 -0.102921,0.03054 0.30758,0.05271 0.263152,0.01422 0.824485,0.03846 1.247408,0.05388 1.510085,0.05503 0.924027,0.08773 -1.615818,0.09014 -1.613664,0.0015 -2.654635,0.01613 -2.861179,0.0401 -0.289818,0.03364 -0.231125,0.03665 0.546808,0.02807 1.306941,-0.01443 4.136969,0.05793 4.22068,0.107908 0.05339,0.03188 -0.425483,0.03973 -2.187234,0.03588 -1.240573,-0.0027 -2.324792,-0.01 -2.409377,-0.01609 z m -0.175013,-0.490379 c 0.72467,-0.03516 1.382136,-0.09877 1.967932,-0.190382 0.888261,-0.13891 1.89391,-0.404716 2.017656,-0.533292 l 0.06835,-0.07102 -0.06835,0.02486 c -1.124677,0.409019 -2.325455,0.624454 -3.930188,0.705128 -1.731809,0.08706 -3.505252,-0.06685 -4.99379,-0.433374 -0.514786,-0.126759 -0.566618,-0.203856 -0.07901,-0.117523 0.334429,0.05921 0.953445,0.100594 2.100486,0.14045 1.956014,0.06795 4.082087,-0.05105 5.539357,-0.310056 0.877406,-0.155944 1.139029,-0.201342 1.392713,-0.241667 0.557664,-0.08865 0.676843,-0.216728 0.735366,-0.790305 0.02167,-0.212458 0.05727,-0.505296 0.07907,-0.650751 0.02182,-0.145455 0.02948,-0.274639 0.01705,-0.287075 -0.01244,-0.01244 -0.21126,0.05094 -0.44183,0.140828 -0.538067,0.209774 -1.321422,0.406864 -2.001512,0.503579 -0.493852,0.07023 -0.6659,0.07637 -2.159932,0.07716 -1.069605,5.61e-4 -1.786544,-0.01428 -2.101796,-0.04354 -1.860042,-0.172582 -3.177071,-0.419478 -4.323208,-0.810447 -0.848311,-0.289373 -1.294753,-0.554964 -1.587509,-0.944416 -0.146402,-0.194757 -0.155444,-0.201046 -0.155444,-0.108117 0,0.282803 0.233003,0.510222 0.865323,0.84459 1.436275,0.759497 3.205738,1.207389 5.064136,1.28185 l 0.546809,0.0219 -0.205054,0.04625 c -0.156119,0.0352 -0.400792,0.0416 -1.025267,0.02681 -1.492901,-0.03536 -2.547343,-0.233991 -3.754138,-0.707174 -0.609242,-0.238885 -1.016618,-0.471015 -1.316288,-0.750044 -0.136629,-0.12722 -0.220589,-0.183943 -0.231227,-0.156219 -0.0092,0.02394 -0.01964,0.341485 -0.02321,0.70565 -0.0074,0.76069 0.0049,0.805161 0.307539,1.104239 0.819868,0.810225 3.384988,1.46337 6.025512,1.534247 0.793601,0.0213 1.014693,0.0197 1.670467,-0.01207 z M 31.585686,38.84248 c -1.315677,-0.06985 -3.126009,-0.401862 -4.117816,-0.755197 -0.222617,-0.0793 -0.40227,-0.180579 -0.239567,-0.135046 0.370455,0.103673 1.324289,0.2994 1.930919,0.396223 1.190452,0.190003 2.302531,0.256782 3.434643,0.206245 0.7343,-0.03278 1.758239,-0.122265 1.792638,-0.156662 0.0095,-0.0095 -0.10547,-0.0048 -0.255452,0.01046 -0.414735,0.04223 -2.463677,0.03002 -3.023823,-0.01804 -0.842772,-0.07229 -2.609424,-0.315673 -2.662041,-0.366747 -0.05235,-0.05081 0.150877,-0.04333 0.463857,0.01709 1.407707,0.271739 3.114765,0.305849 5.103106,0.101961 1.378263,-0.141327 1.871852,-0.215247 3.309717,-0.495672 0.438797,-0.08558 0.804889,-0.148521 0.813538,-0.139872 0.05488,0.05488 -1.267604,0.569335 -1.46711,0.570712 -0.04174,2.88e-4 -0.09896,0.0157 -0.127154,0.03424 -0.05255,0.03456 0.04024,0.03047 0.8373,-0.03693 0.577468,-0.04883 0.581642,-0.03968 0.06351,0.139293 -0.265815,0.09182 -0.534947,0.198428 -0.598074,0.236914 -0.07086,0.04321 -0.173617,0.06994 -0.268565,0.06989 -0.08459,-4.4e-5 -0.392164,0.03827 -0.683511,0.08513 -1.084849,0.174507 -1.784761,0.230908 -2.973274,0.239591 -0.610888,0.0044 -1.210668,0.0028 -1.332845,-0.0037 z m 2.580254,-0.855407 c 0.152168,-0.120368 0.443642,-0.224678 0.760476,-0.272139 0.183228,-0.02745 0.93807,-0.172405 1.677426,-0.32213 0.739357,-0.149724 1.373741,-0.272226 1.409742,-0.272226 0.131996,0 0.05846,0.06165 -0.233579,0.195843 -0.580282,0.266638 -0.768326,0.311738 -2.52613,0.60586 -0.397853,0.06656 -0.820776,0.120553 -0.939828,0.119949 -0.2035,-9.92e-4 -0.212367,-0.0043 -0.148107,-0.05516 z m -8.178387,-0.788239 c -0.09519,-0.182598 -0.0941,-0.219286 0.0095,-0.316544 0.07005,-0.0658 0.09334,-0.07193 0.136702,-0.03594 0.06191,0.05138 0.0679,0.142399 0.013,0.197311 -0.0216,0.0216 -0.04936,0.09772 -0.0617,0.169169 l -0.02242,0.129896 z m 12.928788,0.229323 c -0.09553,-0.04105 -0.256315,-0.04105 -0.256315,0 0,0.0188 0.07305,0.0331 0.162333,0.03178 0.122141,-0.0018 0.145411,-0.0096 0.09398,-0.03178 z m -4.784576,-0.136253 c 0.795889,-0.03446 1.588378,-0.123003 2.153059,-0.240544 0.558213,-0.116194 1.31481,-0.30224 1.589163,-0.390777 0.51531,-0.166293 0.57645,-0.213134 0.52835,-0.404779 l -0.02121,-0.08455 -0.313372,0.135456 c -0.670948,0.29002 -1.165438,0.437231 -1.64622,0.490084 -0.362361,0.03983 -0.836647,0.119839 -1.140003,0.192312 -0.561528,0.134145 -0.845148,0.167785 -1.576952,0.187047 -0.603103,0.01588 -0.860323,0.0065 -1.435373,-0.05222 -1.203042,-0.12288 -1.162598,-0.152974 0.239228,-0.178035 1.519295,-0.02716 2.151457,-0.104103 2.833609,-0.344869 0.319585,-0.112796 0.930527,-0.404989 1.062893,-0.50834 l 0.08494,-0.06633 -0.15379,0.02 -0.153789,0.02 0.119617,-0.104719 c 0.07502,-0.06569 0.10611,-0.114421 0.08338,-0.130773 -0.01993,-0.01434 -0.08913,-0.06697 -0.15379,-0.11697 -0.09067,-0.0701 -0.172234,-0.0961 -0.356472,-0.113596 -0.267702,-0.02543 -0.273194,-0.02773 -0.24453,-0.102417 0.02978,-0.07764 0.159463,-0.115357 0.278069,-0.08088 0.05656,0.01645 0.148391,0.02006 0.204063,0.008 0.09334,-0.02014 0.360148,-0.174131 0.360148,-0.207846 0,-0.0462 -0.762137,-0.367417 -1.037426,-0.437249 -0.32992,-0.0837 -0.978364,-0.186055 -1.210791,-0.191135 l -0.126983,-0.0028 0.102527,-0.04695 c 0.199045,-0.09114 0.90877,-0.04801 1.438235,0.08741 0.145355,0.03717 0.388724,0.122905 0.540818,0.190512 0.582487,0.258911 0.592516,0.261725 0.667117,0.187124 0.07492,-0.07492 0.06049,-0.192306 -0.02956,-0.240499 -0.03169,-0.01695 -0.218171,-0.09103 -0.414381,-0.16457 -1.423029,-0.533416 -3.426845,-0.809748 -5.859011,-0.807977 -1.243906,9.07e-4 -1.713471,0.03301 -2.511904,0.171689 -0.931191,0.161746 -1.60666,0.395911 -2.043414,0.70839 -0.489785,0.35042 -0.326829,0.865902 0.416063,1.31614 0.440683,0.267083 1.401342,0.598412 2.337264,0.806118 1.440838,0.319763 2.766452,0.475834 4.467684,0.526004 0.09398,0.0028 0.509216,-0.0096 0.92274,-0.02752 z m 4.937409,-0.101665 c 0.04305,-0.02721 0.04175,-0.0351 -0.009,-0.05456 -0.08066,-0.03095 -0.372216,0.01555 -0.347567,0.05543 0.0255,0.04127 0.290928,0.04061 0.356532,-8.78e-4 z m 0.864922,0.0079 c -0.07932,-0.0071 -0.217729,-0.0073 -0.30758,-1.91e-4 -0.08985,0.007 -0.02496,0.01293 0.144215,0.01303 0.169169,1.05e-4 0.242683,-0.0057 0.163365,-0.01284 z m 2.596828,-0.102958 c 0.333766,-0.156188 0.664117,-0.509374 1.144755,-1.223887 0.212462,-0.315845 0.623313,-1.031712 0.623313,-1.08606 0,-0.01655 -0.0221,-0.02158 -0.04913,-0.0112 -0.193976,0.07443 -0.369094,0.09555 -0.619489,0.07469 l -0.277228,-0.0231 0.01463,0.09965 c 0.0096,0.06586 -0.03296,0.211465 -0.12571,0.429372 -0.120971,0.284215 -0.134366,0.339276 -0.09708,0.39897 0.03776,0.06047 0.0319,0.07894 -0.04626,0.145676 -0.04921,0.04204 -0.130429,0.152272 -0.18046,0.244975 -0.05004,0.0927 -0.22505,0.349593 -0.388933,0.570869 -0.212184,0.286494 -0.332405,0.417851 -0.417583,0.456267 l -0.119617,0.05394 0.159585,-0.01369 c 0.08778,-0.0075 0.258411,-0.05994 0.379199,-0.116465 z m -23.259703,0.0075 c 0.746379,-0.109041 1.363723,-0.305678 1.446761,-0.460835 0.02911,-0.05438 0.03821,-0.429314 0.03306,-1.361711 -0.0038,-0.707668 -0.01795,-3.647343 -0.0312,-6.532616 l -0.0241,-5.245946 -0.07509,-0.273405 c -0.148008,-0.538854 -0.541661,-1.159212 -0.900566,-1.419202 -0.165425,-0.119838 -0.208032,-0.12256 -0.549539,-0.03523 -0.576162,0.147357 -1.347437,0.119051 -1.918837,-0.07044 l -0.304917,-0.101111 -0.198867,0.214916 c -0.414721,0.448186 -0.662263,0.914152 -0.748394,1.408755 -0.02962,0.170099 -0.03508,0.577168 -0.01971,1.468747 0.0117,0.678384 0.02426,2.763637 0.0279,4.633894 0.0037,1.870257 0.0153,4.256858 0.0259,5.303559 l 0.01927,1.903091 0.102527,0.107329 c 0.211543,0.221459 0.818081,0.426043 1.554987,0.524496 0.223166,0.02982 1.188904,-0.01 1.560808,-0.0643 z m -1.778982,-0.435318 c -0.402565,-0.645889 -0.630328,-1.428943 -0.737962,-2.537137 -0.03409,-0.350943 -0.04856,-1.750868 -0.01779,-1.720093 0.0095,0.0095 0.09499,0.569491 0.190132,1.244559 0.252725,1.793373 0.368231,2.296929 0.683294,2.978893 0.166852,0.361152 0.09858,0.380749 -0.117671,0.03379 z m 2.806775,-2.36626 c -0.01357,-0.07518 -0.02497,-0.236666 -0.02533,-0.358844 -3.53e-4,-0.122178 -0.03159,-0.575857 -0.06942,-1.008178 -0.03784,-0.43232 -0.129995,-1.616504 -0.204813,-2.631518 -0.16854,-2.286458 -0.337133,-4.382484 -0.390404,-4.853694 -0.0085,-0.0756 -0.0012,-0.160191 0.01639,-0.187966 0.02535,-0.04009 0.03204,-0.04083 0.03246,-0.0036 2.87e-4,0.02578 0.02296,0.202641 0.05041,0.393019 0.02743,0.190377 0.07443,0.569138 0.104448,0.841688 0.03002,0.272549 0.106627,0.895398 0.17026,1.384109 0.259887,1.996151 0.350316,3.106088 0.378673,4.647875 0.01904,1.034881 -0.01622,2.034406 -0.06266,1.777128 z m 0.06962,-7.979991 c -0.01351,-0.0658 -0.04163,-0.288782 -0.06251,-0.495546 -0.0468,-0.463623 -0.190788,-1.455 -0.25811,-1.777128 -0.06086,-0.291224 -0.170027,-0.611994 -0.257659,-0.757104 -0.165046,-0.273306 -0.516562,-0.487672 -0.917975,-0.559813 -0.329682,-0.05925 -0.6623,-0.01096 -1.273039,0.185037 -0.23751,0.0762 -0.198093,0.01352 0.06836,-0.108696 0.413204,-0.189526 0.730148,-0.259263 1.187601,-0.261316 0.502214,-0.0023 0.671685,0.05959 0.939613,0.342887 0.336431,0.355726 0.510162,0.880838 0.581317,1.757072 0.04018,0.49473 0.03391,1.876725 -0.0075,1.674602 z m -3.833189,-0.178535 c -0.01244,-0.117967 -0.04506,-0.4221 -0.07248,-0.675853 -0.0664,-0.614349 -0.06666,-1.562524 -5.41e-4,-1.876889 0.103537,-0.492172 0.413656,-1.01157 0.746459,-1.250175 0.104866,-0.07518 0.191408,-0.148235 0.192312,-0.162333 0.0027,-0.04186 -0.212294,-0.02935 -0.492899,0.02868 -0.144442,0.02987 -0.269921,0.04701 -0.278844,0.03808 -0.009,-0.009 0.05764,-0.05251 0.147894,-0.09685 0.179863,-0.08836 0.648595,-0.129756 0.855424,-0.07554 l 0.109583,0.02872 -0.228834,0.170877 c -0.379412,0.283319 -0.653017,0.716602 -0.798488,1.264496 -0.06531,0.245957 -0.07474,0.399203 -0.09396,1.526538 -0.0117,0.689225 -0.03073,1.262491 -0.04218,1.273926 -0.01145,0.01145 -0.031,-0.07572 -0.04344,-0.193692 z M 7.1875526,37.018259 c 1.1135249,-0.09608 2.2452982,-0.220971 2.275437,-0.25111 0.013815,-0.01382 0.033552,-0.229059 0.04387,-0.478333 0.021128,-0.510395 0.057771,-0.607704 0.2607542,-0.692516 0.1189029,-0.04968 0.9560132,-0.132808 2.3721792,-0.235565 0.422923,-0.0307 1.058885,-0.08574 1.41325,-0.12235 0.727844,-0.07518 0.850296,-0.06201 0.992318,0.106775 0.04764,0.05661 0.102503,0.160135 0.12192,0.230038 0.04964,0.178758 0.04387,0.520715 -0.01059,0.625021 l -0.04583,0.08781 0.191284,-0.01295 c 0.105212,-0.0071 0.265092,-0.02742 0.355301,-0.0451 0.09021,-0.01768 0.210406,-0.03215 0.267107,-0.03215 0.0567,0 0.136684,-0.01828 0.177739,-0.04062 l 0.07465,-0.04062 -0.08545,-0.02432 c -0.047,-0.01337 -0.174748,-0.02586 -0.283902,-0.02773 -0.219244,-0.0038 -0.502136,-0.06436 -0.502136,-0.107563 0,-0.05512 0.388208,-0.108511 0.62167,-0.08551 l 0.232719,0.02293 V 35.01978 c 0,-0.732895 -0.008,-0.877703 -0.04961,-0.893653 -0.02727,-0.01047 -0.515565,0.03604 -1.085074,0.103364 -1.293533,0.152897 -2.881769,0.312578 -3.598638,0.361809 -0.300745,0.02065 -0.915905,0.06835 -1.3670221,0.105975 -0.4511171,0.03763 -1.2746662,0.07773 -1.8301106,0.08909 -0.8562009,0.01752 -1.0737317,0.01157 -1.4293395,-0.03897 -0.2306929,-0.0328 -0.4266938,-0.05239 -0.4355589,-0.04353 -0.00887,0.0089 0.0016,0.08647 0.023259,0.172463 0.050026,0.198658 0.03072,1.95837 -0.022495,2.049907 -0.093933,0.161603 -0.1666476,-0.19058 -0.21741,-1.05307 C 5.5869766,34.838858 5.5816575,34.776377 5.5467266,34.684492 5.5277775,34.63465 5.4512177,34.551069 5.376586,34.49875 5.3019592,34.446434 5.1323246,34.328292 4.9996241,34.236215 4.8669236,34.144142 4.6434004,33.957163 4.5029072,33.820714 l -0.2554437,-0.248092 0.015829,0.312976 c 0.090285,1.785239 0.09541,1.82067 0.3041155,2.102305 0.247933,0.334573 0.9308253,0.945248 1.197588,1.070942 0.154106,0.07262 0.089057,0.07447 1.4225344,-0.04058 z m 1.7910033,-1.657402 c -0.4048044,-0.06533 -0.9778448,-0.191399 -1.0423555,-0.229309 -0.030203,-0.01776 0.2646105,-0.02481 0.7176877,-0.0172 0.4229212,0.0071 1.1688036,5.41e-4 1.6575139,-0.01459 2.238426,-0.06931 3.307512,-0.215364 4.878559,-0.666482 0.0329,-0.0095 0.0598,-0.0034 0.0598,0.01322 0,0.03935 -0.802078,0.393584 -1.181836,0.52195 -0.161489,0.05458 -0.426855,0.122634 -0.589701,0.151202 -1.201388,0.2108 -3.81876,0.3511 -4.4996761,0.241199 z m 30.8776111,1.626736 c 0,-0.05112 -0.07636,-0.08822 -0.159477,-0.0775 -0.05206,0.0068 -0.08757,-0.0182 -0.119617,-0.08397 -0.05219,-0.107095 -0.131016,-0.147557 -0.131016,-0.06725 0,0.06705 -0.122449,0.0722 -0.14777,0.0063 -0.01559,-0.04063 -0.543562,-0.362208 -0.594676,-0.362208 -0.0095,0 -0.0087,0.03325 0.0018,0.07388 0.01059,0.04063 0.0049,0.100902 -0.01283,0.133941 -0.01768,0.03303 -0.02259,0.129702 -0.01096,0.214815 0.02516,0.183479 -0.01734,0.17171 0.670293,0.185684 0.317031,0.0064 0.504091,-0.0023 0.504091,-0.02361 z m -1.025267,-0.150341 -0.119617,-0.03793 0.101518,-0.01325 c 0.147479,-0.01924 0.466668,0.02651 0.443739,0.06362 -0.02609,0.04221 -0.276391,0.03489 -0.425639,-0.01244 z M 15.713198,36.702753 c 0.01362,-0.01364 0.0038,-0.05014 -0.02194,-0.08109 -0.05189,-0.0625 -0.04516,-0.06286 -1.039558,0.05397 l -0.546808,0.06425 0.791768,-0.0062 c 0.435471,-0.0033 0.802913,-0.01731 0.816538,-0.03097 z m -5.025863,-0.16259 c 1.075361,-0.127444 2.220857,-0.240028 3.360566,-0.330289 0.156621,-0.0124 0.303966,-0.04175 0.327433,-0.06522 0.05447,-0.05447 0.0048,-0.522974 -0.06272,-0.590803 -0.0845,-0.08496 -4.4031568,0.24659 -4.4700881,0.343173 -0.041875,0.06042 -0.0069,0.680907 0.040041,0.709902 0.020574,0.01272 0.079342,0.01839 0.1305971,0.01261 0.05126,-0.0058 0.35463,-0.04151 0.674172,-0.07937 z m 26.437705,0.0036 c 0.10499,-0.04024 0.226489,-0.11106 0.27001,-0.157388 l 0.07912,-0.08423 -0.125924,-0.275483 c -0.06926,-0.151515 -0.166679,-0.436413 -0.216487,-0.633108 -0.05536,-0.218611 -0.107415,-0.357625 -0.133932,-0.357625 -0.02385,0 -0.04192,0.0346 -0.04014,0.07689 0.0074,0.175277 -0.01527,0.219193 -0.202749,0.393675 l -0.19631,0.182697 0.145046,0.120479 c 0.09816,0.08153 0.145045,0.147475 0.145045,0.203987 0,0.09951 -0.215712,0.325863 -0.452764,0.475096 -0.08924,0.05618 -0.1623,0.115702 -0.162335,0.132266 -1.19e-4,0.05942 0.691133,-5.02e-4 0.891419,-0.07727 z m 1.71375,-0.319576 c -0.118213,-0.118214 -0.164623,-0.110765 -0.131522,0.02112 0.01507,0.06007 0.04864,0.08813 0.115172,0.09632 0.135226,0.01665 0.137083,0.0033 0.01634,-0.11745 z m -0.487804,-0.230561 0.08237,-0.04409 -0.141659,-0.132139 c -0.170283,-0.158838 -0.2205,-0.168642 -0.169322,-0.03306 0.03023,0.08007 0.02637,0.115898 -0.02006,0.186762 -0.03159,0.04823 -0.05745,0.0943 -0.05745,0.10238 0,0.02426 0.217696,-0.03253 0.306121,-0.07985 z m 4.017657,-0.104645 c 0.05671,-0.05452 0.130695,-0.145858 0.164425,-0.202959 0.05392,-0.09129 0.05501,-0.106246 0.009,-0.123909 -0.0288,-0.01108 -0.09195,0.01108 -0.14037,0.04915 -0.0484,0.03808 -0.195024,0.110124 -0.32581,0.160101 -0.250636,0.09577 -0.264799,0.129062 -0.08816,0.207211 0.137858,0.061 0.252345,0.03407 0.380942,-0.0896 z m -17.071259,-0.13377 c 0,-0.04194 -1.154766,-0.07958 -2.665693,-0.08689 -1.31257,-0.0064 -1.535857,0.0058 -1.489496,0.08059 0.01916,0.03094 4.155189,0.03722 4.155189,0.0063 z m -2.928917,-0.334058 c 0.768337,-0.01207 1.049009,-0.02715 1.039478,-0.05568 -0.0095,-0.02861 -0.314507,-0.03577 -1.137974,-0.02671 -0.618704,0.0069 -1.130661,0.01768 -1.137682,0.02416 -0.007,0.0064 -0.003,0.03725 0.009,0.06839 0.0158,0.04116 0.0426,0.04977 0.09821,0.03152 0.04206,-0.0138 0.55012,-0.03256 1.129014,-0.04168 z m 0.476821,-0.282631 c 0.334118,-8e-5 0.401563,-0.0087 0.401563,-0.05136 0,-0.04442 -0.136237,-0.05127 -1.021082,-0.05127 -0.81251,0 -1.028857,0.0094 -1.059145,0.04586 -0.02093,0.02522 -0.02666,0.05794 -0.01273,0.07271 0.01393,0.01476 0.309847,0.01724 0.657584,0.0054 0.347735,-0.0117 0.81295,-0.02139 1.033809,-0.02144 z m 20.12496,-0.13702 c 0.02256,-0.0753 0.03219,-0.145758 0.02139,-0.156559 -0.02284,-0.02284 -0.152574,0.03973 -0.239363,0.115456 -0.0561,0.04894 -0.05631,0.05659 -0.0033,0.115221 0.09539,0.105408 0.175478,0.07857 0.221224,-0.07412 z m -1.646337,-0.05272 c 0.407497,-0.09605 0.924547,-0.41716 0.924547,-0.574188 0,-0.02538 -0.223633,-0.18107 -0.496963,-0.345978 -0.917567,-0.553595 -1.73386,-1.169882 -2.519029,-1.901824 -0.269611,-0.251334 -0.367388,-0.364281 -0.367388,-0.424392 0,-0.112648 0.07588,-0.08134 0.290492,0.119888 0.611455,0.573305 2.497161,1.766034 3.617901,2.28836 0.718979,0.335081 1.058544,0.43397 1.271951,0.370415 l 0.133955,-0.03989 -0.260132,-0.02283 C 43.61088,34.391283 43.059367,34.169248 42.226337,33.736785 41.22697,33.217965 40.07836,32.4442 40.17062,32.351941 c 0.01022,-0.01022 0.109866,0.04213 0.221497,0.116281 0.73298,0.486859 1.73006,1.008558 2.539851,1.32892 0.601982,0.238151 1.045188,0.375842 1.084186,0.336823 0.01459,-0.0146 0.02652,-0.338385 0.02652,-0.719535 v -0.692998 l 0.07183,0.174684 c 0.03951,0.09608 0.122547,0.270715 0.184541,0.388089 0.08939,0.169237 0.116084,0.265974 0.129012,0.467408 0.0202,0.314847 2.97e-4,0.396947 -0.133102,0.54888 -0.141392,0.161036 -0.05594,0.154086 0.106824,-0.0086 0.210257,-0.210256 0.290946,-0.640497 0.19232,-1.025472 -0.04946,-0.193058 -0.371025,-0.879825 -0.595621,-1.272063 -0.636248,-1.111158 -1.83647,-2.42238 -3.077819,-3.362463 -0.982686,-0.744197 -1.826546,-1.097026 -2.723819,-1.138865 -0.647084,-0.03018 -1.088027,0.07826 -1.325292,0.325912 l -0.0947,0.09883 0.05965,0.125092 c 0.07203,0.151052 0.120503,0.143767 0.160197,-0.02408 0.03677,-0.155495 0.195058,-0.330557 0.298876,-0.330557 h 0.07769 l -0.07045,0.07689 c -0.11266,0.122966 -0.214867,0.354506 -0.214867,0.486777 0,0.1466 0.09286,0.336133 0.376848,0.769175 0.42353,0.645821 0.651388,0.92335 1.639446,1.996821 0.803816,0.873301 0.854453,0.930959 0.854453,0.972929 0,0.07984 -0.119408,0.02988 -0.418751,-0.175132 -0.39433,-0.270082 -0.781483,-0.654785 -1.335762,-1.32731 -0.972279,-1.179696 -1.45799,-1.98937 -1.45799,-2.430451 v -0.132231 l -0.111072,0.0572 c -0.27112,0.139624 -0.821038,0.789194 -1.266117,1.495553 -0.418712,0.664513 -0.457559,0.795108 -0.33159,1.114696 0.07026,0.178262 0.09281,0.347764 0.0384,0.288783 -0.01647,-0.01785 -0.06474,-0.138904 -0.107255,-0.268994 -0.06994,-0.213962 -0.08171,-0.230512 -0.123408,-0.173484 -0.08975,0.12272 -0.09443,0.291697 -0.01559,0.561574 0.225715,0.772678 1.090024,2.066359 2.010691,3.009566 l 0.350376,0.358953 0.06827,-0.08067 c 0.03755,-0.04438 0.06809,-0.105889 0.06787,-0.136702 -2.25e-4,-0.03081 -0.155591,-0.23288 -0.345258,-0.44904 -0.364109,-0.414968 -0.901786,-1.113659 -1.044765,-1.357636 -0.153282,-0.261555 -0.06479,-0.225787 0.160281,0.06479 0.556477,0.718424 1.44621,1.637264 1.516924,1.566549 0.05288,-0.05288 -0.01911,-0.162847 -0.358196,-0.547108 -1.091428,-1.236806 -1.293552,-1.500482 -1.564668,-2.041151 -0.305809,-0.609856 -0.382166,-1.04713 -0.249742,-1.430191 0.08748,-0.253056 0.742462,-1.269281 0.873605,-1.35543 0.07642,-0.0502 0.08493,-0.02362 0.03254,0.101751 -0.05137,0.122929 -0.04984,0.256116 0.0065,0.572687 0.01298,0.0729 -0.0069,0.04902 -0.0688,-0.08265 l -0.08705,-0.185181 -0.191277,0.321882 c -0.105199,0.177037 -0.252967,0.441714 -0.328369,0.588172 -0.132441,0.257252 -0.13657,0.275308 -0.121685,0.532337 0.01927,0.332971 0.119272,0.557172 0.508092,1.139203 0.449247,0.672482 0.7996,1.1021 1.347691,1.652599 0.946075,0.950231 1.838921,1.513268 2.682781,1.691786 0.364303,0.07707 0.931939,0.08322 1.228512,0.01331 z M 37.23631,29.969345 c -0.227624,-0.242455 -0.534948,-0.794965 -0.640271,-1.151083 -0.08996,-0.304166 -0.06577,-0.276646 0.164847,0.187574 0.12086,0.243283 0.304418,0.584587 0.407908,0.758456 0.103488,0.173868 0.184479,0.316124 0.179977,0.316124 -0.0044,0 -0.05511,-0.04999 -0.112463,-0.111072 z m -12.793314,4.951103 c 0,-0.02588 -0.0224,-0.152765 -0.04978,-0.281947 -0.05329,-0.251439 -0.118755,-1.725903 -0.206175,-4.643523 -0.02759,-0.921032 -0.05877,-1.843772 -0.06928,-2.050534 -0.0328,-0.645403 -0.12027,-3.702144 -0.142399,-4.976041 -0.03288,-1.892636 0.03452,-2.413781 0.338554,-2.617692 0.11005,-0.07381 0.493137,-0.204131 0.829677,-0.282242 0.336832,-0.07819 0.263059,-0.113966 -0.187966,-0.09117 -0.730058,0.0369 -0.979781,0.118891 -1.087928,0.357199 -0.05113,0.112685 -0.05602,0.300084 -0.04783,1.834278 0.005,0.939827 0.02384,2.423902 0.04183,3.297941 0.01798,0.87404 0.04888,2.611867 0.06866,3.861838 0.05033,3.180661 0.122646,5.04475 0.207324,5.344123 0.05512,0.194912 0.305313,0.397941 0.305313,0.247772 z m -2.144371,-0.05075 c 0.592237,-0.01362 0.949452,-0.03464 0.951011,-0.05597 0.0064,-0.08892 -0.12355,-0.09798 -0.829253,-0.0578 -0.400685,0.02283 -0.855395,0.04132 -1.010468,0.0411 -0.212373,-3.02e-4 -0.281948,0.01084 -0.281948,0.04518 0,0.07377 0.04466,0.09757 0.136285,0.07264 0.04722,-0.01284 0.512689,-0.03317 1.034373,-0.04515 z m 0.350154,-0.308575 c 0.608339,-0.02058 0.615282,-0.02167 0.626276,-0.09919 l 0.01108,-0.07839 -0.523751,0.02195 c -0.288062,0.01207 -0.769813,0.03198 -1.070559,0.04421 -0.544502,0.02216 -0.546857,0.02261 -0.55844,0.104571 l -0.01157,0.08231 0.455914,-0.02733 c 0.250752,-0.01503 0.732735,-0.0367 1.071072,-0.04814 z M 9.0130743,34.505308 c 1.7441537,-0.140001 6.2596877,-0.569373 6.5060497,-0.618645 0.129182,-0.02583 0.175469,-0.09707 0.14992,-0.230728 -0.02136,-0.111761 0.01496,-0.112377 -0.683166,0.01145 -0.21093,0.03742 -0.795331,0.114975 -1.298672,0.172372 -0.503338,0.05739 -1.476494,0.172245 -2.162569,0.255229 -2.2594988,0.273302 -3.2815704,0.358834 -4.2890319,0.358928 -0.9329945,8.8e-5 -1.4617956,-0.136051 -2.0508362,-0.527985 -0.7234598,-0.481374 -1.0469954,-1.048077 -0.8574064,-1.501828 0.070305,-0.168246 0.2841728,-0.389791 0.4625223,-0.47911 0.3601785,-0.180377 1.2994614,-0.324052 4.1374099,-0.632865 0.8740395,-0.09511 2.1120483,-0.233782 2.7511313,-0.308161 0.639084,-0.07438 1.454171,-0.166101 1.811306,-0.203828 0.9248,-0.0977 0.938854,-0.100532 0.427193,-0.08616 -0.461001,0.01294 -1.732817,0.146479 -3.537169,0.371401 -0.9813485,0.122325 -2.0750894,0.227821 -3.0416238,0.293366 -1.1072845,0.07508 -2.0214976,0.189752 -2.3702624,0.297285 -0.2392772,0.07378 -0.5043703,0.315762 -0.6554917,0.598361 -0.098939,0.185018 -0.1152843,0.249133 -0.1158962,0.454624 -5.873e-4,0.197303 0.016388,0.27217 0.096862,0.427194 0.1261231,0.24296 0.4983015,0.608404 0.916699,0.900114 0.4541017,0.316602 0.6017127,0.394281 0.8528643,0.448804 0.3108566,0.06749 2.1103159,0.0676 2.950167,1.85e-4 z M 8.4249596,34.265921 c 1.0100816,-0.05114 1.3377093,-0.07887 2.6212194,-0.221861 1.125007,-0.12533 3.269283,-0.424656 4.139919,-0.577903 0.305967,-0.05386 0.401195,-0.08411 0.44894,-0.142654 0.03333,-0.04087 0.05333,-0.09907 0.04444,-0.129343 -0.009,-0.03028 -0.02666,-0.170387 -0.03946,-0.31136 -0.01281,-0.140974 -0.04346,-0.296132 -0.0681,-0.344796 -0.140124,-0.27675 -1.198093,-1.052877 -1.516934,-1.112823 -0.06604,-0.01241 -0.345246,0.0101 -0.632247,0.05097 -0.282693,0.04026 -0.836944,0.111306 -1.231672,0.157862 -2.4970664,0.294523 -4.5324874,0.554185 -4.9841586,0.635838 -0.3931185,0.07107 -0.8404553,0.236255 -0.9860397,0.364114 -0.031804,0.02794 -0.075833,0.04478 -0.097848,0.03746 -0.06831,-0.02277 0.3828978,-0.409792 0.5787162,-0.496393 0.2013224,-0.08903 0.4602604,-0.130874 1.6445779,-0.265737 0.4229224,-0.04815 1.3533512,-0.156252 2.0676202,-0.240205 3.499819,-0.411357 3.687171,-0.427669 3.941592,-0.343164 0.195572,0.06496 0.620726,0.341159 1.013864,0.658654 l 0.273404,0.220798 0.01,-0.31553 c 0.01157,-0.370083 0.01827,-0.359208 -0.408872,-0.666753 -0.403859,-0.290781 -0.449217,-0.29758 -1.329044,-0.19922 -1.411342,0.157782 -2.961107,0.318019 -3.757151,0.38847 -0.4417195,0.03909 -1.0107422,0.09376 -1.2644954,0.121488 -0.2537532,0.02773 -0.8304664,0.08918 -1.2815835,0.136545 -1.4138416,0.148466 -2.3945613,0.302928 -2.6550815,0.418169 -0.3309041,0.146374 -0.5714619,0.470249 -0.5213778,0.701955 0.044325,0.205052 0.1786831,0.416695 0.3961301,0.623976 0.6152381,0.58648 1.3059575,0.839752 2.4488736,0.897949 0.062055,0.0032 0.5772499,-0.01777 1.1448801,-0.04651 z M 5.9943482,33.672172 c -0.1000031,-0.03454 -0.1983181,-0.07929 -0.2184862,-0.09946 -0.04664,-0.04664 0.2849571,0.03071 0.451564,0.105334 0.1084742,0.04859 0.1116631,0.05373 0.03418,0.05525 -0.046985,9.19e-4 -0.1672558,-0.02658 -0.2672552,-0.06112 z m 0.096371,-0.771074 c 0,-0.07077 0.067929,-0.09974 0.5126332,-0.21871 0.6525749,-0.174572 1.1209604,-0.264594 2.4264635,-0.46636 1.2419381,-0.191943 1.9411051,-0.26924 2.0879661,-0.230835 l 0.07714,0.02018 -0.07478,0.02766 c -0.04111,0.01521 -0.30143,0.05136 -0.578464,0.08033 -0.277033,0.02896 -0.6344172,0.06835 -0.7941882,0.08749 -0.4464838,0.05354 -3.1981138,0.608934 -3.3883447,0.683916 -0.2014135,0.07939 -0.2684385,0.08347 -0.2684385,0.01634 z M 36.39642,34.036234 c -0.569461,-0.641303 -1.066619,-1.317905 -1.428026,-1.943452 l -0.196263,-0.339708 -0.02347,0.180392 c -0.0129,0.09922 -0.112648,0.5418 -0.221643,0.983518 -0.108992,0.44172 -0.195496,0.80657 -0.192227,0.810779 0.0033,0.0042 0.271465,0.06234 0.595989,0.129183 0.492708,0.101481 1.557894,0.397726 1.607516,0.447075 0.0079,0.0078 0.03545,0.01416 0.06137,0.01416 0.02592,0 -0.06554,-0.126876 -0.203237,-0.281947 z M 24.610557,33.234599 c 0.16979,-2.748454 0.176441,-5.645856 0.01955,-8.516979 -0.05004,-0.915742 -0.129499,-1.734752 -0.172222,-1.77513 -0.02206,-0.02086 -0.0066,3.131 0.04184,8.573297 0.01232,1.381547 0.03383,2.470282 0.04783,2.419411 0.01399,-0.05088 0.04234,-0.366141 0.06299,-0.700599 z m 8.16545,-0.394509 c 0.09514,-0.343037 0.304028,-1.1389 0.464194,-1.768586 0.160166,-0.629684 0.376934,-1.460149 0.481704,-1.845479 0.104768,-0.38533 0.320589,-1.195138 0.479597,-1.799575 0.159008,-0.604436 0.418588,-1.527177 0.576844,-2.050534 0.374317,-1.237871 0.475709,-1.61798 0.431588,-1.61798 -0.04474,0 -0.397981,0.754301 -0.576156,1.230321 -0.191665,0.512058 -0.332333,0.996749 -0.570315,1.965094 -0.676997,2.754705 -1.520862,6.33252 -1.520862,6.448145 0,0.1852 0.07912,-0.005 0.233406,-0.561406 z m -0.958986,0.401563 c 0.126486,-0.498361 0.251764,-1.22639 0.283136,-1.645386 0.0195,-0.260424 0.04457,-1.775118 0.05573,-3.365984 l 0.02027,-2.892485 -0.08164,-0.05254 c -0.130625,-0.08406 -0.4516,-0.126085 -0.967932,-0.126723 -0.546358,-6.73e-4 -0.821408,-0.04739 -1.249674,-0.21225 l -0.290493,-0.111823 0.615161,-0.01989 c 0.366033,-0.01182 0.677441,-0.03886 0.76895,-0.06676 l 0.153789,-0.0469 -0.290491,-0.02154 c -0.159771,-0.01182 -0.390457,-0.0535 -0.512634,-0.09255 -0.122178,-0.03906 -0.329794,-0.102429 -0.46137,-0.140826 -0.131576,-0.0384 -0.269987,-0.09308 -0.30758,-0.121538 -0.06395,-0.0484 -0.05733,-0.0517 0.102527,-0.05133 0.09398,2.22e-4 0.240084,0.01527 0.324669,0.03345 0.08459,0.01819 0.595937,0.0419 1.136338,0.05272 l 0.982546,0.01968 -9e-6,-0.985499 -9e-6,-0.985498 -0.606608,-0.0033 c -0.846008,-0.0048 -1.63293,-0.121981 -1.96868,-0.293274 l -0.135854,-0.06931 0.02235,2.318968 c 0.01231,1.275432 0.038,2.918749 0.05712,3.651815 0.01912,0.733065 0.04996,2.21714 0.06852,3.297941 0.01856,1.080803 0.04323,1.999329 0.05482,2.041174 l 0.02108,0.07608 1.081301,-0.0078 1.081301,-0.0078 z m -1.34298,-2.716957 c 0,-1.268767 0.0043,-1.787809 0.0095,-1.153425 0.0052,0.634384 0.0052,1.672466 0,2.306849 -0.0052,0.634384 -0.0095,0.115345 -0.0095,-1.153424 z M 15.659878,29.998741 v -1.038589 l -0.487001,0.486984 c -0.652167,0.652146 -0.654501,0.653266 -1.771743,0.850348 -0.477576,0.08424 -1.175898,0.194495 -1.551829,0.245004 -0.725394,0.09745 -0.841403,0.121439 -0.702652,0.145238 0.04586,0.0079 0.391889,-0.02533 0.76895,-0.07377 1.008444,-0.129548 1.982394,-0.226118 2.279671,-0.226037 0.162976,4.4e-5 0.342969,0.02531 0.478457,0.06719 0.213829,0.06608 0.3063,0.118632 0.746919,0.424392 0.122179,0.08479 0.225986,0.154979 0.230685,0.155986 0.0047,9.94e-4 0.0085,-0.465532 0.0085,-1.036756 z m -6.6642322,0.901885 c 0.036495,-0.02358 -0.00283,-0.03312 -0.1367021,-0.03312 -0.1033767,0 -0.2110346,0.0149 -0.2392292,0.03312 -0.036507,0.02358 0.00283,0.03312 0.1367033,0.03312 0.1033767,0 0.2110333,-0.0149 0.239228,-0.03312 z m 0.6151593,-0.06835 c 0,-0.03979 -0.2174716,-0.03979 -0.341754,0 -0.063496,0.02034 -0.030584,0.02825 0.1281571,0.03077 0.1218827,0.002 0.2135969,-0.01133 0.2135969,-0.03077 z m 0.5047019,-0.0586 c -0.05136,-0.0079 -0.1436282,-0.008 -0.2050534,-3.48e-4 -0.061428,0.0076 -0.019417,0.01399 0.093366,0.01418 0.112784,1.91e-4 0.163036,-0.006 0.111676,-0.01383 z M 5.6464428,30.661897 c 0,-0.01853 -0.096125,-0.08215 -0.213598,-0.141379 C 4.6015732,30.101382 3.9692997,29.354196 3.6144558,28.371635 3.4212111,27.836543 3.3635012,27.126787 3.4743678,26.64874 c 0.1800825,-0.776501 0.7928328,-1.941416 1.3379654,-2.543642 0.3446979,-0.380799 0.7618124,-0.63826 1.2266556,-0.757147 0.2148281,-0.05494 0.9867108,-0.169105 2.4269361,-0.358944 1.4234827,-0.187633 5.4483641,-0.641588 6.5533321,-0.739132 0.36111,-0.03188 0.51026,-0.03222 0.643398,-0.0015 0.09532,0.022 0.193409,0.04 0.217969,0.04 0.04663,0 0.462766,-0.559438 0.462766,-0.622127 0,-0.05245 -0.42229,-0.543439 -0.772934,-0.898685 -0.331594,-0.335946 -0.580492,-0.485603 -0.860449,-0.517373 -0.181659,-0.02061 -1.852005,0.125336 -2.604386,0.227566 -0.27255,0.03704 -0.818505,0.09872 -1.213231,0.1371 -1.2488715,0.121402 -3.7928123,0.393857 -4.6440202,0.497365 -0.9841217,0.119666 -1.3800278,0.308577 -1.8742612,0.894309 -0.8255932,0.978436 -1.4789936,2.061895 -1.6291318,2.701401 -0.3047692,1.298149 0.3866166,3.679222 1.5028593,5.17572 0.3763849,0.504603 0.6973157,0.715312 1.1845433,0.777718 0.1083387,0.01388 0.20082,0.02725 0.2055185,0.02971 0.00468,0.0025 0.0085,-0.01071 0.0085,-0.02921 z m 5.9988682,-9.089474 c -0.04346,-0.07033 0.166798,-0.117856 1.072672,-0.242462 1.001399,-0.137751 1.267293,-0.189707 1.267293,-0.247625 0,-0.01979 -0.06872,-0.101826 -0.152712,-0.182302 -0.211555,-0.202707 -0.338049,-0.230788 -0.832417,-0.1848 -0.538794,0.05012 -0.683899,0.08735 -0.877774,0.225185 -0.170153,0.120972 -0.241848,0.131686 -0.141853,0.02119 0.03121,-0.03449 0.05675,-0.0791 0.05675,-0.09913 0,-0.05544 -0.215948,0.0034 -0.342218,0.0934 -0.108154,0.07701 -0.108179,0.0771 -0.03999,0.14529 0.08695,0.08695 0.167632,0.08515 1.09989,-0.02449 0.824746,-0.09701 0.854389,-0.09898 0.854389,-0.05656 0,0.108203 -1.672878,0.346571 -2.042896,0.291084 -0.260601,-0.03908 -0.300071,-0.263264 -0.07567,-0.429775 0.267207,-0.198271 1.593262,-0.416121 2.061874,-0.338731 0.284075,0.04691 0.389371,0.09827 0.530075,0.25852 0.211064,0.240389 0.09765,0.507212 -0.253157,0.595545 -0.18448,0.04644 -1.727395,0.208066 -1.986796,0.208108 -0.09758,1.4e-5 -0.186433,-0.01458 -0.197468,-0.03243 z m -3.5553174,9.021273 c 0.9451892,-0.06621 1.4205658,-0.108437 1.9309194,-0.171506 0.291346,-0.036 0.821922,-0.09773 1.179056,-0.137158 1.337091,-0.147629 2.796723,-0.394261 3.050649,-0.515463 0.285636,-0.136337 1.342655,-1.257935 1.407777,-1.493785 0.02261,-0.08189 0.02278,-0.917573 4.85e-4,-2.485963 -0.02905,-2.043564 -0.02671,-2.40142 0.01726,-2.650066 0.06537,-0.369626 0.06465,-0.395822 -0.01133,-0.415689 -0.264077,-0.06906 -7.2797987,0.70757 -8.9881227,0.99497 -0.7331719,0.123344 -1.0452622,0.259829 -1.4028157,0.613487 -0.6734928,0.666155 -1.4737395,2.3634 -1.4727137,3.123483 6.959e-4,0.515649 0.2848317,1.330519 0.6588964,1.88964 0.3081553,0.460605 0.9554924,0.995254 1.4525269,1.19967 0.1851793,0.07615 0.2348103,0.08027 0.9641787,0.0799 0.4229224,-2.17e-4 0.9688762,-0.01439 1.2132312,-0.03152 z m 0.2050544,-0.5137 c 0.093982,-0.01762 0.6783833,-0.102108 1.2986696,-0.187733 0.6202864,-0.08563 1.3948004,-0.193663 1.7211414,-0.240081 0.326344,-0.04642 0.609573,-0.08439 0.629401,-0.08439 0.09898,0 -0.04057,0.03881 -0.539237,0.149914 -1.023347,0.22803 -1.8986634,0.346575 -2.7853085,0.377215 -0.3647515,0.01261 -0.4504436,0.0086 -0.3246665,-0.01492 z m 24.78956,-0.982123 c 0.148997,-0.555539 0.16953,-0.817465 0.191644,-2.444734 0.0117,-0.860593 0.0286,-1.583846 0.03758,-1.607231 0.009,-0.02338 -0.0033,-0.06784 -0.02716,-0.09882 -0.03957,-0.05124 -0.05489,-0.05164 -0.170699,-0.0043 -0.104521,0.04274 -0.131362,0.07406 -0.150402,0.175561 -0.01276,0.06794 -0.0095,0.647027 0.0074,1.286843 0.03812,1.450832 0.03849,1.857213 0.0022,2.470517 -0.03305,0.558582 7.94e-4,0.627271 0.109447,0.222142 z m 0.167136,-4.468131 c 0.02349,-0.0085 0.04271,-0.07061 0.04271,-0.138254 0,-0.111343 -0.0073,-0.120886 -0.07689,-0.100779 -0.122991,0.03552 -0.246912,0.137303 -0.258102,0.211997 -0.0091,0.06073 0.0052,0.06736 0.119617,0.05563 0.07147,-0.0074 0.149168,-0.02019 0.172663,-0.02859 z m -0.0053,-0.431068 c 0.06054,-0.06687 0.06569,-0.143532 0.07352,-1.093618 0.0091,-1.110902 0.0096,-1.108362 -0.174302,-0.937907 -0.101801,0.09435 -0.100348,0.0873 -0.109373,0.531353 -0.0037,0.178567 -0.02576,0.584971 -0.04918,0.903119 -0.04024,0.546633 -0.03917,0.580941 0.01931,0.623704 0.08833,0.06459 0.165139,0.05607 0.240034,-0.02665 z m 2.854553,-1.815492 c 0.0566,-0.105765 0.09713,-0.29984 0.06262,-0.29984 -0.01571,0 -0.03806,0.01538 -0.04968,0.03418 -0.03706,0.05995 -0.20114,0.03706 -0.489989,-0.06836 -0.15451,-0.05639 -0.289245,-0.102527 -0.29941,-0.102527 -0.01022,0 -0.01357,0.0346 -0.0075,0.07689 0.0089,0.06249 0.05677,0.09152 0.255653,0.154939 0.148023,0.04721 0.283074,0.116367 0.341757,0.175028 0.121267,0.121218 0.136335,0.123609 0.186604,0.02967 z M 30.15432,20.049458 c 0.01686,-1.475184 0.03214,-1.906698 0.07617,-2.152621 0.05065,-0.282846 0.05065,-0.310897 9e-6,-0.348835 -0.07388,-0.05534 -0.233806,0.02554 -0.264681,0.133869 -0.125425,0.440066 -0.09534,3.992481 0.03562,4.204357 0.01022,0.01651 0.04404,0.02513 0.07518,0.01915 0.05157,-0.01 0.05851,-0.175647 0.07772,-1.855917 z m 6.408485,-0.800085 c 0.766213,-2.407684 0.862529,-2.761422 0.767819,-2.819957 -0.01691,-0.01047 -0.07529,0.03177 -0.129763,0.0938 -0.07218,0.08221 -0.139222,0.246676 -0.247239,0.606505 -0.08151,0.271543 -0.30963,1.016601 -0.506925,1.655684 -0.338257,1.095686 -0.69624,2.313621 -0.794787,2.704031 -0.04906,0.194375 -0.0284,0.297092 0.0564,0.280311 0.04188,-0.0082 0.256581,-0.641543 0.854492,-2.520369 z m -18.346593,2.211973 c 0.02967,-0.02967 0.04101,-0.273767 0.04101,-0.883365 0,-0.463295 0.01665,-1.316875 0.037,-1.896845 0.04229,-1.205383 0.05633,-1.142979 -0.25713,-1.143345 -0.09509,-1.09e-4 -0.32539,-0.02318 -0.51178,-0.05128 -0.18639,-0.02809 -0.344229,-0.04574 -0.350752,-0.03922 -0.02328,0.02328 -0.07625,1.085097 -0.116662,2.338731 -0.0301,0.933844 -0.03095,1.296206 -0.0032,1.357086 0.05195,0.114014 0.251773,0.208322 0.573201,0.270529 0.502998,0.09734 0.536014,0.100027 0.588335,0.0477 z m 0.550315,-0.04802 c 0.04063,-0.01301 0.04504,-0.281785 0.02897,-1.764255 -0.01046,-0.961895 -0.0069,-1.726581 0.008,-1.699305 0.08009,0.147671 0.16922,1.464119 0.172796,2.552219 0.0016,0.47421 0.01554,0.870053 0.03107,0.879652 0.04794,0.02962 0.408894,-0.05663 0.451438,-0.107895 0.04857,-0.05852 -0.107637,-3.783667 -0.160854,-3.83604 -0.02018,-0.01986 -0.110149,-0.01359 -0.237534,0.01655 -0.112784,0.02667 -0.261723,0.04875 -0.330987,0.04903 -0.06926,2.95e-4 -0.165381,0.01553 -0.213596,0.03386 l -0.08767,0.03333 v 1.894794 c 0,1.042138 0.0095,1.919483 0.02105,1.949657 0.02009,0.05237 0.150954,0.0517 0.317374,-0.0016 z M 30.178486,16.8972 c 0.01682,-0.0329 0.04851,-0.344318 0.07045,-0.692055 0.06271,-0.994474 0.06661,-1.035805 0.108955,-1.155865 0.04954,-0.140484 0.138696,-0.176824 0.435435,-0.177504 0.204518,-4.69e-4 0.356439,-0.03881 0.312909,-0.07896 -0.02492,-0.023 -0.644532,-0.155653 -0.83989,-0.179823 -0.162878,-0.02014 -0.175876,-0.01624 -0.195842,0.05905 -0.01182,0.04435 -0.03183,0.552856 -0.0446,1.130012 -0.01837,0.830433 -0.01407,1.060386 0.0206,1.102161 0.05702,0.0687 0.09427,0.06672 0.131965,-0.007 z m 8.150749,-0.500451 c 0.01938,-0.05051 -0.09032,-0.167211 -0.190385,-0.202526 -0.08993,-0.03174 -0.07285,-0.117007 0.07997,-0.399184 0.170307,-0.314467 0.224479,-0.377776 0.255059,-0.298082 0.01795,0.04679 -0.02507,0.180014 -0.216712,0.671075 -0.04215,0.107994 0.07017,-0.01353 0.228455,-0.247191 0.266183,-0.39293 0.513352,-0.686562 0.614337,-0.72982 0.137082,-0.05872 0.348365,-0.522201 0.371941,-0.815909 0.01928,-0.240279 0.02283,-0.236389 -0.201872,-0.2219 -0.07613,0.0049 -0.09725,-0.0143 -0.132217,-0.12027 -0.02417,-0.07324 -0.03271,-0.191051 -0.02039,-0.280997 l 0.02123,-0.154891 -0.07308,0.06517 -0.07308,0.06517 0.01582,-0.111072 c 0.01979,-0.138904 -0.02582,-0.142816 -0.102096,-0.0087 -0.07362,0.129366 -0.11356,0.13166 -0.08823,0.005 0.01586,-0.07932 0.006,-0.101198 -0.05212,-0.116416 -0.09508,-0.02486 -0.09241,-0.111983 0.01598,-0.519206 0.127528,-0.479135 0.08671,-0.506824 -0.07775,-0.05274 -0.115813,0.319771 -0.142737,0.370268 -0.144468,0.270949 -0.0012,-0.06714 0.02267,-0.194849 0.05298,-0.283801 0.08158,-0.239422 0.03315,-0.229885 -0.09109,0.01794 -0.170039,0.339179 -0.189856,0.326459 -0.102429,-0.06575 0.03446,-0.154598 0.05074,-0.281089 0.03617,-0.281089 -0.01457,0 -0.03515,0.02691 -0.04573,0.0598 -0.01059,0.0329 -0.06534,0.18284 -0.121685,0.333212 -0.08429,0.224955 -0.102786,0.253722 -0.104362,0.162334 -0.0033,-0.194117 -0.06522,-0.120503 -0.157993,0.187966 -0.176398,0.586511 -0.231379,0.742712 -0.24601,0.698916 -0.0081,-0.02442 0.01661,-0.178212 0.05504,-0.341757 0.120344,-0.51216 0.132303,-0.691166 0.03071,-0.459686 -0.03741,0.08523 -0.0429,0.06692 -0.05897,-0.19651 -0.01601,-0.262479 -0.02139,-0.280559 -0.05584,-0.187494 -0.02097,0.05665 -0.100274,0.191715 -0.17623,0.300146 l -0.138103,0.197147 -0.02328,-0.137811 c -0.03883,-0.229862 -0.08563,-0.154664 -0.08563,0.137609 0,0.174912 -0.01247,0.267714 -0.03418,0.2543 -0.0188,-0.01157 -0.03418,-0.110198 -0.03418,-0.219059 0,-0.231132 -0.06107,-0.445448 -0.106491,-0.373763 -0.01603,0.02532 -0.0294,0.07897 -0.02969,0.119248 -2.88e-4,0.04029 -0.02359,0.08209 -0.05179,0.09291 -0.04292,0.01647 -0.05143,0.121279 -0.0523,0.644449 -6.11e-4,0.366847 -0.01319,0.603612 -0.03047,0.573513 -0.02544,-0.0443 -0.149215,-0.740859 -0.185229,-1.042356 -0.0068,-0.05639 -0.01454,0.03944 -0.01737,0.212956 -0.0028,0.178927 0.03278,0.593124 0.08243,0.956917 0.04816,0.352788 0.10813,0.815974 0.133262,1.029302 0.02514,0.213329 0.05878,0.400656 0.07478,0.416284 0.0412,0.04026 0.553214,0.186821 0.575349,0.164687 0.0101,-0.0101 0.09484,-0.265961 0.188352,-0.568617 0.209806,-0.679055 0.489443,-1.461323 0.505336,-1.413645 0.0064,0.01949 -0.04931,0.255492 -0.124028,0.524435 -0.234074,0.842589 -0.366097,1.458919 -0.326543,1.524409 0.03649,0.06041 0.305448,0.211985 0.376161,0.211985 0.0222,0 0.0486,-0.02142 0.05864,-0.04763 z m -0.915259,-0.785648 c 0.0095,-0.110568 0.03268,-0.225906 0.05141,-0.256317 0.0368,-0.05975 0.01681,0.113313 -0.03902,0.337728 -0.02338,0.09401 -0.02603,0.07658 -0.01239,-0.08141 z m -6.840157,-1.476372 c 0.01145,-0.02972 0.021,-0.187366 0.02134,-0.3503 6.41e-4,-0.319585 0.04601,-0.814225 0.106726,-1.163381 0.04484,-0.257921 0.158534,-0.407551 0.337461,-0.444144 0.08688,-0.01777 0.119124,-0.04236 0.119124,-0.09086 0,-0.09801 -0.156012,-0.163307 -0.278732,-0.11665 -0.326178,0.124013 -0.408636,0.409795 -0.440752,1.527558 -0.0143,0.497572 -0.0087,0.640768 0.02595,0.662746 0.0641,0.04066 0.08558,0.03573 0.108893,-0.02497 z M 17.969217,12.810511 c 0.0096,-0.02498 0.01295,-0.182618 0.0074,-0.3503 l -0.01,-0.304875 -0.09859,0.145344 c -0.101579,0.149759 -0.162635,0.375315 -0.132635,0.490031 0.02008,0.07683 0.205789,0.09257 0.233713,0.0198 z m 0.774945,-0.03129 c 0.02561,-0.07683 -0.04644,-0.285889 -0.133547,-0.387491 -0.04701,-0.05483 -0.07763,-0.07433 -0.06804,-0.04334 0.0096,0.03099 0.03588,0.150179 0.05845,0.264861 0.03828,0.194579 0.107034,0.274299 0.143139,0.165976 z m 22.380152,-0.332095 c 0.04882,-0.162957 -0.03848,-0.64395 -0.175182,-0.965204 -0.196354,-0.461426 -0.563678,-0.887922 -0.920431,-1.068702 -0.805144,-0.407997 -2.017443,-0.106565 -2.77546,0.690115 -0.221378,0.232669 -0.472377,0.606257 -0.597681,0.889594 -0.068,0.153772 -0.07953,0.215844 -0.05527,0.297937 l 0.03062,0.103697 0.04321,-0.128158 c 0.04167,-0.123586 0.10462,-0.173485 0.107797,-0.08544 8.48e-4,0.02349 0.02144,-0.0033 0.04577,-0.0598 0.04308,-0.09989 0.04485,-0.100533 0.06927,-0.02513 0.03429,0.105925 0.08848,0.06238 0.08848,-0.07108 0,-0.196363 0.05754,-0.316895 0.236857,-0.496219 0.09707,-0.09708 0.183461,-0.176505 0.191965,-0.176505 0.0085,0 0.01546,0.04522 0.01546,0.100508 0,0.05527 0.01538,0.110013 0.03418,0.121636 0.0188,0.01157 0.03418,-0.0049 0.03418,-0.03674 0,-0.09005 0.07612,-0.322105 0.105667,-0.322105 0.01458,0 0.03136,0.04229 0.03732,0.09398 0.009,0.07742 0.02548,0.05333 0.09403,-0.136702 0.07822,-0.216841 0.138924,-0.295241 0.138924,-0.179422 0,0.0282 0.01538,0.05127 0.03418,0.05127 0.0188,0 0.03418,-0.02783 0.03418,-0.06182 0,-0.03399 0.02258,-0.09167 0.05017,-0.128158 0.04707,-0.06223 0.05025,-0.05852 0.05127,0.0598 0.0015,0.177735 0.04931,0.186321 0.09504,0.01708 0.02128,-0.07876 0.06219,-0.173976 0.09089,-0.211569 0.05022,-0.06575 0.05224,-0.06421 0.05329,0.04071 0.0015,0.151566 0.04905,0.165668 0.0984,0.02918 0.02275,-0.06294 0.06548,-0.134445 0.09494,-0.158896 0.04682,-0.03886 0.05224,-0.03177 0.04298,0.05645 -0.01473,0.140428 0.04142,0.157632 0.08636,0.02646 0.0585,-0.170693 0.100569,-0.181545 0.07575,-0.01954 -0.01219,0.07988 -0.01059,0.144534 0.0038,0.143663 0.01432,-8.7e-4 0.07216,-0.06167 0.128562,-0.13512 0.05639,-0.07344 0.115418,-0.134248 0.131162,-0.13512 0.01575,-8.69e-4 0.01777,0.06378 0.0044,0.143665 l -0.02417,0.145245 0.155014,-0.209816 c 0.212195,-0.287214 0.229071,-0.292048 0.229071,-0.0656 0,0.104484 0.01267,0.189982 0.02816,0.189982 0.01549,0 0.05853,-0.05767 0.09564,-0.128158 0.07662,-0.145517 0.127459,-0.163684 0.143426,-0.05127 0.01249,0.08791 0.05783,0.101296 0.08688,0.02562 0.04371,-0.113891 0.07778,-0.0401 0.06311,0.136703 -0.0085,0.103376 -0.0062,0.187965 0.0053,0.187965 0.01145,0 0.04745,-0.05767 0.07995,-0.128158 l 0.05908,-0.128158 0.01887,0.239229 0.01888,0.239229 0.06544,-0.151572 0.06544,-0.151572 0.03943,0.117068 c 0.03866,0.11484 0.0402,0.115616 0.0804,0.0405 0.05815,-0.108647 0.09541,-0.0954 0.14376,0.05109 0.04002,0.121242 0.04385,0.123821 0.07623,0.05127 0.05176,-0.115997 0.09788,-0.09129 0.07338,0.0393 -0.01308,0.0697 -0.0069,0.124853 0.01554,0.13872 0.02049,0.01266 0.03724,0.0068 0.03724,-0.01317 0,-0.01991 0.01231,-0.0362 0.02726,-0.0362 0.01498,0 0.02081,0.101172 0.01294,0.224823 -0.01691,0.265383 0.02253,0.333724 0.135001,0.23403 l 0.07427,-0.06584 -0.02624,0.102527 c -0.04138,0.161718 -0.03875,0.205792 0.0117,0.195114 0.03292,-0.0069 0.03927,0.0084 0.02126,0.05127 -0.03093,0.0738 -0.0803,0.566764 -0.05919,0.590927 0.0082,0.0095 0.06501,-0.04058 0.126216,-0.111072 0.06121,-0.07049 0.123164,-0.12816 0.13769,-0.12816 0.01453,0 0.01577,0.08016 0.0028,0.178109 l -0.02363,0.178108 0.07077,-0.06405 c 0.03893,-0.03523 0.08754,-0.119987 0.108019,-0.188334 z M 25.921088,38.975337 c 0.07049,-0.0074 0.18583,-0.0074 0.256317,0 0.07049,0.0074 0.01282,0.01341 -0.128158,0.01341 -0.140975,0 -0.198646,-0.006 -0.128159,-0.01341 z M 24.027175,19.41369 c -0.260318,-0.07411 -0.29874,-0.223625 -0.262441,-1.021314 0.01326,-0.291348 0.04116,-1.158451 0.06199,-1.926897 0.02085,-0.768446 0.05229,-1.545087 0.06989,-1.725865 0.01759,-0.18078 0.03238,-0.401741 0.03286,-0.491025 l 8.82e-4,-0.162333 H 23.80967 c -0.06638,0 -0.12724,0.01922 -0.135249,0.04271 -0.0207,0.06071 -0.154629,4.115148 -0.15495,4.690594 -1.46e-4,0.263153 -0.01377,0.499764 -0.03024,0.525803 -0.04776,0.07541 -0.204636,0.01751 -0.246533,-0.09103 -0.06467,-0.167511 0.138792,-5.247462 0.220973,-5.517019 0.177231,-0.581333 1.474498,-2.587882 1.693088,-2.618791 0.06208,-0.0087 0.133986,0.0401 0.301613,0.205053 0.714273,0.70284 1.10114,1.476105 1.203178,2.404887 0.06362,0.579111 0.276266,4.65876 0.276266,5.30023 0,0.349367 -0.0012,0.354752 -0.08014,0.354752 -0.204549,0 -0.22584,-0.146459 -0.295619,-2.033444 -0.04974,-1.345091 -0.128904,-2.918199 -0.172377,-3.42534 -0.03973,-0.463544 -0.115443,-0.792016 -0.267422,-1.16022 -0.239498,-0.58024 -0.808282,-1.355249 -0.957902,-1.305209 -0.02067,0.0069 0.07048,0.135605 0.20256,0.285978 0.252541,0.287509 0.507244,0.74719 0.581928,1.050246 0.02192,0.08892 0.03377,0.269115 0.02635,0.400418 -0.01182,0.208473 -0.02635,0.252231 -0.114963,0.345224 -0.219889,0.230765 -0.939357,0.491337 -1.476942,0.534912 -0.136222,0.01108 -0.263509,0.03915 -0.282861,0.06246 -0.02358,0.02842 -0.03206,0.818485 -0.02572,2.395908 0.01047,2.611123 -0.006,2.437995 0.246147,2.579724 0.114667,0.06446 0.203609,0.08009 0.52555,0.09241 0.213138,0.0081 0.374471,0.02789 0.358519,0.04385 -0.134686,0.134686 -0.903691,0.241321 -1.177737,0.163311 z m 0.486926,-5.597509 c 0.632534,-0.115505 1.051475,-0.316808 1.172508,-0.563408 0.05807,-0.118325 0.06044,-0.154566 0.02359,-0.360761 -0.05277,-0.295284 -0.226006,-0.691952 -0.422378,-0.967144 -0.24919,-0.349208 -0.227851,-0.349867 -0.474497,0.01465 -0.538025,0.795153 -1.121099,1.782081 -1.121899,1.898959 -4.44e-4,0.06486 0.40557,0.05386 0.822675,-0.0223 z m 1.691636,2.759695 c -0.01524,-0.275408 -0.02039,-0.521472 -0.01145,-0.546809 0.02119,-0.06001 0.0715,0.850285 0.05318,0.962111 -0.0078,0.047 -0.02647,-0.139895 -0.04173,-0.415302 z"
       id="path1" /></g></svg>
