<?xml version="1.0" encoding="UTF-8" standalone="no"?>
<!-- Created with Inkscape (http://www.inkscape.org/) -->

<svg
   width="50mm"
   height="50mm"
   viewBox="0 0 50 50"
   version="1.1"
   id="svg1"
   xml:space="preserve"
   inkscape:version="1.3.2 (091e20e, 2023-11-25)"
   sodipodi:docname="electronik.svg"
   xmlns:inkscape="http://www.inkscape.org/namespaces/inkscape"
   xmlns:sodipodi="http://sodipodi.sourceforge.net/DTD/sodipodi-0.dtd"
   xmlns="http://www.w3.org/2000/svg"
   xmlns:svg="http://www.w3.org/2000/svg"><sodipodi:namedview
     id="namedview1"
     pagecolor="#ffffff"
     bordercolor="#00a6f4"
     borderopacity="0.25"
     inkscape:showpageshadow="2"
     inkscape:pageopacity="0.0"
     inkscape:pagecheckerboard="0"
     inkscape:deskcolor="#d1d1d1"
     inkscape:document-units="mm"
     inkscape:zoom="1.8807956"
     inkscape:cx="60.346803"
     inkscape:cy="73.10736"
     inkscape:window-width="1656"
     inkscape:window-height="828"
     inkscape:window-x="0"
     inkscape:window-y="25"
     inkscape:window-maximized="0"
     inkscape:current-layer="layer1" /><defs
     id="defs1" /><g
     inkscape:label="Layer 1"
     inkscape:groupmode="layer"
     id="layer1"><path
       style="fill:#00a6f4;stroke-width:0.562031"
       d="m 12.848745,45.415581 c -1.818135,-0.40795 -2.571152,-2.677143 -1.349946,-4.068017 0.240951,-0.274428 0.63915,-0.582241 0.884888,-0.68403 0.421706,-0.174679 0.446809,-0.232074 0.447027,-1.022075 2.88e-4,-1.0411 0.348998,-1.768306 1.040697,-2.170287 0.467809,-0.271865 0.82517,-0.307335 3.532355,-0.350606 2.788373,-0.04457 3.023208,-0.06929 3.164367,-0.333048 0.221369,-0.413632 0.930959,-0.73409 1.625496,-0.73409 0.475362,0 0.716125,0.103172 1.127818,0.48329 0.633151,0.584585 0.792512,1.295351 0.465767,2.077366 -0.567885,1.359136 -2.535285,1.516662 -3.276244,0.262316 l -0.262105,-0.443706 h -2.882887 c -2.810521,0 -2.888698,0.0083 -3.114375,0.330491 -0.129051,0.184245 -0.231488,0.636893 -0.231488,1.02289 0,0.623882 0.04269,0.710069 0.431423,0.871091 0.807241,0.334369 1.505698,1.426664 1.498462,2.343392 -0.01196,1.51506 -1.600166,2.751836 -3.101255,2.415023 z m 1.401185,-1.548439 c 0.641324,-0.641322 0.450536,-1.670855 -0.372836,-2.011907 -0.59391,-0.246006 -1.270894,0.01973 -1.581749,0.620842 -0.623857,1.206404 0.990393,2.355256 1.954585,1.391065 z m 18.754255,1.522911 c -2.108323,-0.563975 -2.423094,-3.611276 -0.481054,-4.657131 0.502534,-0.270634 0.531086,-0.326916 0.531086,-1.047018 0,-1.163364 -0.168761,-1.25321 -2.353796,-1.25321 -1.395049,0 -1.809918,0.04474 -1.809918,0.195233 0,0.375352 -0.845097,1.016376 -1.446243,1.097005 -1.807018,0.242375 -2.818562,-1.947532 -1.470316,-3.183105 0.419596,-0.384536 0.661462,-0.488399 1.137316,-0.488399 0.692304,0 1.40397,0.320172 1.623522,0.730409 0.13365,0.249721 0.371451,0.287068 2.123441,0.333492 1.605294,0.04255 2.05924,0.104442 2.436071,0.332216 0.656699,0.39694 0.946009,0.974061 1.050789,2.096149 0.087,0.931695 0.114143,0.986538 0.603019,1.218528 1.634093,0.775427 1.67031,3.435074 0.05891,4.326449 -0.716055,0.396096 -1.309604,0.484819 -2.002829,0.299382 z m 1.618181,-1.522911 c 0.757286,-0.75728 0.238796,-2.162964 -0.797819,-2.162964 -0.563913,0 -1.168703,0.48505 -1.289276,1.034018 -0.263165,1.198171 1.217145,1.998896 2.087095,1.128946 z M 5.6867513,43.294905 c -1.1121112,-0.588104 -1.612891,-1.969872 -1.1314849,-3.122041 0.2186934,-0.523408 1.1737878,-1.442766 1.4988478,-1.442766 0.1618063,0 0.2145236,-0.588631 0.2630269,-2.936902 0.064581,-3.126626 0.1779242,-3.686335 0.9068677,-4.478253 0.6048682,-0.657121 1.114853,-0.763558 3.6585272,-0.763558 2.233002,0 2.379552,-0.01742 2.467185,-0.293543 0.245081,-0.772185 1.733476,-1.213031 2.574969,-0.762676 0.860015,0.460264 1.164606,1.769784 0.619579,2.663733 -0.667075,1.094133 -2.048124,1.164246 -3.010268,0.152822 l -0.563161,-0.592004 -2.211242,0.04783 c -3.1339052,0.06778 -3.13158,0.06459 -3.1329216,4.305024 l -8.431e-4,2.621451 0.4551644,0.188539 c 0.7164024,0.296741 1.2214958,1.077761 1.2986446,2.008073 0.1673969,2.018589 -1.8896703,3.357846 -3.692905,2.404277 z m 1.6240159,-1.012032 c 1.2941857,-0.451159 0.9644014,-2.363142 -0.4076008,-2.363142 -1.4211369,0 -1.6742744,1.927242 -0.318247,2.422948 0.1226812,0.04485 0.2297997,0.08682 0.2380419,0.09328 0.00824,0.0065 0.227755,-0.06244 0.4878059,-0.153086 z M 41.07917,43.302745 C 39.364667,42.43737 39.30716,39.842817 40.98276,38.953157 l 0.560148,-0.29741 -0.04344,-3.008206 -0.04344,-3.008207 -0.411901,-0.411985 c -0.408203,-0.408271 -0.43192,-0.412413 -2.635333,-0.459809 l -2.223421,-0.04783 -0.56316,0.592004 c -0.705023,0.741138 -1.403947,0.910563 -2.19931,0.533137 -1.815151,-0.861346 -1.24179,-3.532671 0.758241,-3.532671 0.717618,0 1.33697,0.341006 1.577277,0.868427 0.161809,0.355124 0.174583,0.356928 2.409667,0.340045 2.473462,-0.01866 3.093196,0.105296 3.701623,0.740509 0.782981,0.817451 0.897647,1.352824 0.968142,4.520209 0.06426,2.887033 0.06947,2.926173 0.400672,3.009303 0.184559,0.04631 0.573468,0.347554 0.864245,0.669406 0.931319,1.030865 0.896006,2.452494 -0.08442,3.398149 -0.883978,0.852629 -1.843168,0.997694 -2.939155,0.44451 z m 2.049736,-1.344175 c 0.753127,-0.689319 0.212751,-2.038839 -0.816394,-2.038839 -0.702673,0 -1.028628,0.212903 -1.221725,0.797994 -0.216365,0.655592 0.04311,1.254486 0.659003,1.521169 0.523133,0.22651 0.911653,0.147539 1.379116,-0.280324 z M 20.121399,34.330922 c -0.679635,-0.294785 -1.016792,-0.613141 -1.358583,-1.282823 -0.263025,-0.515354 -0.281369,-0.956396 -0.278318,-6.691676 0.0037,-7.009366 0.0039,-7.010878 1.201008,-7.803043 l 0.632805,-0.418775 h 4.334133 4.334133 l 0.618194,0.409102 c 0.341012,0.225673 0.754914,0.677101 0.923124,1.006811 0.295454,0.579144 0.303631,0.795436 0.263165,6.963487 l -0.04176,6.365771 -0.428851,0.562087 c -0.80548,1.055729 -1.123595,1.118334 -5.668012,1.115439 -3.243124,-0.0022 -4.114213,-0.04558 -4.531044,-0.22638 z m 22.24989,-5.627336 c -0.65816,-0.240251 -1.222546,-0.724896 -1.528065,-1.312162 l -0.212746,-0.408933 h -2.365423 c -2.261117,0 -2.369729,0.01355 -2.463077,0.307667 -0.235783,0.742892 -1.588573,1.104553 -2.455224,0.656389 -1.182299,-0.611388 -1.175864,-2.547836 0.01079,-3.248811 0.798381,-0.471617 2.099616,-0.140306 2.517784,0.641052 0.153912,0.287591 0.295864,0.305368 2.438195,0.305368 h 2.274763 l 0.359497,-0.552864 c 0.537807,-0.827079 1.229599,-1.231583 2.106288,-1.231583 0.969283,0 1.685237,0.358019 2.164649,1.082459 1.287061,1.944884 -0.685497,4.550604 -2.847432,3.761418 z m 1.619424,-1.491281 c 0.762613,-0.762613 0.238475,-2.162963 -0.809583,-2.162963 -0.699492,0 -1.268199,0.582129 -1.248472,1.277939 0.03136,1.107234 1.293215,1.649863 2.058055,0.885024 z M 9.2997177,28.607304 C 9.0344331,28.527119 8.5928946,28.237033 8.3185214,27.962661 6.747933,26.392072 7.8583712,23.711007 10.079461,23.711007 c 0.917035,0 1.597159,0.390695 2.143945,1.231583 0.441381,0.678787 1.0396,0.762203 1.346996,0.18783 0.232329,-0.434112 0.991264,-0.8246 1.602651,-0.8246 0.661123,0 1.415438,0.581477 1.658322,1.27835 0.269057,0.771966 0.12991,1.312263 -0.500244,1.942423 -0.411319,0.411316 -0.608161,0.496728 -1.14369,0.496267 -0.738669,-5.62e-4 -1.537677,-0.418702 -1.684534,-0.881404 -0.06703,-0.211206 -0.223778,-0.307667 -0.499925,-0.307667 -0.310163,0 -0.469019,0.123933 -0.693764,0.541258 -0.545937,1.013745 -1.899188,1.56784 -3.0095003,1.232257 z m 1.6090533,-1.613376 c 0.559923,-0.559923 0.57518,-1.168709 0.04264,-1.701255 -0.812618,-0.812617 -2.1359287,-0.21492 -2.1359287,0.964737 0,0.43776 0.791538,1.171193 1.2639827,1.171193 0.237906,0 0.567269,-0.172634 0.82931,-0.434675 z M 6.3893704,23.715003 c -1.1666663,-0.368316 -2.019188,-1.655497 -1.8375993,-2.774494 0.1222928,-0.753604 0.7186938,-1.597504 1.3360084,-1.89044 0.6420289,-0.30466 1.7620205,-0.318447 2.3225549,-0.02855 0.4948106,0.255875 1.19996,1.052183 1.19996,1.355083 0,0.172555 0.3689351,0.21165 1.9974816,0.21165 1.849931,0 2.004281,-0.02141 2.089532,-0.290025 0.131958,-0.415767 0.990601,-0.899608 1.596471,-0.899608 0.735775,0 1.483872,0.550374 1.737596,1.278349 0.269057,0.771966 0.12991,1.312263 -0.500244,1.942423 -0.411319,0.411318 -0.608161,0.49673 -1.14369,0.496269 -0.738669,-5.63e-4 -1.537677,-0.418704 -1.684534,-0.881407 -0.09209,-0.29016 -0.206906,-0.307667 -2.017757,-0.307667 H 9.5650427 l -0.2958079,0.57983 c -0.4976983,0.975569 -1.8372795,1.537762 -2.8798644,1.208615 z m 1.56272,-1.6457 C 8.330084,21.691309 8.3891517,21.539015 8.3125706,21.139901 8.2082622,20.596288 7.6043222,19.993403 7.1640581,19.993403 c -0.4140321,0 -1.1196974,0.387644 -1.2302859,0.675831 -0.1985103,0.51731 -0.086566,1.127945 0.2726286,1.487138 0.5179736,0.517973 1.173334,0.485286 1.7456896,-0.08707 z m 25.2649236,0.664168 c -1.375884,-1.157732 -0.558641,-3.334881 1.251822,-3.334881 0.714881,0 1.287056,0.370378 1.646761,1.065975 l 0.230067,0.444892 1.845101,-0.04906 c 2.095099,-0.05575 2.354223,-0.180519 2.603101,-1.253452 0.07401,-0.319048 0.136158,-2.803352 0.138108,-5.520674 L 40.935346,9.1456805 40.50695,8.9241449 C 39.868101,8.593789 39.34036,7.8861925 39.225424,7.2058939 39.093988,6.4279312 39.604407,5.3407168 40.325346,4.863019 c 1.043309,-0.6912976 2.615319,-0.305947 3.247047,0.7959645 0.647881,1.1300692 0.264104,2.5773484 -0.852527,3.2150058 l -0.592594,0.3384042 -0.0011,5.1404715 c -0.0011,5.646507 -0.07744,6.273003 -0.852696,7.012618 -0.638708,0.609342 -1.097578,0.7098 -3.242258,0.7098 -1.836941,0 -2.00496,0.0231 -2.15093,0.295869 -0.423148,0.790655 -1.913433,0.993397 -2.663401,0.362341 z M 42.273856,7.6509827 c 0.394,-0.3940003 0.393005,-1.2057297 -0.0017,-1.5631306 -0.685924,-0.6207515 -1.78253,-0.148095 -1.78253,0.768307 0,0.625422 0.444881,1.0922277 1.040931,1.0922277 0.247839,0 0.57829,-0.1321784 0.743516,-0.2974041 z M 21.45531,16.625419 c -0.12268,-0.04878 -0.423806,-0.275227 -0.669167,-0.503181 -0.428695,-0.398283 -0.515939,-0.416436 -2.234631,-0.465029 -1.750542,-0.04951 -1.807713,-0.062 -2.692498,-0.589143 C 15.361825,14.771847 13.46937,13.482156 11.653559,12.202081 9.8377485,10.922006 8.2811643,9.9185006 8.1944829,9.9720733 7.8009429,10.215292 6.9180742,10.305953 6.3618635,10.160264 4.7965736,9.7502567 4.0425546,7.9522479 4.8431261,6.5387355 5.8099698,4.8316408 8.296474,4.8721126 9.225053,6.6100516 9.5634184,7.243342 9.6198036,7.9897747 9.3923268,8.8244463 9.3388384,9.020713 11.895122,10.925642 15.556476,13.417927 l 1.462009,0.995188 1.586421,0.05266 1.586421,0.05266 0.269251,-0.507266 c 0.347675,-0.655019 0.956226,-1.006844 1.741514,-1.006844 0.532922,0 0.715617,0.08907 1.222658,0.596112 0.570438,0.570438 0.592987,0.628682 0.52347,1.35215 -0.09715,1.011025 -0.683647,1.62922 -1.619773,1.707319 -0.357545,0.02984 -0.750456,0.01433 -0.873137,-0.03451 z M 7.7631419,8.6043383 C 8.6533376,7.8552864 8.1513982,6.4613495 6.9914782,6.4613495 c -1.3220576,0 -1.7320055,1.7400298 -0.5507674,2.3377436 0.541155,0.2738269 0.8131565,0.233771 1.3224311,-0.1947548 z M 26.436891,16.513361 c -0.645945,-0.285129 -0.980591,-0.725874 -1.072733,-1.412838 -0.100985,-0.752896 0.162303,-1.415227 0.720612,-1.812779 0.424138,-0.302013 0.426473,-0.31241 0.426473,-1.899551 0,-1.042965 -0.06182,-1.6576973 -0.178445,-1.7743186 -0.223027,-0.2230306 -5.472303,-0.256522 -5.472303,-0.034902 0,0.078943 -0.216434,0.390038 -0.480965,0.6913196 -0.838574,0.955081 -1.885246,1.185362 -3.028289,0.666254 C 16.52546,10.56152 16.06397,9.8761572 15.983453,8.9052326 15.831501,7.0728837 17.595607,5.7285404 19.298589,6.3789165 c 0.672368,0.2567805 1.561906,1.1112355 1.561906,1.5003124 0,0.1830871 0.41633,0.2178824 2.607094,0.2178824 3.968923,0 4.134611,0.1180321 4.208097,2.9978597 0.04794,1.877575 0.05843,1.930889 0.412592,2.092254 0.492074,0.224205 0.951051,1.006147 0.950377,1.619114 -5.62e-4,0.687032 -0.495655,1.443463 -1.113203,1.701492 -0.623461,0.260495 -0.908573,0.261557 -1.488561,0.0056 z M 19.305863,9.516542 c 0.608875,-0.6088758 0.481406,-1.5721232 -0.258689,-1.9548435 -0.814991,-0.4214498 -1.658286,0.011803 -1.845555,0.9481287 -0.07797,0.3898469 -0.01837,0.5427248 0.358554,0.919645 0.572356,0.5723548 1.227716,0.6050428 1.74569,0.08707 z"
       id="path1" /></g></svg>
