<?xml version="1.0" encoding="UTF-8" standalone="no"?>
<!-- Created with Inkscape (http://www.inkscape.org/) -->

<svg
   width="418mm"
   height="240mm"
   viewBox="0 0 418 240"
   version="1.1"
   id="svg1"
   inkscape:version="1.3.2 (091e20e, 2023-11-25)"
   sodipodi:docname="login.svg"
   xml:space="preserve"
   xmlns:inkscape="http://www.inkscape.org/namespaces/inkscape"
   xmlns:sodipodi="http://sodipodi.sourceforge.net/DTD/sodipodi-0.dtd"
   xmlns="http://www.w3.org/2000/svg"
   xmlns:svg="http://www.w3.org/2000/svg"><sodipodi:namedview
     id="namedview1"
     pagecolor="#e3e3e3"
     bordercolor="#000000"
     borderopacity="0.25"
     inkscape:showpageshadow="2"
     inkscape:pageopacity="0.0"
     inkscape:pagecheckerboard="0"
     inkscape:deskcolor="#d1d1d1"
     inkscape:document-units="mm"
     inkscape:zoom="0.2737831"
     inkscape:cx="1088.4529"
     inkscape:cy="953.30939"
     inkscape:window-width="1568"
     inkscape:window-height="917"
     inkscape:window-x="62"
     inkscape:window-y="38"
     inkscape:window-maximized="0"
     inkscape:current-layer="layer3" /><defs
     id="defs1"><inkscape:path-effect
       effect="bspline"
       id="path-effect9"
       is_visible="true"
       lpeversion="1.3"
       weight="33.333333"
       steps="2"
       helper_size="0"
       apply_no_weight="true"
       apply_with_weight="true"
       only_selected="false"
       uniform="false" /><inkscape:path-effect
       effect="bspline"
       id="path-effect5"
       is_visible="true"
       lpeversion="1.3"
       weight="33.333333"
       steps="2"
       helper_size="0"
       apply_no_weight="true"
       apply_with_weight="true"
       only_selected="false"
       uniform="false" /></defs><g
     inkscape:label="Layer 1"
     inkscape:groupmode="layer"
     id="layer1"><g
       inkscape:groupmode="layer"
       id="layer2"
       inkscape:label="background"
       sodipodi:insensitive="true"><rect
         style="fill:#f0f5ff;fill-opacity:1;stroke-width:1.54858;stroke-linecap:round"
         id="rect1"
         width="418"
         height="240"
         x="0"
         y="0" /></g><g
       inkscape:groupmode="layer"
       id="layer3"
       inkscape:label="Content"><path
         d="M 163.37607,0 H 0 v 91.736519 c 22.181743,3.897902 53.154265,-0.745566 73.97533,-5.708695 23.827741,-5.679833 34.35614,-11.775141 46.68552,-12.883451 12.32939,-1.108311 26.45914,2.770837 37.95738,-2.770374 11.49823,-5.541211 20.36391,-20.502676 18.97868,-36.572445 C 176.65108,22.829054 170.88191,11.344246 163.37607,0 Z"
         style="fill:#e7e9f8;stroke-width:1.68351;stroke-linecap:round;fill-opacity:1"
         id="path8" /><path
         d="M 43.41027,0 H 0 v 239.99982 h 171.31512 c 21.4023,-21.9328 29.04458,-58.39526 14.70712,-82.85024 C 171.6953,132.11607 134.52686,119.26943 110.87075,92.321497 87.000496,65.349616 76.642304,24.275916 49.218184,3.8462769 47.359669,2.4617725 45.412226,1.1926135 43.41027,0 Z"
         style="fill:#7885f4;stroke-width:1.6275;stroke-linecap:round;fill-opacity:1"
         id="path4" /><path
         d="m 327.32679,239.99982 h 90.67302 V 0 H 349.5368 c -6.08474,9.6428728 -10.12247,20.483682 -11.50575,30.259135 -2.10127,14.849374 1.82116,27.176766 1.68103,39.504565 -0.14013,12.3278 -4.34288,24.654996 -10.64689,32.21974 -6.30402,7.56474 -14.70904,10.36679 -21.57336,15.12982 -6.86433,4.76304 -12.18738,11.48713 -16.95039,19.4722 -4.76301,7.98507 -8.96557,17.23029 -9.94616,27.31668 -0.98059,10.08639 1.26083,21.0134 4.62297,29.97905 3.36214,8.96565 7.84476,15.96963 14.84922,23.67452 6.17351,6.79085 14.5786,14.18144 27.25932,22.44411 z"
         style="fill:#eeeffd;stroke-width:3.82959;stroke-linecap:round;fill-opacity:1"
         id="path12" /><path
         style="fill:#f1d4c8;fill-opacity:1"
         d="m 233.44481,217.94637 c -3.28317,-0.86682 -6.01823,-2.11594 -11.43397,-5.22196 -1.63201,-0.93598 -3.62333,-1.93237 -4.42516,-2.21419 -4.80853,-1.69006 -10.92911,0.75963 -14.91585,5.96989 -0.50611,0.66144 -0.55413,0.68349 -0.28802,0.1323 0.63281,-1.31079 2.74109,-3.7428 4.44946,-5.13272 4.1553,-3.3807 8.03604,-4.28787 12.19375,-2.85045 0.80036,0.27671 3.48178,1.51829 5.9587,2.75907 6.45838,3.23525 8.55073,3.94006 12.16526,4.09789 5.03219,0.21973 8.69422,-0.76384 15.4438,-4.14794 1.80014,-0.90256 4.53858,-2.07117 6.08542,-2.59693 2.692,-0.91498 3.00078,-0.96081 7.21026,-1.07009 3.16138,-0.0821 5.38459,0.0114 7.90765,0.33256 5.53888,0.705 10.543,2.14777 6.34766,1.83014 -2.69602,-0.20411 -15.31378,0.57252 -17.86581,1.09965 -2.65802,0.54903 -4.22183,1.1354 -8.59253,3.22188 -5.10922,2.43903 -7.03705,3.16501 -10.01782,3.77245 -3.40002,0.69288 -7.63935,0.70053 -10.2228,0.0184 z"
         id="path22" /><path
         style="fill:#eeeffd;fill-opacity:1"
         d="m 53.845961,224.20914 c -0.99883,-0.18382 -2.53332,-1.54441 -2.94856,-2.6144 -0.91101,-2.34754 0.18652,-5.77752 2.70837,-8.46419 l 1.33125,-1.41826 -0.80959,-0.55864 c -1.17073,-0.80785 -3.29571,-1.38735 -5.29781,-1.44478 -4.59947,-0.13194 -9.48423,2.09172 -12.69899,5.78087 -1.91525,2.19788 -1.95106,2.41493 -0.65822,3.99075 1.20882,1.47343 1.52451,2.54567 1.23077,4.18032 -0.48468,2.69721 -3.67582,3.63815 -5.36613,1.58228 -0.80799,-0.98275 -1.21922,-3.02986 -0.94533,-4.70581 0.2564,-1.56888 0.23474,-1.58748 -2.10336,-1.80633 -3.08763,-0.289 -7.49365,1.08135 -11.1336,3.46276 -3.71257,2.42891 -7.05417,6.36074 -7.8447999,9.23046 -0.18861,0.68458 -0.41736,1.19565 -0.50834,1.13572 -0.38003,-0.2504 0.84662,-3.27543 2.0799599,-5.12937 2.40109,-3.60932 6.13735,-6.93566 10.06064,-8.95687 2.56479,-1.32135 6.36073,-2.08767 8.77221,-1.77093 l 1.7555,0.23056 1.0684,-1.65009 c 1.95327,-3.01674 4.6454,-5.29981 8.14868,-6.91054 1.97044,-0.90595 6.29172,-1.84513 8.20003,-1.78221 2.34807,0.0775 5.25479,0.94066 6.96743,2.06906 l 1.60113,1.05495 1.59717,-0.8775 c 3.47434,-1.9088 5.69952,-2.66327 11.00354,-3.73085 5.55454,-1.11803 10.37227,-1.58264 14.47276,-1.39581 2.44906,0.11158 5.94785,0.72836 4.16449,0.73412 -2.14193,0.007 -8.05298,1.08488 -14.57994,2.65883 -7.36021,1.77488 -10.59532,2.8139 -13.17602,4.23177 -1.18363,0.6503 -1.42246,0.89089 -1.27604,1.28537 0.0991,0.26693 0.354,1.30045 0.56653,2.29671 0.91873,4.30686 -1.17383,8.5095 -4.56064,9.15937 -0.68455,0.13158 -1.50429,0.19107 -1.82155,0.13269 z m 2.04517,-3.48008 c 1.14466,-0.99158 1.78957,-3.55829 1.38652,-5.51829 -0.22551,-1.09663 -0.59593,-1.02634 -1.6956,0.32173 -1.522,1.86584 -2.12541,3.30985 -1.89041,4.5239 0.25347,1.30956 1.14832,1.58321 2.19948,0.67263 z m -21.76405,2.23452 c 0.10486,-0.63527 -0.1163,-1.5129 -0.47502,-1.885 -0.22813,-0.23665 -0.3271,-0.0203 -0.37817,0.82683 -0.0673,1.11557 0.12262,1.63568 0.56404,1.5449 0.11888,-0.0244 0.24899,-0.24348 0.28915,-0.48673 z"
         id="path21" /><path
         style="fill:#7885f4;fill-opacity:1"
         d="m 343.02359,67.152101 c -0.0237,-0.0584 0.35868,-0.61919 0.84977,-1.24641 2.20964,-2.8221 6.37642,-9.37882 8.33611,-13.11749 0.71941,-1.37247 0.78276,-1.72317 0.5049,-2.79517 -0.41886,-1.61598 -0.17726,-4.33771 0.62855,-7.08104 0.84568,-2.87906 1.77898,-4.53644 2.78496,-4.94564 1.05596,-0.42953 1.5204,-0.16601 2.06435,1.17124 0.71822,1.76569 0.38654,4.21457 -1.08096,7.98094 -0.7882,2.02293 -1.16079,3.36121 -0.98733,3.54638 1.06153,1.13325 5.15469,-1.80625 9.68618,-6.95612 1.83832,-2.08919 1.88881,-2.18696 1.95784,-3.79081 0.20976,-4.87445 3.05399,-11.07069 5.54725,-12.08487 1.07301,-0.43647 2.66523,0.26305 3.11487,1.36844 0.85163,2.09365 -0.52429,6.3407 -3.34209,10.31592 -2.17716,3.07144 -2.06028,2.7945 -1.46539,3.47234 1.40945,1.60598 4.58806,0.46394 8.79115,-3.15857 3.92231,-3.38052 4.384,-3.93804 4.24378,-5.12466 -0.47224,-3.99608 2.87779,-11.22958 5.73988,-12.39379 1.60059,-0.65106 3.20216,-0.0561 3.79902,1.4112 0.80604,1.98156 -0.92767,6.59364 -3.8215,10.16615 -0.94893,1.1715 -1.64805,2.22709 -1.55359,2.34577 0.62657,0.78716 3.83938,-0.25828 6.92732,-2.25412 2.19903,-1.42133 11.14603,-8.46346 14.62326,-11.5099 1.3798,-1.20885 3.10981,-2.85628 3.84447,-3.66093 1.59806,-1.75035 1.64977,-1.50305 0.13792,0.65969 -2.61343,3.73859 -11.32362,12.60016 -15.88533,16.1614 -4.48655,3.50256 -8.13995,4.68787 -10.81952,3.51029 l -1.32139,-0.5807 -2.04169,1.94061 c -4.07668,3.87485 -7.92218,6.18491 -10.51137,6.31437 -1.32932,0.0665 -3.39621,-0.65116 -4.18945,-1.45458 l -0.58783,-0.59536 -1.52238,1.63398 c -3.14729,3.37801 -5.33821,5.1734 -7.65056,6.26939 -2.31345,1.09652 -3.28732,1.20885 -4.71936,0.54437 l -0.67298,-0.31228 -2.17375,3.17335 c -1.19556,1.74533 -3.05655,4.23828 -4.13553,5.53986 -2.09472,2.5269 -5.02831,5.71197 -5.09958,5.53675 z m 13.88865,-25.97835 c 0.0602,-0.87474 0.0223,-1.62716 -0.0841,-1.67204 -0.29205,-0.12316 -1.29665,3.66231 -1.52683,5.75334 l -0.20276,1.84186 0.85214,-2.16637 c 0.46868,-1.1915 0.90138,-2.88206 0.96155,-3.75679 z m 33.70838,-13.4253 c 0.88082,-2.07078 0.85028,-2.6893 -0.0791,-1.60195 -0.68262,0.79866 -2.4913,4.66425 -2.58181,5.51797 -0.0943,0.88909 1.8075,-1.90973 2.66088,-3.91602 z m -17.70454,5.9806 c 0.855,-1.88255 0.80246,-2.50948 -0.0672,-0.80132 -0.7485,1.47025 -1.68385,4.21153 -1.05965,3.10556 0.22609,-0.40059 0.73315,-1.43749 1.12681,-2.30424 z"
         id="path20" /><path
         style="fill:#bcc2f6;fill-opacity:1;stroke-width:0.754461"
         d="m 347.26918,232.86477 c -0.47718,-0.52727 -0.41913,-1.36476 0.11877,-1.7135 1.53522,-0.99534 24.36074,-7.21586 34.08473,-9.28893 l 2.69485,-0.57451 -1.39733,-0.0155 c -1.89209,-0.0211 -11.54261,0.3313 -15.96942,0.58308 -6.4209,0.36518 -13.13525,1.02255 -17.35383,1.69899 -0.981,0.1573 -1.81416,0.25549 -1.85147,0.21818 -0.1684,-0.1684 2.45601,-1.12219 4.6332,-1.68384 8.21407,-2.119 24.23326,-3.26283 45.58275,-3.25478 10.86519,0.004 10.80927,-0.002 10.80927,1.19481 0,1.06824 -0.4366,1.22404 -3.43014,1.22404 -9.13232,0 -20.21212,1.85485 -36.59322,6.126 -4.66254,1.21569 -6.14347,1.67508 -4.4914,1.39325 2.87117,-0.4898 15.6843,-1.82016 21.3591,-2.21766 8.45107,-0.59197 23.45269,-1.13075 30.14228,-1.08256 4.09488,0.0295 5.1424,-0.11744 -10.47993,1.46998 -5.92865,0.60243 -14.7767,1.45517 -19.66235,1.89497 -11.66271,1.04989 -25.33738,2.6524 -34.93609,4.09411 -2.54723,0.38258 -2.85947,0.37625 -3.25977,-0.0661 z"
         id="path19" /><path
         id="path18"
         style="fill:#babefa;fill-opacity:1"
         d="m 60.499813,112.2804 c -9.77494,0.0298 -17.76511,0.33257 -23.48487,0.90641 -9.35572,0.93862 -21.44854,3.30616 -22.48958,4.40334 -0.18231,0.1921 -0.1184,0.22769 0.20515,0.11369 1.32022,-0.46514 17.50947,-1.96056 27.5761,-2.54713 7.91549,-0.46123 23.59253,-0.7783 48.94791,-0.99012 26.044277,-0.21757 26.120987,-0.24319 3.43959,-1.15548 -12.85957,-0.51724 -24.41935,-0.76049 -34.1943,-0.73071 z m 3.89951,4.6545 c -16.85874,-0.004 -28.26606,1.19433 -41.02127,4.31085 -3.05005,0.74522 -5.5454,1.40419 -5.5454,1.46399 0,0.17984 0.36242,0.13072 2.94762,-0.39791 11.94466,-2.4425 37.50275,-3.37589 58.72975,-2.14509 10.20146,0.59151 26.697217,1.14364 30.397627,1.01751 l 2.51354,-0.0858 -5.82083,-0.85421 C 90.031153,117.81229 78.889643,116.9389 64.399323,116.9349 Z" /><path
         style="fill:#d3ddff;fill-opacity:1"
         d="m 180.83208,123.05876 c -0.75596,-0.83532 -0.51454,-2.12559 0.97396,-5.20543 2.05359,-4.24905 6.42039,-11.7021 6.69528,-11.4272 0.0788,0.0787 -2.52593,6.17959 -4.54016,10.6342 -0.3948,0.87312 -0.87793,2.03566 -1.07363,2.58342 -0.33033,0.92455 -0.3227,0.97819 0.10647,0.7485 0.25427,-0.13607 2.83919,-2.49535 5.74427,-5.24284 10.45062,-9.8837 9.86721,-9.37462 10.64026,-9.28445 0.44333,0.0517 0.86033,0.35111 1.1091,0.79634 0.36753,0.65776 0.35117,0.81272 -0.20953,1.98438 -0.54087,1.13024 -2.61434,4.93158 -4.0847,7.48861 -0.5725,0.9956 -0.8284,1.22712 7.72513,-6.98944 5.69272,-5.46845 6.69802,-6.10213 8.07889,-5.09242 0.99102,0.72465 0.64082,2.17919 -1.66737,6.92536 -2.07151,4.25949 -2.11923,4.3991 -1.29286,3.78257 0.88234,-0.65829 7.34638,-5.55547 13.11437,-9.9355 3.96913,-3.01403 4.7995,-3.45262 5.73224,-3.02763 0.3698,0.16849 0.81152,0.61177 0.98161,0.98507 0.41314,0.90675 -0.24293,2.22588 -4.01849,8.07979 -1.60222,2.4842 -2.91313,4.57233 -2.91313,4.64028 0,0.0679 3.36351,-2.42199 7.47448,-5.53318 10.50407,-7.94953 11.17584,-8.35392 12.46956,-7.50624 1.41566,0.92758 0.99974,2.37465 -2.16136,7.51977 -1.18463,1.92815 -2.10475,3.50573 -2.04472,3.50573 0.06,0 1.38537,-0.7739 2.9452,-1.71979 2.20978,-1.34001 3.06455,-1.71979 3.87076,-1.71979 1.35978,0 2.4948,1.08443 2.74001,2.61788 0.0955,0.59746 0.21974,1.08629 0.276,1.08629 0.10651,0 3.30452,-1.31397 6.04778,-2.48486 1.78566,-0.76216 4.07069,-0.90984 5.17345,-0.33434 0.70962,0.37033 9.24852,0.40224 15.46405,0.0578 l 2.91041,-0.16128 -1.25661,0.67258 c -0.69113,0.36992 -2.35801,1.04172 -3.70417,1.49288 -2.04543,0.68553 -3.07786,0.85717 -6.28401,1.04473 -2.11005,0.12344 -4.4392,0.29877 -5.17589,0.38962 -0.94407,0.11644 -1.63697,0.0409 -2.34742,-0.25596 -1.56628,-0.65444 -2.61151,-0.5135 -5.52227,0.74461 -3.5707,1.54336 -5.01961,2.00923 -6.24894,2.00923 -1.49843,0 -2.21676,-0.69954 -2.39098,-2.32842 l -0.14263,-1.33357 -2.38125,1.44926 c -3.56471,2.16953 -6.37378,3.53564 -7.27016,3.53564 -0.92198,0 -1.85796,-0.80635 -1.85796,-1.60064 0,-0.71806 0.45706,-1.57248 3.07136,-5.74154 1.20909,-1.92816 2.14152,-3.50573 2.07207,-3.50573 -0.0695,0 -3.54709,2.65773 -7.72808,5.90607 -9.02543,7.01214 -10.63599,8.13056 -11.96483,8.3088 -1.14488,0.15356 -2.11927,-0.56326 -2.11927,-1.55905 0,-0.79528 1.32605,-3.12943 4.45456,-7.84103 1.46849,-2.21157 2.60841,-4.02104 2.53317,-4.02104 -0.0752,0 -0.93413,0.63457 -1.90863,1.41015 -3.26435,2.59805 -11.38036,8.59314 -12.60386,9.31016 -1.52827,0.89563 -2.86879,0.96415 -3.64654,0.1864 -0.93411,-0.93411 -0.70857,-2.1253 1.10735,-5.84867 l 1.62811,-3.33825 -4.05031,3.98175 c -5.97118,5.87012 -8.8102,8.51153 -9.79105,9.10954 -1.74667,1.06492 -3.38739,0.45069 -3.38739,-1.26813 0,-0.74369 1.81826,-4.60303 3.123,-6.62873 0.39581,-0.61452 0.32153,-0.58749 -0.63095,0.22953 -0.59377,0.50932 -2.37965,2.10742 -3.96862,3.55134 -4.64806,4.22372 -6.79543,5.35993 -7.87513,4.16688 z"
         id="path16" /><path
         id="path15"
         style="fill:#ee78a3;fill-opacity:1"
         d="m 94.037918,19.060883 c -3.46992,-0.07101 -7.41439,1.25631 -13.68289,4.22817 -4.90131,2.32367 -6.26976,2.75005 -8.28683,2.58278 -1.89799,-0.15739 -3.31886,-0.91322 -6.13193,-3.26285 -2.7954,-2.33486 -4.39216,-3.03599 -6.91792,-3.03599 -3.45777,0 -7.01117,1.4382 -14.11748,5.71438 -6.1903,3.72497 -8.90261,4.64105 -12.09849,4.08451 -0.95473,-0.16626 -3.35614,-0.91616 -5.33611,-1.66605 -3.28401,-1.24379 -3.79714,-1.36429 -5.84874,-1.37459 -1.91012,-0.0096 -2.48081,0.09741 -3.7884,0.71003 -2.77721,1.30116 -5.76788,4.92671 -6.66161,8.07599 -0.09962,0.35106 -0.05336,0.59532 0.11318,0.59532 0.15533,0 0.28267,-0.18255 0.28267,-0.40566 0,-1.62874 3.08773,-5.20799 5.52576,-6.4053 1.26769,-0.62255 1.81539,-0.72967 3.73465,-0.72967 2.15609,0 2.39431,0.06319 5.77433,1.52911 5.569,2.41527 7.99901,2.78103 11.69334,1.76061 2.01009,-0.55522 4.28639,-1.68382 11.02827,-5.46788 5.66133,-3.17757 9.37152,-4.16708 11.80651,-3.14968 0.47443,0.19823 1.86983,1.2115 3.10059,2.25206 1.23076,1.04057 3.11028,2.3301 4.177,2.86546 1.75588,0.88123 2.14416,0.97375 4.10105,0.97875 2.66061,0.0067 3.70775,-0.32875 9.43766,-3.02307 6.36732,-2.99404 8.18584,-3.54316 11.77396,-3.55586 2.71536,-0.0096 3.02628,0.04443 4.63693,0.80771 1.18633,0.56219 2.358532,1.44267 3.748092,2.81429 2.71765,2.6826 4.10655,3.34002 7.79694,3.69074 3.54324,0.33673 9.82442,0.11795 11.59929,-0.40411 l 1.32292,-0.38913 -1.81798,-0.02377 c -3.60354,-0.04689 -11.77071,-1.57255 -13.73249,-2.56522 -0.46958,-0.23761 -1.87819,-1.42787 -3.13056,-2.64531 -1.60165,-1.55699 -2.77881,-2.44695 -3.96875,-3.00085 -2.139592,-0.99595 -4.051012,-1.54232 -6.132962,-1.58492 z m -0.89349,5.30614 c -2.74988,-0.12679 -5.52008,0.88168 -11.73158,3.80596 -6.66131,3.13605 -8.57798,3.87167 -10.50892,4.03335 -1.88123,0.15751 -1.86631,0.1648 -5.1108,-2.45463 -2.42954,-1.96147 -4.50209,-3.08277 -6.79648,-3.6773 -4.06397,-1.05307 -6.89008,-0.25287 -14.34796,4.06177 -4.62764,2.67726 -8.67061,4.69666 -10.97298,5.48132 -2.55494,0.87074 -4.49759,0.82687 -7.3086,-0.16433 -3.8532,-1.35869 -6.4139,-0.98667 -8.65838,1.2578 -1.12059,1.1206 -2.27917,3.31681 -2.54403,4.82245 -0.18223,1.0359 -0.29447,1.2269 1.16582,-1.98438 2.05797,-4.52558 4.94734,-5.16178 10.88874,-2.39778 4.08584,1.90078 7.64115,0.98501 17.59221,-4.53203 8.20273,-4.54774 10.10643,-5.12565 13.49168,-4.09484 2.26866,0.69081 4.34723,1.93591 6.65024,3.98271 0.98537,0.87575 2.32413,1.83354 2.97449,2.12855 2.91991,1.32451 6.70557,0.2211 15.33757,-4.4695 5.86306,-3.18596 8.29325,-3.84238 11.37708,-3.07423 0.94588,0.23561 3.98198,1.55981 6.746882,2.94298 6.81572,3.40962 8.69597,3.90922 14.81666,3.93722 5.86518,0.02688 6.4987,-0.23133 2.57556,-1.05058 -5.51859,-1.15241 -12.14845,-3.22313 -15.00374,-4.68602 -4.814652,-2.46676 -5.758742,-2.87921 -7.763862,-3.39204 -1.03884,-0.26569 -1.95297,-0.43419 -2.8696,-0.47645 z" /><path
         style="fill:#f6adb9;fill-opacity:1"
         d="m 232.08118,42.322035 c 0.39282,-0.1567 17.05458,-2.86545 24.20938,-3.93577 5.70821,-0.85392 14.12788,-2.00406 24.20937,-3.30703 l 3.96875,-0.51293 -5.42395,0.12612 c -17.84957,0.41503 -29.81497,1.22637 -41.0666,2.78462 -4.50813,0.62433 -4.97091,0.55707 -4.97091,-0.72252 0,-1.16412 0.965,-1.44827 9.87315,-2.90718 4.68347,-0.76702 9.94415,-1.63968 11.6904,-1.93925 l 3.175,-0.54467 -5.02709,0.13586 c -5.53736,0.14965 -13.68196,0.64262 -23.8125,1.4413 -3.63802,0.28682 -7.44802,0.58309 -8.46666,0.65838 -2.61552,0.19332 -3.85629,-0.54372 -3.47472,-2.06404 0.34092,-1.35833 2.38478,-1.96115 13.52888,-3.99023 9.50375,-1.73042 19.19201,-3.26846 27.64896,-4.38937 9.3616,-1.24081 9.65387,-1.30299 5.42396,-1.15403 -5.49701,0.1936 -14.18887,0.79175 -24.66618,1.69748 -5.12619,0.44314 -10.00775,0.76991 -10.84792,0.72617 -1.32061,-0.0688 -1.52757,-0.15069 -1.52757,-0.60472 0,-0.42126 0.34034,-0.61923 1.71979,-1.00039 4.18317,-1.15586 18.14329,-3.20491 31.00064,-4.55022 l 5.90874,-0.61825 -10.18646,-0.0237 c -10.92396,-0.0254 -19.53564,0.27142 -26.32604,0.90742 -4.32107,0.40471 -8.84216,1.01226 -9.79052,1.31566 -0.44842,0.14345 -0.46269,0.12648 -0.0945,-0.11234 0.64254,-0.41674 6.32661,-1.75754 10.0603,-2.3731 8.13353,-1.34093 14.23339,-1.78876 29.72263,-2.18213 17.46083,-0.44343 64.63642,0.31737 66.62786,1.07451 0.91926,0.3495 1.34405,1.17704 0.9664,1.88267 -0.44016,0.82245 -1.22411,0.97885 -3.82968,0.76407 -4.56911,-0.37666 -26.30146,-0.8483 -40.48125,-0.87855 -15.07854,-0.0322 -15.93835,0.0138 -26.59062,1.42172 -3.36783,0.44513 -3.54559,0.49122 -1.45521,0.37731 1.30968,-0.0714 3.92906,-0.23927 5.82083,-0.37311 8.81817,-0.62392 24.60932,-0.85953 37.43854,-0.55861 21.05427,0.49385 22.49667,0.56451 23.06188,1.12971 0.58212,0.58213 0.63391,1.62145 0.10274,2.06228 -0.28318,0.23502 -3.54844,0.33787 -12.50156,0.39376 -14.2675,0.0891 -22.56709,0.60459 -38.70889,2.40432 -6.24731,0.69654 -20.30828,2.67808 -25.26771,3.56083 l -2.91042,0.51805 3.30729,-0.13793 c 1.81902,-0.0759 5.50995,-0.26023 8.20209,-0.40972 6.66364,-0.37002 50.43631,-0.60693 54.06186,-0.2926 2.37262,0.2057 2.96237,0.34577 3.43166,0.81506 0.4841,0.4841 0.52504,0.67698 0.281,1.32354 l -0.28569,0.75686 2.51601,0.16527 c 2.92724,0.19228 3.75974,0.58237 3.75974,1.76174 0,1.24459 -0.72896,1.50425 -4.7625,1.6964 -12.69299,0.60468 -28.41522,2.10819 -61.03894,5.8371 -16.14847,1.84578 -18.90874,2.12541 -18.20377,1.84417 z m 67.13803,-11.16201 c -1.20055,-0.049 -3.16508,-0.049 -4.36563,0 -1.20055,0.049 -0.21828,0.0891 2.18281,0.0891 2.4011,0 3.38336,-0.0401 2.18282,-0.0891 z m -48.14914,-11.08923 c -0.17913,-0.0725 -0.53632,-0.0769 -0.79375,-0.01 -0.25743,0.0671 -0.11087,0.12638 0.3257,0.13177 0.43656,0.005 0.64718,-0.0495 0.46805,-0.12197 z"
         id="path14" /></g></g></svg>
