<?xml version="1.0" encoding="UTF-8" standalone="no"?>
<!-- Created with Inkscape (http://www.inkscape.org/) -->

<svg
   width="70mm"
   height="70mm"
   viewBox="0 0 70 70"
   version="1.1"
   id="svg1"
   inkscape:version="1.3.2 (091e20e, 2023-11-25)"
   sodipodi:docname="blue.svg"
   xml:space="preserve"
   xmlns:inkscape="http://www.inkscape.org/namespaces/inkscape"
   xmlns:sodipodi="http://sodipodi.sourceforge.net/DTD/sodipodi-0.dtd"
   xmlns="http://www.w3.org/2000/svg"
   xmlns:svg="http://www.w3.org/2000/svg"><sodipodi:namedview
     id="namedview1"
     pagecolor="#bebebe"
     bordercolor="#000000"
     borderopacity="0.25"
     inkscape:showpageshadow="2"
     inkscape:pageopacity="0.0"
     inkscape:pagecheckerboard="true"
     inkscape:deskcolor="#d1d1d1"
     inkscape:document-units="mm"
     inkscape:zoom="0.81052877"
     inkscape:cx="168.40858"
     inkscape:cy="257.23948"
     inkscape:window-width="1592"
     inkscape:window-height="906"
     inkscape:window-x="39"
     inkscape:window-y="25"
     inkscape:window-maximized="0"
     inkscape:current-layer="layer1" /><defs
     id="defs1" /><g
     inkscape:label="Layer 1"
     inkscape:groupmode="layer"
     id="layer1"><path
       style="fill:#00a6f4;stroke-width:0.387918;fill-opacity:1"
       d="m 34.834679,61.76226 c -0.06163,-0.09879 -0.912313,-1.56521 -1.890398,-3.258717 -0.978084,-1.693506 -2.365402,-4.095206 -3.082929,-5.337111 -0.717526,-1.241905 -1.984813,-3.435765 -2.816193,-4.875246 -0.831379,-1.43948 -2.099007,-3.63334 -2.81695,-4.875245 -0.717942,-1.241905 -1.906053,-3.297206 -2.640247,-4.567335 -0.734193,-1.27013 -2.042991,-3.533271 -2.908439,-5.029201 -2.717564,-4.69732 -3.692976,-6.412228 -3.693338,-6.493398 -1.93e-4,-0.04323 1.278888,-0.06632 2.842403,-0.05132 l 2.842755,0.02728 0.506369,0.872412 c 0.660423,1.137829 2.676522,4.626895 4.863168,8.416214 0.960959,1.665281 2.268016,3.928421 2.904572,5.0292 3.307234,5.719116 4.318606,7.468871 5.101939,8.826761 0.472189,0.818528 0.896122,1.501407 0.942075,1.517508 0.04595,0.0161 0.373984,-0.489357 0.728959,-1.123241 l 0.645409,-1.152512 -0.290093,-0.518947 c -0.159552,-0.285421 -0.957504,-1.67361 -1.773229,-3.084866 -0.815725,-1.411255 -2.17637,-3.766768 -3.023656,-5.234474 -2.517564,-4.361034 -6.073051,-10.509485 -8.205429,-14.189531 l -1.025895,-1.770483 h -4.250833 -4.250833 l -0.2594,-0.436206 c -1.361115,-2.288847 -2.579082,-4.453339 -2.541177,-4.516017 0.0256,-0.04234 3.223595,-0.07698 7.106646,-0.07698 h 7.060093 l 1.317532,2.283667 c 0.724643,1.256017 1.87789,3.253584 2.562772,4.439039 0.684881,1.185454 1.965204,3.402408 2.845162,4.926564 0.879957,1.524156 2.174458,3.764203 2.876668,4.977882 0.70221,1.21368 1.877042,3.245888 2.610738,4.516017 1.489459,2.578461 4.351104,7.527375 4.718195,8.159622 0.131103,0.225801 0.238925,0.464472 0.239605,0.53038 6.98e-4,0.06591 -0.4899,0.966545 -1.090178,2.001416 -1.313825,2.265017 -3.301523,5.699795 -4.815945,8.32204 -0.611281,1.058441 -1.137613,1.924439 -1.169628,1.924439 -0.03202,0 -0.108636,-0.08083 -0.17027,-0.179614 z m -7.942982,-6.404479 c -0.592727,-0.344646 -2.30163,-1.330787 -3.79756,-2.191425 -1.495931,-0.860638 -3.735978,-2.151801 -4.977882,-2.869253 -1.241905,-0.717451 -2.950807,-1.700594 -3.79756,-2.184763 -0.846753,-0.484169 -1.620378,-0.949368 -1.719166,-1.033776 -0.16852,-0.143991 -0.179614,-0.707543 -0.179614,-9.124336 0,-5.255946 0.03806,-8.947344 0.0919,-8.914066 0.05055,0.03124 0.659285,1.038523 1.352751,2.238407 0.693466,1.199884 1.725947,2.966778 2.294401,3.926432 l 1.033554,1.744825 0.05132,3.643604 0.05132,3.643605 2.673658,1.539551 c 1.470511,0.846753 2.839029,1.63865 3.04115,1.759769 0.398508,0.238805 0.397968,0.237948 3.06557,4.860301 2.135728,3.700734 2.076085,3.59257 1.979596,3.59002 -0.04716,-0.0012 -0.570711,-0.284249 -1.163438,-0.628895 z m 15.215258,0.194956 c 0.136313,-0.239914 0.956256,-1.66015 1.822095,-3.156081 0.865839,-1.49593 1.809003,-3.130739 2.095919,-3.632908 0.610557,-1.068614 0.486473,-0.976477 4.062098,-3.016298 1.326875,-0.756955 2.470233,-1.423664 2.540795,-1.481575 0.09809,-0.0805 0.128296,-0.933314 0.128296,-3.622493 v -3.517199 l 1.445366,-2.500142 c 2.859921,-4.94699 3.207393,-5.53689 3.292347,-5.589394 0.04742,-0.02931 0.08621,3.958843 0.08621,8.862554 0,6.974732 -0.02793,8.952378 -0.128297,9.083674 -0.07056,0.09231 -0.682534,0.486154 -1.359936,0.875208 -0.677403,0.389054 -2.432491,1.401039 -3.900197,2.248855 -9.958321,5.752397 -10.184601,5.882005 -10.269302,5.882005 -0.03478,0 0.04829,-0.196293 0.184601,-0.436206 z m 0.270766,-10.263799 c -0.599396,-1.030148 -1.863858,-3.212407 -2.809916,-4.849463 -0.946058,-1.637056 -2.060625,-3.560644 -2.476816,-4.27464 -0.416191,-0.713996 -0.756711,-1.349791 -0.756711,-1.412879 0,-0.08241 0.798619,-0.107022 2.836177,-0.08742 l 2.836177,0.02728 0.679132,1.180872 c 0.373522,0.64948 0.719032,1.24246 0.767799,1.317732 0.06423,0.09914 0.173833,-0.01417 0.397658,-0.411096 0.169945,-0.301376 0.811296,-1.411216 1.425225,-2.466311 0.613928,-1.055095 1.116234,-1.944185 1.116234,-1.975757 0,-0.03157 -2.597993,-0.05889 -5.773318,-0.0607 l -5.773317,-0.0033 -0.455946,-0.79214 c -0.491741,-0.854326 -1.891314,-3.278915 -4.759685,-8.245573 -0.998243,-1.728482 -1.814986,-3.194904 -1.814986,-3.258716 0,-0.133664 31.360511,-0.172608 31.441284,-0.03904 0.0379,0.06268 -1.180064,2.22717 -2.541177,4.516016 l -0.2594,0.436209 H 46.402833 36.349532 l 0.671469,1.180322 0.671469,1.180323 h 8.660848 c 4.763467,0 8.660849,0.02831 8.660849,0.06292 0,0.0827 -0.750962,1.418644 -2.373363,4.222168 -1.291714,2.232093 -2.692672,4.655888 -5.324349,9.211648 -3.258561,5.640976 -3.714502,6.41479 -3.779603,6.414674 -0.03812,-6.8e-5 -0.559735,-0.842972 -1.159131,-1.873121 z M 19.468561,17.022113 c -0.03713,-0.03713 0.428588,-0.351956 1.03492,-0.699621 0.606333,-0.347666 2.372553,-1.36362 3.924934,-2.257678 1.552381,-0.894058 3.884801,-2.236301 5.183156,-2.982763 1.298354,-0.746463 3.006178,-1.7323394 3.795164,-2.1908374 0.788986,-0.458498 1.504877,-0.833386 1.59087,-0.833084 0.08599,3.02e-4 0.664402,0.293001 1.285354,0.650441 0.620953,0.357441 2.352948,1.3568494 3.848879,2.2209074 1.49593,0.864059 3.782164,2.180892 5.080519,2.926296 1.298355,0.745405 2.660858,1.53841 3.027784,1.762235 0.366926,0.223825 1.025085,0.60355 1.462574,0.843833 0.437489,0.240283 0.795435,0.479829 0.795435,0.532326 0,0.05744 -1.854866,0.09545 -4.657676,0.09545 h -4.657675 l -2.68207,-1.539035 C 37.025591,14.704115 35.639828,13.898659 35.421255,13.76068 L 35.02385,13.509809 33.703306,14.28605 c -0.726299,0.426932 -2.128017,1.232388 -3.114929,1.789903 l -1.794385,1.013662 h -4.628965 c -2.54593,0 -4.65934,-0.03038 -4.696466,-0.0675 z"
       id="path1" /></g></svg>
